<svg width="24" height="24" viewBox="0 0 24 24"  xmlns="http://www.w3.org/2000/svg">
<mask id="mask0_129_2755" style="mask-type:alpha" maskUnits="userSpaceOnUse" x="0" y="0" width="24" height="24">
<rect width="24" height="24" />
</mask>
<g mask="url(#mask0_129_2755)">
<path d="M5.75375 17.0115C6.54225 16.4153 7.15542 15.6782 7.59325 14.8C8.03108 13.9218 8.25 12.9885 8.25 12C8.25 11.0115 8.03108 10.0782 7.59325 9.2C7.15542 8.32183 6.54225 7.58467 5.75375 6.9885C5.18592 7.70767 4.75167 8.49325 4.451 9.34525C4.15033 10.1971 4 11.082 4 12C4 12.918 4.15033 13.8029 4.451 14.6547C4.75167 15.5068 5.18592 16.2923 5.75375 17.0115ZM12 20C12.9552 20 13.8763 19.8398 14.7635 19.5193C15.6507 19.1988 16.4538 18.7244 17.173 18.0962C16.2487 17.3422 15.5304 16.4355 15.0182 15.376C14.5061 14.3163 14.25 13.191 14.25 12C14.25 10.809 14.5061 9.68367 15.0182 8.624C15.5304 7.5645 16.2487 6.65775 17.173 5.90375C16.4538 5.27558 15.6507 4.80125 14.7635 4.48075C13.8763 4.16025 12.9552 4 12 4C11.0448 4 10.1237 4.16025 9.2365 4.48075C8.34933 4.80125 7.54617 5.27558 6.827 5.90375C7.75133 6.65775 8.46958 7.5645 8.98175 8.624C9.49392 9.68367 9.75 10.809 9.75 12C9.75 13.191 9.49392 14.3163 8.98175 15.376C8.46958 16.4355 7.75133 17.3422 6.827 18.0962C7.54617 18.7244 8.34933 19.1988 9.2365 19.5193C10.1237 19.8398 11.0448 20 12 20ZM18.2462 17.0115C18.8141 16.2923 19.2483 15.5068 19.549 14.6547C19.8497 13.8029 20 12.918 20 12C20 11.082 19.8497 10.1971 19.549 9.34525C19.2483 8.49325 18.8141 7.70767 18.2462 6.9885C17.4577 7.58467 16.8446 8.32183 16.4068 9.2C15.9689 10.0782 15.75 11.0115 15.75 12C15.75 12.9885 15.9689 13.9218 16.4068 14.8C16.8446 15.6782 17.4577 16.4153 18.2462 17.0115ZM12.0017 21.5C10.6877 21.5 9.45267 21.2507 8.2965 20.752C7.14033 20.2533 6.13467 19.5766 5.2795 18.7218C4.42433 17.8669 3.74725 16.8617 3.24825 15.706C2.74942 14.5503 2.5 13.3156 2.5 12.0017C2.5 10.6877 2.74933 9.45267 3.248 8.2965C3.74667 7.14033 4.42342 6.13467 5.27825 5.2795C6.13308 4.42433 7.13833 3.74725 8.294 3.24825C9.44967 2.74942 10.6844 2.5 11.9983 2.5C13.3123 2.5 14.5473 2.74933 15.7035 3.248C16.8597 3.74667 17.8653 4.42342 18.7205 5.27825C19.5757 6.13308 20.2528 7.13833 20.7518 8.294C21.2506 9.44967 21.5 10.6844 21.5 11.9983C21.5 13.3123 21.2507 14.5473 20.752 15.7035C20.2533 16.8597 19.5766 17.8653 18.7218 18.7205C17.8669 19.5757 16.8617 20.2528 15.706 20.7518C14.5503 21.2506 13.3156 21.5 12.0017 21.5Z" />
</g>
</svg>
