<svg width="24" height="24" viewBox="0 0 24 24"  xmlns="http://www.w3.org/2000/svg">
<mask id="mask0_158_1753" style="mask-type:alpha" maskUnits="userSpaceOnUse" x="0" y="0" width="24" height="24">
<rect width="24" height="24" />
</mask>
<g mask="url(#mask0_158_1753)">
<path d="M4.03075 11.25H7.1885C7.10767 10.5398 6.90958 9.86325 6.59425 9.22025C6.27892 8.57725 5.87575 8.01025 5.38475 7.51925C5.01408 8.06025 4.71183 8.64325 4.478 9.26825C4.244 9.89325 4.09492 10.5538 4.03075 11.25ZM16.8115 11.25H19.9693C19.9051 10.5603 19.756 9.90458 19.522 9.28275C19.2882 8.66092 18.9859 8.0795 18.6152 7.5385C18.1051 8.03583 17.6971 8.60117 17.3913 9.2345C17.0856 9.868 16.8923 10.5398 16.8115 11.25ZM5.38475 16.4615C5.87575 15.9642 6.27892 15.3988 6.59425 14.7655C6.90958 14.132 7.10767 13.4602 7.1885 12.75H4.03075C4.10125 13.4462 4.25192 14.1035 4.48275 14.722C4.71342 15.3407 5.01408 15.9205 5.38475 16.4615ZM18.6152 16.4615C18.9859 15.9205 19.2882 15.3391 19.522 14.7172C19.756 14.0954 19.9051 13.4397 19.9693 12.75H16.8115C16.8923 13.4602 17.0856 14.132 17.3913 14.7655C17.6971 15.3988 18.1051 15.9642 18.6152 16.4615ZM8.71925 11.25H11.25V4.03075C10.2833 4.13208 9.38075 4.38275 8.54225 4.78275C7.70375 5.18275 6.96533 5.71283 6.327 6.373C6.98983 7.02567 7.52892 7.76417 7.94425 8.5885C8.35958 9.41283 8.61792 10.3 8.71925 11.25ZM12.75 11.25H15.2807C15.3821 10.3 15.6388 9.40958 16.051 8.57875C16.4632 7.74808 17.0038 7.01283 17.673 6.373C17.0347 5.71283 16.2963 5.18275 15.4578 4.78275C14.6193 4.38275 13.7167 4.13208 12.75 4.03075V11.25ZM11.25 19.9693V12.75H8.71925C8.61792 13.7128 8.36117 14.6032 7.949 15.4212C7.53683 16.2391 6.99617 16.9679 6.327 17.6077C6.96533 18.2679 7.70058 18.8013 8.53275 19.2078C9.36475 19.6141 10.2705 19.8679 11.25 19.9693ZM12.75 19.9693C13.7167 19.8679 14.6193 19.6173 15.4578 19.2173C16.2963 18.8173 17.0347 18.2872 17.673 17.627C17.0038 16.9872 16.4632 16.2551 16.051 15.4307C15.6388 14.6064 15.3821 13.7128 15.2807 12.75H12.75V19.9693ZM12 21.5C10.6872 21.5 9.45292 21.2503 8.29725 20.751C7.14142 20.2517 6.13592 19.5744 5.28075 18.7193C4.42558 17.8641 3.74833 16.8586 3.249 15.7028C2.74967 14.5471 2.5 13.3128 2.5 12C2.5 10.6872 2.74967 9.45292 3.249 8.29725C3.74833 7.14142 4.42558 6.13592 5.28075 5.28075C6.13592 4.42558 7.14142 3.74833 8.29725 3.249C9.45292 2.74967 10.6872 2.5 12 2.5C13.3128 2.5 14.5471 2.74967 15.7028 3.249C16.8586 3.74833 17.8641 4.42558 18.7193 5.28075C19.5744 6.13592 20.2517 7.14142 20.751 8.29725C21.2503 9.45292 21.5 10.6872 21.5 12C21.5 13.3128 21.2503 14.5471 20.751 15.7028C20.2517 16.8586 19.5744 17.8641 18.7193 18.7193C17.8641 19.5744 16.8586 20.2517 15.7028 20.751C14.5471 21.2503 13.3128 21.5 12 21.5Z" />
</g>
</svg>
