<svg width="24" height="24" viewBox="0 0 24 24"  xmlns="http://www.w3.org/2000/svg">
<mask id="mask0_129_2762" style="mask-type:alpha" maskUnits="userSpaceOnUse" x="0" y="0" width="24" height="24">
<rect width="24" height="24" />
</mask>
<g mask="url(#mask0_129_2762)">
<path fill-rule="evenodd" clip-rule="evenodd" d="M15.1875 18.6875C14.3125 19.5625 13.25 20 12 20C10.75 20 9.6875 19.5625 8.8125 18.6875C7.9375 17.8125 7.5 16.75 7.5 15.5C7.5 14.25 7.9375 13.1875 8.8125 12.3125C9.6875 11.4375 10.75 11 12 11C13.25 11 14.3125 11.4375 15.1875 12.3125C16.0625 13.1875 16.5 14.25 16.5 15.5C16.5 16.75 16.0625 17.8125 15.1875 18.6875ZM10.1375 9.79626C9.76883 9.91409 9.42108 10.0711 9.09425 10.2673L6.3655 4.76926H8.8655L11.2655 9.55001C10.8822 9.59617 10.5062 9.67826 10.1375 9.79626ZM17.6595 4.76926L14.9057 10.2673C14.6506 10.1123 14.3874 9.98601 14.1163 9.88851C13.8451 9.79101 13.564 9.70892 13.273 9.64226L12.9808 9.05776L15.1345 4.76926H17.6595ZM19.1952 17.7163C18.6586 18.3401 17.989 18.7238 17.1865 18.8673C17.148 18.8673 17.1095 18.8657 17.071 18.8625C17.0327 18.8593 16.9942 18.8545 16.9557 18.848C17.2839 18.3712 17.54 17.8488 17.724 17.2808C17.908 16.7128 18 16.1192 18 15.5C18 14.8808 17.908 14.2873 17.724 13.7193C17.54 13.1513 17.2839 12.6288 16.9557 12.152C16.9942 12.1455 17.0327 12.1407 17.071 12.1375C17.1095 12.1343 17.148 12.1328 17.1865 12.1328C17.989 12.2763 18.6586 12.6599 19.1952 13.2838C19.7318 13.9074 20 14.6462 20 15.5C20 16.3538 19.7318 17.0926 19.1952 17.7163ZM10.1355 21.2078C10.7247 21.4026 11.3462 21.5 12 21.5C12.6538 21.5 13.2728 21.4009 13.8568 21.2028C14.4408 21.0048 14.9783 20.7327 15.4693 20.3865C15.6321 20.4327 15.8007 20.4631 15.975 20.4778C16.1493 20.4926 16.3243 20.5 16.5 20.5C17.8923 20.5 19.0737 20.0148 20.0443 19.0443C21.0148 18.0738 21.5 16.8923 21.5 15.5C21.5 14.159 21.0481 13.0135 20.1443 12.0635C19.2404 11.1135 18.1283 10.5975 16.8077 10.5155C16.7436 10.5155 16.6811 10.5187 16.6202 10.525C16.5592 10.5315 16.4999 10.5412 16.4423 10.554L19.3551 4.7157C19.6868 4.05085 19.2033 3.26926 18.4603 3.26926H14.8103C14.4315 3.26926 14.0852 3.48327 13.9159 3.82206L12 7.65401L10.0841 3.82206C9.91475 3.48327 9.56848 3.26926 9.1897 3.26926H5.54067C4.79744 3.26926 4.31393 4.05129 4.64609 4.71617L7.59225 10.6135C7.52825 10.6007 7.46417 10.5894 7.4 10.5798C7.33583 10.5703 7.2685 10.5655 7.198 10.5655C5.884 10.6372 4.7725 11.148 3.8635 12.098C2.9545 13.048 2.5 14.1903 2.5 15.525C2.5 16.9007 2.98525 18.0738 3.95575 19.0443C4.92625 20.0148 6.09933 20.5 7.475 20.5C7.66083 20.5 7.84 20.4926 8.0125 20.4778C8.185 20.4631 8.35267 20.4327 8.5155 20.3865C9.0065 20.739 9.5465 21.0128 10.1355 21.2078ZM10.4751 17.4274C10.4184 17.613 10.6326 17.7625 10.7872 17.6452L11.8791 16.8167C11.9506 16.7625 12.0494 16.7625 12.1209 16.8167L13.2128 17.6452C13.3674 17.7625 13.5816 17.613 13.5249 17.4274L13.1055 16.0548C13.0804 15.9726 13.1106 15.8836 13.1805 15.8336L14.2618 15.0607C14.4201 14.9476 14.34 14.698 14.1455 14.698H12.8159C12.7277 14.698 12.6498 14.6402 12.6244 14.5556L12.1915 13.1172C12.1344 12.9273 11.8656 12.9273 11.8085 13.1172L11.3756 14.5556C11.3502 14.6402 11.2723 14.698 11.1841 14.698H9.85449C9.65995 14.698 9.57992 14.9476 9.73818 15.0607L10.8195 15.8336C10.8894 15.8836 10.9196 15.9726 10.8945 16.0548L10.4751 17.4274ZM6.92358 18.8629C6.12108 18.7194 5.4515 18.3358 4.91483 17.7119C4.37833 17.0883 4.11008 16.3495 4.11008 15.4957C4.11008 14.6418 4.37833 13.9031 4.91483 13.2794C5.4515 12.6556 6.12108 12.2719 6.92358 12.1284C6.96208 12.1284 7.00058 12.13 7.03908 12.1332C7.07741 12.1363 7.11583 12.1412 7.15433 12.1477C6.82616 12.6245 6.57008 13.1469 6.38608 13.7149C6.20208 14.2829 6.11008 14.8765 6.11008 15.4957C6.11008 16.1148 6.20208 16.7084 6.38608 17.2764C6.57008 17.8444 6.82616 18.3668 7.15433 18.8437C7.11583 18.8502 7.07741 18.855 7.03908 18.8582C7.00058 18.8613 6.96208 18.8629 6.92358 18.8629Z" />
</g>
</svg>
