<svg width="24" height="24" viewBox="0 0 24 24"  xmlns="http://www.w3.org/2000/svg">
<mask id="mask0_129_2753" style="mask-type:alpha" maskUnits="userSpaceOnUse" x="0" y="0" width="24" height="24">
<rect width="24" height="24" />
</mask>
<g mask="url(#mask0_129_2753)">
<path d="M4.019 19.1269C3.72738 19.4185 3.25512 19.4202 2.96139 19.1307C2.6646 18.8382 2.66285 18.36 2.9575 18.0653L6.72485 14.298C7.22868 13.7942 7.56843 13.1792 7.7441 12.4532C7.91977 11.7271 8.0076 10.6145 8.0076 9.11549C8.0076 8.18816 8.21469 7.27683 8.62885 6.38149C9.04285 5.48616 9.6306 4.65774 10.3921 3.89624C11.8063 2.48208 13.3598 1.67499 15.0526 1.47499C16.7453 1.27499 18.1379 1.73208 19.2306 2.84624C20.3344 3.95291 20.7864 5.35166 20.5864 7.04249C20.3864 8.73333 19.5844 10.2807 18.1806 11.6845C17.4191 12.4462 16.5925 13.0308 15.7009 13.4385C14.8092 13.8462 13.896 14.05 12.9614 14.05C11.4729 14.05 10.3697 14.1368 9.65185 14.3105C8.93385 14.4842 8.3146 14.8313 7.7941 15.352L4.019 19.1269ZM10.3769 11.65C11.1602 12.423 12.2185 12.7063 13.5519 12.5C14.8852 12.2937 16.0769 11.6655 17.1269 10.6155C18.1935 9.54883 18.8294 8.35299 19.0344 7.02799C19.2395 5.70299 18.9537 4.66549 18.1769 3.91549C17.3832 3.12816 16.3389 2.83616 15.0441 3.03949C13.7493 3.24266 12.5602 3.87599 11.4769 4.93949C10.4269 5.98616 9.78769 7.17041 9.55935 8.49224C9.33119 9.81408 9.60368 10.8667 10.3769 11.65ZM18.0769 22.5C17.1144 22.5 16.2904 22.1572 15.6049 21.4717C14.9195 20.7864 14.5769 19.9625 14.5769 19C14.5769 18.0375 14.9195 17.2136 15.6049 16.5282C16.2904 15.8427 17.1144 15.5 18.0769 15.5C19.0394 15.5 19.8633 15.8427 20.5486 16.5282C21.2341 17.2136 21.5769 18.0375 21.5769 19C21.5769 19.9625 21.2341 20.7864 20.5486 21.4717C19.8633 22.1572 19.0394 22.5 18.0769 22.5ZM18.0769 21C18.6269 21 19.0977 20.8042 19.4894 20.4125C19.881 20.0208 20.0769 19.55 20.0769 19C20.0769 18.45 19.881 17.9792 19.4894 17.5875C19.0977 17.1958 18.6269 17 18.0769 17C17.5269 17 17.056 17.1958 16.6644 17.5875C16.2727 17.9792 16.0769 18.45 16.0769 19C16.0769 19.55 16.2727 20.0208 16.6644 20.4125C17.056 20.8042 17.5269 21 18.0769 21Z" />
</g>
</svg>
