<svg width="24" height="24" viewBox="0 0 24 24"  xmlns="http://www.w3.org/2000/svg">
<mask id="mask0_411_6467" style="mask-type:alpha" maskUnits="userSpaceOnUse" x="0" y="0" width="24" height="24">
<rect width="24" height="24" />
</mask>
<g mask="url(#mask0_411_6467)">
<path d="M19.6655 9.83475C19.2 8.24358 18.3422 6.91725 17.0922 5.85575C15.8422 4.79425 14.3948 4.18592 12.75 4.03075V5.78475L19.6655 9.83475ZM7.75 13.5922L11.25 11.5538V4.03075C10.6205 4.09358 10.0125 4.22883 9.426 4.4365C8.8395 4.64417 8.28083 4.91658 7.75 5.25375V13.5922ZM4.74625 15.3307L6.25 14.4537V6.48075C5.51033 7.21408 4.95042 8.058 4.57025 9.0125C4.19008 9.967 4 10.964 4 12.0035C4 12.5772 4.059 13.1462 4.177 13.7107C4.29483 14.2754 4.48458 14.8154 4.74625 15.3307ZM8.25 19.0538L15.5 14.9L12 12.8615L5.49625 16.6385C5.85508 17.1513 6.26308 17.6164 6.72025 18.0337C7.17725 18.4511 7.68717 18.7911 8.25 19.0538ZM12 20C13.2948 20 14.515 19.699 15.6605 19.097C16.806 18.4952 17.7538 17.6654 18.5038 16.6077L17 15.7615L10.0538 19.7538C10.3654 19.8488 10.6855 19.9135 11.014 19.948C11.3427 19.9827 11.6713 20 12 20ZM19.2538 15.3307C19.5283 14.7706 19.7277 14.1863 19.852 13.578C19.9763 12.9695 20.0192 12.3538 19.9807 11.7308L12.75 7.50775V11.5538L19.2538 15.3307ZM12.0017 21.5C10.6877 21.5 9.45267 21.2507 8.2965 20.752C7.14033 20.2533 6.13467 19.5766 5.2795 18.7218C4.42433 17.8669 3.74725 16.8617 3.24825 15.706C2.74942 14.5503 2.5 13.3156 2.5 12.0017C2.5 10.6877 2.74933 9.45267 3.248 8.2965C3.74667 7.14033 4.42342 6.13467 5.27825 5.2795C6.13308 4.42433 7.13833 3.74725 8.294 3.24825C9.44967 2.74942 10.6844 2.5 11.9983 2.5C13.3123 2.5 14.5473 2.74933 15.7035 3.248C16.8597 3.74667 17.8653 4.42342 18.7205 5.27825C19.5757 6.13308 20.2528 7.13833 20.7518 8.294C21.2506 9.44967 21.5 10.6844 21.5 11.9983C21.5 13.3123 21.2507 14.5473 20.752 15.7035C20.2533 16.8597 19.5766 17.8653 18.7218 18.7205C17.8669 19.5757 16.8617 20.2528 15.706 20.7518C14.5503 21.2506 13.3156 21.5 12.0017 21.5Z" />
</g>
</svg>
