<svg xmlns="http://www.w3.org/2000/svg" version="1.1" xmlns:xlink="http://www.w3.org/1999/xlink" xmlns:svgjs="http://svgjs.com/svgjs" width="512" height="512" x="0" y="0" viewBox="0 0 32 32" style="enable-background:new 0 0 512 512" xml:space="preserve" class=""><g><path d="M27.86 4.77H4.14C2.96 4.77 2 5.73 2 6.91v18.12c0 1.18.96 2.14 2.14 2.14h23.72c1.18 0 2.14-.96 2.14-2.14V6.91c0-1.18-.96-2.14-2.14-2.14zM15 19.11c-1.33-.43-2.31-1.66-2.31-3.14s.97-2.71 2.31-3.14zm2-6.28c1.33.43 2.31 1.66 2.31 3.14s-.97 2.71-2.31 3.14zm-13-.08c1.24.31 2.17 1.42 2.17 2.75v.94c0 1.33-.93 2.45-2.17 2.75zm0 12.28v-3.82c2.35-.33 4.17-2.33 4.17-4.77v-.94c0-2.44-1.82-4.44-4.17-4.77V6.91c0-.08.06-.14.14-.14H15v3.99a5.312 5.312 0 0 0-4.31 5.21c0 2.58 1.86 4.74 4.31 5.21v3.99H4.14c-.08 0-.14-.06-.14-.14zm23.86.14H17v-3.99a5.312 5.312 0 0 0 4.31-5.21c0-2.58-1.86-4.74-4.31-5.21V6.77h10.86c.08 0 .14.06.14.14v3.82c-2.35.33-4.17 2.33-4.17 4.77v.94c0 2.44 1.82 4.44 4.17 4.77v3.82c0 .08-.06.14-.14.14zM28 12.75v6.44c-1.24-.31-2.17-1.42-2.17-2.75v-.94c0-1.33.93-2.45 2.17-2.75z" fill="#000000" data-original="#000000" class=""></path></g></svg>