<svg xmlns="http://www.w3.org/2000/svg" version="1.1" xmlns:xlink="http://www.w3.org/1999/xlink" xmlns:svgjs="http://svgjs.com/svgjs" width="512" height="512" x="0" y="0" viewBox="0 0 409.6 409.6" style="enable-background:new 0 0 512 512" xml:space="preserve" class=""><g><path d="M204.805 0C91.689 0 0 91.684 0 204.8c-.015 113.101 91.689 204.785 204.805 204.8 113.111 0 204.815-91.684 204.795-204.815C409.62 91.668 317.896 0 204.805 0zm138.762 303.898-28.693-20.864-69.663 50.616 11.008 33.884a170.342 170.342 0 0 1-51.425 7.931c-17.92 0-35.174-2.801-51.405-7.916l11.013-33.9-69.682-50.615-28.682 20.849c-19.753-27.602-31.539-61.251-31.836-97.7l35.569-.021 26.598-81.879-28.667-20.833c20.634-27.884 49.49-49.249 83.067-60.452L161.756 76.8h86.083l10.982-33.802c33.597 11.218 62.444 32.584 83.077 60.452l-28.672 20.833 26.598 81.879h35.589c-.296 36.475-12.088 70.123-31.846 97.736z" fill="#000000" data-original="#000000" class=""></path><path d="M247.572 145.935h-86.118l-26.583 81.879 69.653 50.601 69.652-50.601z" fill="#000000" data-original="#000000" class=""></path></g></svg>