<svg xmlns="http://www.w3.org/2000/svg" version="1.1" xmlns:xlink="http://www.w3.org/1999/xlink" xmlns:svgjs="http://svgjs.com/svgjs" width="512" height="512" x="0" y="0" viewBox="0 0 32 32" style="enable-background:new 0 0 512 512" xml:space="preserve" class=""><g><path d="M27.89 11.06H11.16c-.1 0-.18.01-.25.02-1.06.06-2.07.31-2.99.71.02-.26.02-.52-.03-.79-.29-1.6-1.86-2.67-3.47-2.37-.78.15-1.45.59-1.9 1.25s-.61 1.45-.47 2.23a2.973 2.973 0 0 0 2.35 2.37 9.025 9.025 0 0 0-1.98 5.65c0 2.47.98 4.78 2.75 6.5a9.03 9.03 0 0 0 6.31 2.56h.29c4.7-.14 8.64-4.09 8.77-8.79.02-.81-.06-1.62-.24-2.45.01-.01.05-.05.1-.05h7.5c1.16 0 2.11-.95 2.11-2.11v-2.6c-.01-1.18-.95-2.13-2.12-2.13zm-23.72-.05c.15-.22.37-.36.63-.41.06-.01.12-.02.18-.02.19 0 .38.06.55.17.22.15.36.37.41.62a.977.977 0 0 1-1.51.99.892.892 0 0 1-.41-.62c-.05-.26 0-.52.15-.73zM28 15.78c0 .06-.05.11-.11.11h-7.5c-.66 0-1.27.3-1.68.82-.39.5-.53 1.14-.38 1.75s.22 1.24.2 1.88c-.11 3.67-3.17 6.74-6.84 6.85-1.94.07-3.76-.65-5.14-1.99s-2.14-3.14-2.14-5.07c0-3.73 2.91-6.82 6.58-7.04l.14-.01c.11-.02.22-.01.34-.01h16.42c.06 0 .11.05.11.11zm-16.47.38c-2.19 0-3.96 1.78-3.96 3.96s1.78 3.96 3.96 3.96 3.96-1.78 3.96-3.96-1.78-3.96-3.96-3.96zm0 5.93c-1.08 0-1.96-.88-1.96-1.96s.88-1.96 1.96-1.96 1.96.88 1.96 1.96-.88 1.96-1.96 1.96zm4.32-13.46V3.82c0-.55.45-1 1-1s1 .45 1 1v4.82c0 .55-.45 1-1 1s-1-.45-1-1.01zM8.89 6.34a.996.996 0 1 1 1.41-1.41l3.41 3.41a.996.996 0 0 1-.71 1.7c-.26 0-.51-.1-.71-.29zm11.28 3.41a.996.996 0 0 1 0-1.41l3.41-3.41a.996.996 0 1 1 1.41 1.41l-3.41 3.41c-.2.2-.45.29-.71.29s-.51-.1-.7-.29z" fill="#000000" data-original="#000000" class=""></path></g></svg>