<svg width="512" height="511" viewBox="0 0 512 511" fill="black" xmlns="http://www.w3.org/2000/svg">
<path d="M512 327.086L500.867 219.473L408.817 204.043L396.687 115.301L307.949 103.176L292.523 11.125L184.914 0L53.707 316.078L29.453 340.328C10.457 359.324 -0.00399885 384.578 1.14669e-06 411.441C0.00400115 438.309 10.465 463.563 29.465 482.555C49.066 502.152 74.812 511.953 100.562 511.949C126.312 511.949 152.07 502.149 171.672 482.543L195.926 458.293L512 327.086ZM130.41 367.328L185.277 292.207L221.359 328.293L146.239 383.156L130.41 367.328ZM242.852 349.785L282.785 389.715L190.93 427.848L167.73 404.648L242.852 349.785ZM473.348 245.313L479.824 307.922L312.801 377.258L267.402 331.855L402.222 233.391L473.348 245.313ZM370.02 141.973L379.684 212.66L245.906 310.363L203.203 267.66L301.809 132.648L370.02 141.973ZM204.078 32.176L266.684 38.648L279.109 112.805L181.711 246.168L134.742 199.199L204.078 32.176ZM122.285 229.215L163.781 270.715L108.918 345.835L84.152 321.07L122.285 229.215ZM50.7 461.313C37.376 447.993 30.036 430.281 30.036 411.441C30.032 392.601 37.372 374.887 50.692 361.566L66.435 345.824L166.177 445.566L150.435 461.309C122.938 488.805 78.196 488.805 50.7 461.313Z" />
</svg>
