<svg width="512" height="512" viewBox="0 0 512 512" fill="black" xmlns="http://www.w3.org/2000/svg">
<path fill-rule="evenodd" clip-rule="evenodd" d="M0 256.001C0 396.833 115.166 512 255.999 512C396.832 512 511.999 396.833 511.999 256.001C511.999 115.169 396.832 0.00146484 255.999 0.00146484C115.166 0.00146484 0 115.169 0 256.001ZM52.2986 353.571C71.3347 392.999 101.501 426.16 138.649 448.904C141.825 445.16 144.882 441.124 147.801 436.81C158.324 421.255 163.914 403.508 165.083 385.17C123.23 378.708 84.9252 367.873 52.2986 353.571ZM37.1979 312.485C32.5011 294.414 30 275.484 30 256.001C30 193.867 55.4351 137.366 96.4038 96.3991C92.8736 113.536 91.001 131.505 91.001 150.001C91.001 206.132 108.261 258.619 137.004 296.667L137.004 296.667C150.224 314.167 159.132 334.137 163.049 354.458C113.38 346.131 70.1015 331.366 37.1979 312.485ZM194.084 358.718C190.372 329.969 178.61 301.972 160.941 278.584C136.527 246.265 121.001 200.29 121.001 150.001C121.001 118.66 127.037 89.3015 137.558 63.7693C168.046 44.8647 203.3 33.001 240.999 30.498V361.811C224.952 361.406 209.281 360.356 194.084 358.718ZM270.999 361.811V30.498C308.699 33.001 343.954 44.8652 374.443 63.7708C384.963 89.3025 390.999 118.661 390.999 150C390.999 200.289 375.473 246.264 351.058 278.584C333.389 301.971 321.627 329.969 317.915 358.718C302.718 360.356 287.046 361.406 270.999 361.811ZM317.063 388.967C302.045 390.48 286.66 391.443 270.999 391.819V481.503C297.559 479.74 322.905 473.331 346.225 463.086C343.85 460.04 341.557 456.882 339.35 453.62L339.35 453.619C325.852 433.666 318.765 411.499 317.063 388.967ZM348.95 354.458C352.867 334.136 361.774 314.167 374.995 296.667L374.995 296.667C403.739 258.618 420.999 206.131 420.999 150C420.999 131.505 419.127 113.537 415.597 96.401C456.564 137.368 481.999 193.868 481.999 256.001C481.999 275.484 479.497 294.414 474.801 312.485C441.897 331.366 398.618 346.131 348.95 354.458ZM459.7 353.571C427.074 367.873 388.769 378.708 346.916 385.169C348.085 403.508 353.675 421.254 364.198 436.809C367.117 441.123 370.175 445.16 373.351 448.904C410.498 426.159 440.664 392.998 459.7 353.571ZM240.999 391.819C225.338 391.443 209.954 390.48 194.936 388.967C193.234 411.5 186.147 433.667 172.649 453.62L172.649 453.62C170.442 456.882 168.15 460.04 165.774 463.087C189.095 473.331 214.44 479.74 240.999 481.503V391.819Z" />
</svg>
