<svg width="304" height="304" viewBox="0 0 304 304" fill="none" xmlns="http://www.w3.org/2000/svg">
<g clip-path="url(#clip0_1983_10841)">
<circle cx="152" cy="152" r="152" fill="#E3E3E3"/>
<g filter="url(#filter0_f_1983_10841)">
<ellipse cx="126.5" cy="107.5" rx="98.5" ry="85.5" fill="#FFFDFA"/>
</g>
<path d="M181 90.5C182.171 85.4255 214.23 73.2719 231.265 67.4221C232.057 67.15 232.921 67.2251 233.65 67.6391C255.328 79.9615 269.779 103.315 274.689 114.292C274.899 114.761 274.973 115.273 274.915 115.783C272.041 141.142 259.15 158.82 252.294 165.278C251.786 165.757 251.113 166.012 250.416 166.025C223.61 166.523 203.174 157.338 195.363 152.099C194.795 151.718 194.405 151.154 194.224 150.494C189.152 131.98 179.822 95.6058 181 90.5Z" fill="#212121"/>
<path d="M49.4999 42.9999C76.2999 27.7999 98.6666 27.6666 106.5 29.4999C110.249 30.0148 114.874 53.7656 117.087 67.8104C117.327 69.3356 116.355 70.7744 114.887 71.2545C95.8429 77.4857 78.0001 99.0139 70.3909 110.612C69.825 111.475 68.8728 112.008 67.842 111.966C52.5651 111.339 36.1997 102.301 28.905 97.1528C28.3135 96.7353 27.8991 96.1131 27.8185 95.3936C26.8016 86.3185 35.0986 67.6614 42.2135 54.0813C43.6297 51.3783 40.5921 48.3303 37.9161 49.7968C32.0764 52.9972 31.0719 53.4517 49.4999 42.9999Z" fill="#3F3F3F"/>
<path d="M142.505 198.098C127.738 197.471 98.7146 185.692 83.6715 178.775C82.6424 178.302 81.4356 178.43 80.588 179.181C70.0939 188.484 59.3654 209.355 54.8382 219.719C54.6135 220.233 54.5379 220.788 54.6505 221.338C57.7504 236.473 82.1239 256.774 95.0255 265.823C95.6538 266.263 96.4121 266.436 97.1702 266.316C119.622 262.776 155.957 256.422 153.5 252C149.763 245.273 145.888 218.588 145.93 201.508C145.934 199.664 144.348 198.176 142.505 198.098Z" fill="#212121"/>
<path d="M209.5 267.221V289.433C209.5 290.911 210.579 292.184 212.052 292.295C252.898 295.364 297.775 221.072 287 224.5C279.261 226.962 269.408 225.996 263.97 224.934C262.772 224.7 261.529 225.151 260.792 226.124C243.768 248.623 222.22 260.433 211.602 264.294C210.362 264.745 209.5 265.902 209.5 267.221Z" fill="black"/>
<path d="M218.5 18C224.667 26.1667 236.3 47.2 233.5 66M252 168C256.333 181 264.3 210.5 261.5 224.5M275 115.5C281.333 114.167 294.8 112.3 298 115.5M194.5 152C185.333 162.5 162.4 186.6 144 199M156 254C165.167 258.833 188.5 268 208.5 266M95.5 266V292M54.5 218.5C43.1667 215.667 18.3 207.8 9.5 199M67 112C69.1667 128 75.3 163.9 82.5 179.5M180.5 90C169.667 83.1667 142 69.5 118 69.5M171.5 3C154.5 3.5 118 9.4 108 29M29 97.5C20.6667 104.167 3.8 123.4 3 147" stroke="#3A3A3A" stroke-width="4" stroke-linecap="round"/>
<circle cx="152" cy="152" r="150" stroke="black" stroke-width="4"/>
</g>
<defs>
<filter id="filter0_f_1983_10841" x="-12" y="-18" width="277" height="251" filterUnits="userSpaceOnUse" color-interpolation-filters="sRGB">
<feFlood flood-opacity="0" result="BackgroundImageFix"/>
<feBlend mode="normal" in="SourceGraphic" in2="BackgroundImageFix" result="shape"/>
<feGaussianBlur stdDeviation="20" result="effect1_foregroundBlur_1983_10841"/>
</filter>
<clipPath id="clip0_1983_10841">
<rect width="304" height="304" rx="152" fill="white"/>
</clipPath>
</defs>
</svg>
