<svg width="304" height="304" viewBox="0 0 304 304" fill="none" xmlns="http://www.w3.org/2000/svg">
<g clip-path="url(#clip0_1983_10828)">
<circle cx="152" cy="152" r="150" fill="#2425BB" stroke="black" stroke-width="4"/>
<path d="M145.478 161.001C83.0784 91.0006 36.9785 76 21.9784 84.5006C-11.6216 110.901 0.645072 238.834 10.9784 299.5L178.478 318.5L162.978 305.5C116.178 282.3 131.812 199.5 145.478 161.001Z" fill="#FBD700" stroke="black"/>
<path d="M46.9998 86.5C-4.60016 134.1 15.1665 225 31.4998 264.5L92 297.5L85 288C43 244 67.5 149.667 85 108C83 99.2 58.8332 90 46.9998 86.5Z" fill="#2425BB"/>
<path d="M224 135.5C153.6 43.9 87 28 62.5 31.5L87 -9.00024L160 3.49976C216 10.2998 255 75.6664 267.5 107.5C250.7 123.5 231.5 132.833 224 135.5Z" fill="white"/>
<path d="M144.278 159.658C82.7513 91.1029 37.2721 76.1817 22.1711 84.3936C22.0389 84.4655 21.9224 84.5442 21.8049 84.6381C-11.1838 111.026 0.379277 235.93 10.6111 297.32C10.8307 298.638 11.8919 299.604 13.219 299.754L168.579 317.377C171.533 317.712 173.123 314.008 170.845 312.098L163.253 305.73C163.071 305.578 162.866 305.445 162.653 305.338C116.905 282.245 131.417 201.723 144.901 162.649C145.259 161.614 145.009 160.473 144.278 159.658Z" stroke="black" stroke-width="4"/>
<path d="M146 161.5C244.4 143.9 282.333 97.8333 289 77L316.5 133C308.833 168.5 292.3 242.4 287.5 254C282.7 265.6 212.5 300.167 178 316L158 304C116 269.2 132.5 194.5 146 161.5Z" fill="white" stroke="black" stroke-width="4"/>
<path d="M132 237C226 227.8 285.167 180.167 303 157.5C312.2 166.3 291.167 215.833 279.5 239.5C226.7 287.9 163.833 285.333 139 278C132.6 266.4 131.667 245.833 132 237Z" fill="#FBD700"/>
<circle cx="152" cy="152" r="150" stroke="black" stroke-width="4"/>
<path d="M146 161.5C244.4 143.9 282.333 97.8333 289 77L316.5 133C308.833 168.5 292.3 242.4 287.5 254C282.7 265.6 212.5 300.167 178 316L158 304C116 269.2 132.5 194.5 146 161.5Z" stroke="black" stroke-width="4"/>
</g>
<defs>
<clipPath id="clip0_1983_10828">
<rect width="304" height="304" rx="152" fill="white"/>
</clipPath>
</defs>
</svg>
