<svg width="20" height="20" viewBox="0 0 20 20" fill="none" xmlns="http://www.w3.org/2000/svg">
<mask id="mask0_26_2076" style="mask-type:alpha" maskUnits="userSpaceOnUse" x="0" y="0" width="20" height="20">
<rect width="20" height="20" fill="#D9D9D9"/>
</mask>
<g mask="url(#mask0_26_2076)">
<path d="M7.22917 18.5L5.66667 15.9167L2.72917 15.25L3 12.25L1 10L3 7.75L2.72917 4.75L5.66667 4.08333L7.22917 1.5L10 2.6875L12.7708 1.5L14.3333 4.08333L17.2708 4.75L17 7.75L19 10L17 12.25L17.2708 15.25L14.3333 15.9167L12.7708 18.5L10 17.3125L7.22917 18.5ZM10 14C10.2083 14 10.3854 13.9271 10.5312 13.7812C10.6771 13.6354 10.75 13.4583 10.75 13.25C10.75 13.0417 10.6771 12.8646 10.5312 12.7188C10.3854 12.5729 10.2083 12.5 10 12.5C9.79167 12.5 9.61458 12.5729 9.46875 12.7188C9.32292 12.8646 9.25 13.0417 9.25 13.25C9.25 13.4583 9.32292 13.6354 9.46875 13.7812C9.61458 13.9271 9.79167 14 10 14ZM9.25 11H10.75V6H9.25V11Z" />
</g>
</svg>
