<svg width="24" height="24" viewBox="0 0 24 24"  xmlns="http://www.w3.org/2000/svg">
<mask id="mask0_129_2842" style="mask-type:alpha" maskUnits="userSpaceOnUse" x="0" y="0" width="24" height="24">
<rect width="24" height="24" />
</mask>
<g mask="url(#mask0_129_2842)">
<path d="M9.6163 21.5236C9.15546 21.7192 8.62096 21.544 8.36548 21.1134L7.24874 19.2313C7.10736 18.993 6.87344 18.8241 6.60278 18.7648L4.50368 18.3048C4.00986 18.1966 3.67447 17.7369 3.72219 17.2336L3.92872 15.0554C3.95465 14.7819 3.86692 14.5098 3.68613 14.3029L2.2485 12.6581C1.9191 12.2812 1.9191 11.7188 2.2485 11.3419L3.68613 9.69702C3.86692 9.49017 3.95465 9.21805 3.92872 8.94455L3.72219 6.76639C3.67447 6.26312 4.00986 5.80338 4.50368 5.69517L6.60278 5.23521C6.87344 5.1759 7.10736 5.00696 7.24874 4.76867L8.36548 2.88658C8.62096 2.45602 9.15546 2.28073 9.6163 2.47639L11.6093 3.32256C11.859 3.42859 12.1411 3.42859 12.3909 3.32256L14.3839 2.47639C14.8447 2.28073 15.3792 2.45602 15.6347 2.88658L16.7514 4.76867C16.8928 5.00696 17.1267 5.1759 17.3974 5.23521L19.4965 5.69517C19.9903 5.80338 20.3257 6.26312 20.278 6.76639L20.0715 8.94455C20.0455 9.21805 20.1333 9.49017 20.3141 9.69702L21.7517 11.3419C22.0811 11.7188 22.0811 12.2812 21.7517 12.6581L20.3141 14.3029C20.1333 14.5098 20.0455 14.7819 20.0715 15.0554L20.278 17.2336C20.3257 17.7369 19.9903 18.1966 19.4965 18.3048L17.3974 18.7648C17.1267 18.8241 16.8928 18.993 16.7514 19.2313L15.6347 21.1134C15.3792 21.544 14.8447 21.7192 14.3839 21.5236L12.3909 20.6774C12.1411 20.5714 11.859 20.5714 11.6093 20.6774L9.6163 21.5236ZM9.00192 19.2082C9.25912 19.6339 9.79011 19.8059 10.2481 19.6118L11.6122 19.0336C11.8602 18.9285 12.1402 18.9279 12.3887 19.032L13.7773 19.6135C14.2378 19.8063 14.7701 19.6299 15.0243 19.2001L15.7815 17.9197C15.9211 17.6836 16.1514 17.5153 16.4187 17.454L17.9006 17.1141C18.3874 17.0024 18.7172 16.5486 18.6731 16.0511L18.538 14.5274C18.5138 14.2545 18.6026 13.9836 18.7837 13.778L19.772 12.6562C20.103 12.2805 20.105 11.7177 19.7767 11.3396L18.7786 10.19C18.6006 9.98503 18.5136 9.71649 18.5376 9.44608L18.6723 7.92753C18.7168 7.42594 18.3813 6.96953 17.8893 6.86219L16.4204 6.54169C16.1521 6.48315 15.9196 6.31684 15.7776 6.08179L14.9983 4.79179C14.7411 4.36607 14.2101 4.19409 13.7521 4.38818L12.388 4.96633C12.1399 5.07146 11.86 5.07206 11.6115 4.968L10.2229 4.3865C9.76234 4.19362 9.23006 4.37006 8.97589 4.79987L8.22191 6.07488C8.08046 6.31409 7.84584 6.48364 7.57432 6.54288L6.11083 6.86219C5.61885 6.96953 5.28343 7.42594 5.32791 7.92753L5.46257 9.44608C5.48655 9.71649 5.39956 9.98503 5.22158 10.19L4.22347 11.3396C3.89514 11.7177 3.89717 12.2805 4.22821 12.6562L5.21683 13.7784C5.39772 13.9838 5.48656 14.2543 5.46265 14.5269L5.327 16.0732C5.28303 16.5745 5.61838 17.0303 6.11001 17.1376L7.5798 17.4583C7.84811 17.5168 8.08053 17.6831 8.22254 17.9182L9.00192 19.2082ZM12.0001 16.7307C12.2258 16.7307 12.4168 16.6526 12.5731 16.4962C12.7296 16.3397 12.8078 16.1487 12.8078 15.923C12.8078 15.6973 12.7296 15.5063 12.5731 15.35C12.4168 15.1937 12.2258 15.1155 12.0001 15.1155C11.7744 15.1155 11.5834 15.1937 11.4271 15.35C11.2706 15.5063 11.1923 15.6973 11.1923 15.923C11.1923 16.1487 11.2706 16.3397 11.4271 16.4962C11.5834 16.6526 11.7744 16.7307 12.0001 16.7307ZM11.2501 12.327C11.2501 12.7412 11.5859 13.077 12.0001 13.077C12.4143 13.077 12.7501 12.7412 12.7501 12.327V7.82699C12.7501 7.41277 12.4143 7.07699 12.0001 7.07699C11.5859 7.07699 11.2501 7.41277 11.2501 7.82699V12.327Z" />
</g>
</svg>
