<svg width="24" height="24" viewBox="0 0 24 24" fill="#334155" xmlns="http://www.w3.org/2000/svg">
<mask id="mask0_129_2791" style="mask-type:alpha" maskUnits="userSpaceOnUse" x="0" y="0" width="24" height="24">
<rect width="24" height="24" fill="#D9D9D9"/>
</mask>
<g mask="url(#mask0_129_2791)">
<path d="M9.40522 22.1566C8.94424 22.3532 8.40894 22.1782 8.15308 21.7473L6.92078 19.6718C6.7799 19.4346 6.54723 19.2661 6.27786 19.2062L3.96176 18.6915C3.46945 18.5821 3.13564 18.1232 3.18314 17.6211L3.40945 15.2286C3.43534 14.955 3.34746 14.6828 3.16647 14.476L1.57619 12.6585C1.24629 12.2815 1.24629 11.7185 1.57619 11.3415L3.16647 9.52403C3.34746 9.31719 3.43534 9.04498 3.40945 8.77135L3.18314 6.37886C3.13564 5.87678 3.46945 5.4179 3.96176 5.3085L6.27785 4.79381C6.54723 4.73395 6.7799 4.56544 6.92078 4.32816L8.15308 2.25271C8.40894 1.82179 8.94424 1.64681 9.40522 1.8434L11.6077 2.7827C11.8583 2.88958 12.1417 2.88958 12.3923 2.7827L14.5948 1.8434C15.0558 1.64681 15.5911 1.82179 15.8469 2.25271L17.0792 4.32816C17.2201 4.56544 17.4528 4.73395 17.7221 4.79381L20.0382 5.3085C20.5306 5.4179 20.8644 5.87678 20.8169 6.37886L20.5905 8.77135C20.5647 9.04498 20.6525 9.31719 20.8335 9.52403L22.4238 11.3415C22.7537 11.7185 22.7537 12.2815 22.4238 12.6585L20.8335 14.476C20.6525 14.6828 20.5647 14.955 20.5905 15.2286L20.8169 17.6211C20.8644 18.1232 20.5306 18.5821 20.0382 18.6915L17.7221 19.2062C17.4528 19.2661 17.2201 19.4346 17.0792 19.6718L15.8469 21.7473C15.5911 22.1782 15.0558 22.3532 14.5948 22.1566L12.3923 21.2173C12.1417 21.1104 11.8583 21.1104 11.6077 21.2173L9.40522 22.1566ZM12 17C12.2833 17 12.5208 16.9042 12.7125 16.7125C12.9042 16.5208 13 16.2833 13 16C13 15.7167 12.9042 15.4792 12.7125 15.2875C12.5208 15.0958 12.2833 15 12 15C11.7167 15 11.4792 15.0958 11.2875 15.2875C11.0958 15.4792 11 15.7167 11 16C11 16.2833 11.0958 16.5208 11.2875 16.7125C11.4792 16.9042 11.7167 17 12 17ZM11 12C11 12.5523 11.4477 13 12 13C12.5523 13 13 12.5523 13 12V8C13 7.44772 12.5523 7 12 7C11.4477 7 11 7.44772 11 8V12Z" />
</g>
</svg>
