<svg width="24" height="24" viewBox="0 0 24 24"  xmlns="http://www.w3.org/2000/svg">
<mask id="mask0_129_2793" style="mask-type:alpha" maskUnits="userSpaceOnUse" x="0" y="0" width="24" height="24">
<rect width="24" height="24" />
</mask>
<g mask="url(#mask0_129_2793)">
<path d="M5.33512 20.5C3.79435 20.5 2.83224 18.831 3.60439 17.4977L10.2695 5.98858C11.0399 4.65829 12.9606 4.6583 13.731 5.98858L20.3961 17.4977C21.1682 18.831 20.2061 20.5 18.6653 20.5H5.33512ZM12.0002 17.8077C12.2291 17.8077 12.4209 17.7303 12.5757 17.5755C12.7306 17.4207 12.808 17.2288 12.808 17C12.808 16.7712 12.7306 16.5793 12.5757 16.4245C12.4209 16.2697 12.2291 16.1923 12.0002 16.1923C11.7714 16.1923 11.5796 16.2697 11.4247 16.4245C11.2699 16.5793 11.1925 16.7712 11.1925 17C11.1925 17.2288 11.2699 17.4207 11.4247 17.5755C11.5796 17.7303 11.7714 17.8077 12.0002 17.8077ZM11.2502 14.4423C11.2502 14.8565 11.586 15.1923 12.0002 15.1923C12.4144 15.1923 12.7502 14.8565 12.7502 14.4423V10.9423C12.7502 10.528 12.4144 10.1923 12.0002 10.1923C11.586 10.1923 11.2502 10.528 11.2502 10.9423V14.4423Z" />
</g>
</svg>
