<svg width="24" height="24" viewBox="0 0 24 24" fill="#334155" xmlns="http://www.w3.org/2000/svg">
<mask id="mask0_129_2827" style="mask-type:alpha" maskUnits="userSpaceOnUse" x="0" y="0" width="24" height="24">
<rect width="24" height="24" fill="#D9D9D9"/>
</mask>
<g mask="url(#mask0_129_2827)">
<path d="M4.4689 21C2.92823 21 1.96611 19.3313 2.73804 17.9979L10.2691 4.98965C11.0395 3.65908 12.9605 3.65908 13.7309 4.98965L21.262 17.9979C22.0339 19.3313 21.0718 21 19.5311 21H4.4689ZM5.06071 17.9484C4.78968 18.4151 5.12637 19 5.66603 19H18.334C18.8736 19 19.2103 18.4151 18.9393 17.9484L12.6053 7.04227C12.3355 6.57767 11.6645 6.57767 11.3947 7.04227L5.06071 17.9484ZM12 18C12.2833 18 12.5208 17.9042 12.7125 17.7125C12.9042 17.5208 13 17.2833 13 17C13 16.7167 12.9042 16.4792 12.7125 16.2875C12.5208 16.0958 12.2833 16 12 16C11.7167 16 11.4792 16.0958 11.2875 16.2875C11.0958 16.4792 11 16.7167 11 17C11 17.2833 11.0958 17.5208 11.2875 17.7125C11.4792 17.9042 11.7167 18 12 18ZM11 14C11 14.5523 11.4477 15 12 15C12.5523 15 13 14.5523 13 14V11C13 10.4477 12.5523 10 12 10C11.4477 10 11 10.4477 11 11V14Z" />
</g>
</svg>
