<svg width="20" height="20" viewBox="0 0 20 20" fill="none" xmlns="http://www.w3.org/2000/svg">
<g clip-path="url(#clip0_2457_6110)">
<path d="M13.8337 8.33294C13.8343 7.49886 13.5942 6.68231 13.1422 5.98131C12.6902 5.28031 12.0456 4.72465 11.2855 4.38103C10.5255 4.03741 9.68249 3.92044 8.85763 4.04414C8.03277 4.16785 7.26114 4.52698 6.63537 5.07843C6.00959 5.62988 5.55626 6.35021 5.32978 7.15296C5.10331 7.95571 5.11333 8.80676 5.35863 9.60396C5.60393 10.4012 6.07408 11.1106 6.71267 11.6472C7.35125 12.1838 8.13112 12.5246 8.95866 12.6289V14.2913H7.87532C7.73167 14.2913 7.59389 14.3483 7.49231 14.4499C7.39073 14.5515 7.33366 14.6893 7.33366 14.8329C7.33366 14.9766 7.39073 15.1144 7.49231 15.216C7.59389 15.3175 7.73167 15.3746 7.87532 15.3746H8.95866V16.4579C8.95866 16.6016 9.01573 16.7394 9.11731 16.841C9.21889 16.9425 9.35667 16.9996 9.50032 16.9996C9.64398 16.9996 9.78176 16.9425 9.88334 16.841C9.98492 16.7394 10.042 16.6016 10.042 16.4579V15.3746H11.1253C11.269 15.3746 11.4068 15.3175 11.5083 15.216C11.6099 15.1144 11.667 14.9766 11.667 14.8329C11.667 14.6893 11.6099 14.5515 11.5083 14.4499C11.4068 14.3483 11.269 14.2913 11.1253 14.2913H10.042V12.6289C11.0882 12.4962 12.0503 11.9868 12.7481 11.1961C13.446 10.4054 13.8319 9.38756 13.8337 8.33294ZM6.25032 8.33294C6.25032 7.69015 6.44093 7.0618 6.79805 6.52734C7.15516 5.99288 7.66274 5.57632 8.2566 5.33033C8.85046 5.08435 9.50393 5.01999 10.1344 5.14539C10.7648 5.27079 11.3439 5.58032 11.7984 6.03484C12.2529 6.48936 12.5625 7.06846 12.6879 7.6989C12.8133 8.32933 12.7489 8.9828 12.5029 9.57666C12.2569 10.1705 11.8404 10.6781 11.3059 11.0352C10.7715 11.3923 10.1431 11.5829 9.50032 11.5829C8.63863 11.5821 7.81248 11.2394 7.20318 10.6301C6.59387 10.0208 6.25118 9.19463 6.25032 8.33294Z" fill="#EF8E8D"/>
</g>
<defs>
<clipPath id="clip0_2457_6110">
<rect width="13" height="13" fill="white" transform="translate(3 4)"/>
</clipPath>
</defs>
</svg>
