<svg width="20" height="20" viewBox="0 0 20 20" fill="none" xmlns="http://www.w3.org/2000/svg">
<g clip-path="url(#clip0_2457_6113)">
<path d="M5.16634 11.6671C5.16569 12.5011 5.40577 13.3177 5.85776 14.0187C6.30975 14.7197 6.95445 15.2753 7.71446 15.619C8.47448 15.9626 9.31751 16.0796 10.1424 15.9559C10.9672 15.8322 11.7389 15.473 12.3646 14.9216C12.9904 14.3701 13.4437 13.6498 13.6702 12.847C13.8967 12.0443 13.8867 11.1932 13.6414 10.396C13.3961 9.59884 12.9259 8.88938 12.2873 8.35281C11.6488 7.81624 10.8689 7.47536 10.0413 7.3711L10.0413 5.70873L11.1247 5.70873C11.2683 5.70873 11.4061 5.65166 11.5077 5.55008C11.6093 5.44849 11.6663 5.31072 11.6663 5.16706C11.6663 5.0234 11.6093 4.88562 11.5077 4.78404C11.4061 4.68246 11.2683 4.62539 11.1247 4.62539L10.0413 4.62539L10.0413 3.54206C10.0413 3.3984 9.98428 3.26062 9.88269 3.15904C9.78111 3.05746 9.64334 3.00039 9.49968 3.00039C9.35602 3.00039 9.21824 3.05746 9.11666 3.15904C9.01508 3.26062 8.95801 3.3984 8.95801 3.54206L8.95801 4.62539L7.87468 4.62539C7.73102 4.62539 7.59324 4.68246 7.49166 4.78404C7.39008 4.88562 7.33301 5.0234 7.33301 5.16706C7.33301 5.31072 7.39008 5.44849 7.49166 5.55008C7.59324 5.65166 7.73102 5.70873 7.87468 5.70873L8.95801 5.70873L8.95801 7.3711C7.91178 7.50385 6.94975 8.01321 6.25188 8.8039C5.554 9.59459 5.1681 10.6124 5.16634 11.6671ZM12.7497 11.6671C12.7497 12.3098 12.5591 12.9382 12.202 13.4727C11.8448 14.0071 11.3373 14.4237 10.7434 14.6697C10.1495 14.9157 9.49607 14.98 8.86563 14.8546C8.23519 14.7292 7.6561 14.4197 7.20158 13.9652C6.74706 13.5106 6.43753 12.9315 6.31212 12.3011C6.18672 11.6707 6.25108 11.0172 6.49707 10.4233C6.74305 9.82948 7.15961 9.3219 7.69407 8.96478C8.22853 8.60767 8.85689 8.41706 9.49968 8.41706C10.3614 8.41792 11.1875 8.76061 11.7968 9.36991C12.4061 9.97922 12.7488 10.8054 12.7497 11.6671Z" fill="#719AF4"/>
</g>
<defs>
<clipPath id="clip0_2457_6113">
<rect width="13" height="13" fill="white" transform="translate(16 16) rotate(-180)"/>
</clipPath>
</defs>
</svg>
