<svg width="20" height="20" viewBox="0 0 20 20" fill="none" xmlns="http://www.w3.org/2000/svg">
<g clip-path="url(#clip0_2457_6116)">
<path d="M14.6667 7.33672C14.6673 6.50264 14.4272 5.68609 13.9752 4.98509C13.5233 4.2841 12.8786 3.72844 12.1185 3.38482C11.3585 3.0412 10.5155 2.92422 9.69064 3.04793C8.86578 3.17163 8.09415 3.53077 7.46837 4.08222C7.07165 4.43181 6.74424 4.84929 6.5 5.31261C6.35898 5.58012 6.24569 5.86291 6.16279 6.15675C5.93632 6.9595 5.94634 7.81055 6.19164 8.60774C6.43693 9.40494 6.90709 10.1144 7.54567 10.651C8.18426 11.1875 8.96412 11.5284 9.79167 11.6327V13.2951H8.70833C8.56467 13.2951 8.4269 13.3521 8.32532 13.4537C8.22373 13.5553 8.16667 13.6931 8.16667 13.8367C8.16667 13.9804 8.22373 14.1182 8.32532 14.2197C8.4269 14.3213 8.56467 14.3784 8.70833 14.3784H9.79167V15.4617C9.79167 15.6054 9.84873 15.7432 9.95032 15.8447C10.0519 15.9463 10.1897 16.0034 10.3333 16.0034C10.477 16.0034 10.6148 15.9463 10.7163 15.8447C10.8179 15.7432 10.875 15.6054 10.875 15.4617V14.3784H11.9583C12.102 14.3784 12.2398 14.3213 12.3413 14.2197C12.4429 14.1182 12.5 13.9804 12.5 13.8367C12.5 13.6931 12.4429 13.5553 12.3413 13.4537C12.2398 13.3521 12.102 13.2951 11.9583 13.2951H10.875V11.6327C11.9212 11.4999 12.8833 10.9906 13.5811 10.1999C13.7231 10.039 13.8522 9.86878 13.9677 9.69073C14.4201 8.99354 14.6653 8.1768 14.6667 7.33672ZM7.08333 7.33672C7.08333 6.83254 7.2006 6.33725 7.4235 5.88917C7.48478 5.76599 7.55405 5.64637 7.63106 5.53112C7.98817 4.99666 8.49575 4.5801 9.08961 4.33412C9.68347 4.08813 10.3369 4.02377 10.9674 4.14917C11.5978 4.27457 12.1769 4.58411 12.6314 5.03863C13.086 5.49315 13.3955 6.07224 13.5209 6.70268C13.6463 7.33312 13.5819 7.98659 13.3359 8.58045C13.2538 8.77872 13.1527 8.96739 13.0345 9.14404C12.7986 9.49648 12.4949 9.80112 12.1389 10.039C11.6045 10.3961 10.9761 10.5867 10.3333 10.5867C9.47164 10.5859 8.64549 10.2432 8.03619 9.63387C7.42688 9.02456 7.08419 8.19841 7.08333 7.33672Z" fill="#EF8E8D"/>
<path d="M13.9752 4.98509C14.4272 5.68609 14.6673 6.50264 14.6667 7.33672C14.6653 8.1768 14.4201 8.99354 13.9677 9.69073L13.0641 9.09894C13.1696 8.93539 13.2608 8.76195 13.3359 8.58045C13.5819 7.98659 13.6463 7.33312 13.5209 6.70268C13.3955 6.07224 13.086 5.49315 12.6314 5.03863C12.1769 4.58411 11.5978 4.27457 10.9674 4.14917C10.3369 4.02377 9.68347 4.08813 9.08961 4.33412C8.49575 4.5801 7.98817 4.99666 7.63106 5.53112C7.55405 5.64637 7.48478 5.76599 7.4235 5.88917L6.5 5.31261C6.74424 4.84929 7.07165 4.43181 7.46837 4.08222C8.09415 3.53077 8.86578 3.17163 9.69064 3.04793C10.5155 2.92422 11.3585 3.0412 12.1185 3.38482C12.8786 3.72844 13.5233 4.2841 13.9752 4.98509Z" fill="#719AF4"/>
<path d="M14.7266 3.36224L13.5511 4.53772L12.7851 3.77169L13.9606 2.59621L13.1946 1.83018C13.093 1.7286 13.0359 1.59082 13.0359 1.44716C13.0359 1.3035 13.093 1.16573 13.1946 1.06415C13.2961 0.962563 13.4339 0.905495 13.5776 0.905495C13.7212 0.905495 13.859 0.962563 13.9606 1.06415L14.7266 1.83018L15.4927 1.06414C15.5942 0.962562 15.732 0.905493 15.8757 0.905494C16.0193 0.905494 16.1571 0.962563 16.2587 1.06414C16.3603 1.16573 16.4173 1.3035 16.4173 1.44716C16.4173 1.59082 16.3603 1.72859 16.2587 1.83018L15.4927 2.59621L16.2587 3.36224C16.3603 3.46382 16.4173 3.6016 16.4173 3.74526C16.4173 3.88892 16.3603 4.02669 16.2587 4.12827C16.1571 4.22986 16.0193 4.28693 15.8757 4.28693C15.732 4.28693 15.5942 4.22986 15.4927 4.12827L14.7266 3.36224Z" fill="#719AF4"/>
</g>
<defs>
<clipPath id="clip0_2457_6116">
<rect width="20" height="20" fill="white"/>
</clipPath>
</defs>
</svg>
