<svg width="30" height="30" viewBox="0 0 30 30" fill="none" xmlns="http://www.w3.org/2000/svg">
<mask id="mask0_556_2534" style="mask-type:alpha" maskUnits="userSpaceOnUse" x="0" y="0" width="30" height="30">
<rect width="30" height="30" fill="#D9D9D9"/>
</mask>
<g mask="url(#mask0_556_2534)">
<path d="M9.71777 18.9542C9.71777 18.3285 10.225 17.8213 10.8507 17.8213H11.0395C11.6652 17.8213 12.1724 18.3285 12.1724 18.9542V24.784C12.1724 25.4097 11.6652 25.917 11.0395 25.917H10.8507C10.225 25.917 9.71777 25.4097 9.71777 24.784V18.9542Z" fill="#FFF5D2"/>
<path d="M12.5498 18.4054L12.5498 9.32437L21.9908 4.60391L21.9908 23.4858L12.5498 18.4054Z" fill="#FFF5D2"/>
<path d="M23.8794 12.154C23.8794 11.6337 24.3012 11.2119 24.8215 11.2119C26.1758 11.2119 27.2736 12.3098 27.2736 13.6641V14.4244C27.2736 15.7786 26.1758 16.8765 24.8215 16.8765C24.3012 16.8765 23.8794 16.4547 23.8794 15.9344V12.154Z" fill="#FFAF1F"/>
<rect x="3.10938" y="13.1006" width="5.66458" height="1.88819" rx="0.377639" fill="#FFAF1F"/>
<path d="M4.99756 13.1006C4.99756 11.015 6.6883 9.32422 8.77394 9.32422H11.6062C12.1276 9.32422 12.5503 9.74691 12.5503 10.2683V17.8211C12.5503 18.3425 12.1276 18.7652 11.6062 18.7652H8.77395C6.68831 18.7652 4.99756 17.0744 4.99756 14.9888V13.1006Z" fill="#FFE8A5"/>
<path d="M10.6621 9.32422H12.1727C12.3812 9.32422 12.5503 9.49329 12.5503 9.70186V18.3875C12.5503 18.5961 12.3812 18.7652 12.1727 18.7652H10.6621V9.32422Z" fill="#FFD878"/>
<rect x="21.9912" y="3.68164" width="2.45465" height="20.726" rx="0.944096" fill="#FFD878"/>
</g>
</svg>
