<svg width="30" height="30" viewBox="0 0 30 30" fill="none" xmlns="http://www.w3.org/2000/svg">
<mask id="mask0_556_2506" style="mask-type:alpha" maskUnits="userSpaceOnUse" x="0" y="0" width="30" height="30">
<rect width="30" height="30" fill="#D9D9D9"/>
</mask>
<g mask="url(#mask0_556_2506)">
<path d="M5 11.25H25V23.75C25 25.1307 23.8807 26.25 22.5 26.25H7.5C6.11929 26.25 5 25.1307 5 23.75V11.25Z" fill="#D4FCDB"/>
<path d="M7.5 15C7.5 14.3096 8.05964 13.75 8.75 13.75H11.25C11.9404 13.75 12.5 14.3096 12.5 15V17.5C12.5 18.1904 11.9404 18.75 11.25 18.75H8.75C8.05964 18.75 7.5 18.1904 7.5 17.5V15Z" fill="#2BCE8A"/>
<path d="M8.625 2.75C8.625 2.61193 8.73693 2.5 8.875 2.5H10C10.1381 2.5 10.25 2.61193 10.25 2.75V6.6875C10.25 7.13623 9.88623 7.5 9.4375 7.5V7.5C8.98877 7.5 8.625 7.13623 8.625 6.6875V2.75Z" fill="#2BCE8A"/>
<path d="M19.875 2.75C19.875 2.61193 19.9869 2.5 20.125 2.5H21.25C21.3881 2.5 21.5 2.61193 21.5 2.75V6.6875C21.5 7.13623 21.1362 7.5 20.6875 7.5V7.5C20.2388 7.5 19.875 7.13623 19.875 6.6875V2.75Z" fill="#2BCE8A"/>
<path d="M5 8.75C5 7.36929 6.11929 6.25 7.5 6.25H22.5C23.8807 6.25 25 7.36929 25 8.75V11.25H5V8.75Z" fill="#7EF0A9"/>
</g>
</svg>
