<svg width="30" height="30" viewBox="0 0 30 30" fill="none" xmlns="http://www.w3.org/2000/svg">
<mask id="mask0_556_2557" style="mask-type:alpha" maskUnits="userSpaceOnUse" x="0" y="0" width="30" height="30">
<rect width="30" height="30" fill="#D9D9D9"/>
</mask>
<g mask="url(#mask0_556_2557)">
<rect x="6.46484" y="3.92334" width="17.0708" height="14.3343" rx="2.5" fill="#FEF3EB"/>
<rect opacity="0.5" x="5.15137" y="7.83252" width="19.697" height="14.3343" rx="2.5" fill="#FECBB2"/>
<rect x="3.83838" y="11.5825" width="22.3233" height="14.3343" rx="2.5" fill="#FECBB2"/>
<mask id="mask1_556_2557" style="mask-type:alpha" maskUnits="userSpaceOnUse" x="4" y="8" width="22" height="22">
<rect x="4.5" y="8.25" width="21" height="21" fill="#D9D9D9"/>
</mask>
<g mask="url(#mask1_556_2557)">
<path d="M12.3084 22.379C12.0511 22.6362 11.6342 22.6368 11.376 22.3804C11.1168 22.1229 11.1158 21.7038 11.374 21.4452L14.0635 18.7503L11.3764 16.0764C11.1172 15.8185 11.1174 15.3989 11.3768 15.1412C11.6345 14.8852 12.0507 14.8858 12.3076 15.1426L15.0002 17.8333L17.6716 15.145C17.9278 14.8872 18.3445 14.8858 18.6024 15.142C18.8614 15.3992 18.8616 15.8181 18.6028 16.0756L15.915 18.7503L18.6053 21.446C18.863 21.7042 18.862 22.1225 18.6032 22.3796C18.3449 22.6362 17.9275 22.6348 17.6708 22.3766L15.0002 19.6891L12.3084 22.379Z" fill="#F85040"/>
</g>
</g>
</svg>
