<svg width="24" height="24" viewBox="0 0 24 24" fill="none" xmlns="http://www.w3.org/2000/svg">
<mask id="mask0_773_7071" style="mask-type:alpha" maskUnits="userSpaceOnUse" x="0" y="0" width="24" height="24">
<rect width="24" height="24" fill="#D9D9D9"/>
</mask>
<g mask="url(#mask0_773_7071)">
<path d="M9.5 23C8.94772 23 8.5 22.5523 8.5 22V21H7.5C6.94772 21 6.5 20.5523 6.5 20C6.5 19.4477 6.94772 19 7.5 19H8.5V16.9C7.18333 16.6667 6.10417 16.0375 5.2625 15.0125C4.42083 13.9875 4 12.8 4 11.45C4 9.93333 4.5375 8.64583 5.6125 7.5875C6.6875 6.52917 7.98333 6 9.5 6C11.0167 6 12.3125 6.52917 13.3875 7.5875C14.4625 8.64583 15 9.93333 15 11.45C15 12.8 14.5792 13.9875 13.7375 15.0125C12.8958 16.0375 11.8167 16.6667 10.5 16.9V19H11.5C12.0523 19 12.5 19.4477 12.5 20C12.5 20.5523 12.0523 21 11.5 21H10.5V22C10.5 22.5523 10.0523 23 9.5 23ZM9.5 15C10.4667 15 11.2917 14.6583 11.975 13.975C12.6583 13.2917 13 12.4667 13 11.5C13 10.5333 12.6583 9.70833 11.975 9.025C11.2917 8.34167 10.4667 8 9.5 8C8.53333 8 7.70833 8.34167 7.025 9.025C6.34167 9.70833 6 10.5333 6 11.5C6 12.4667 6.34167 13.2917 7.025 13.975C7.70833 14.6583 8.53333 15 9.5 15Z" fill="#FA90A2"/>
<path d="M20.0001 6V2C20.0001 1.44772 19.5524 1 19.0001 1H15.0001C14.4478 1 14.0001 1.44772 14.0001 2C14.0001 2.55228 14.4478 3 15.0001 3H16.5751L12.6001 6.975C12.1501 6.64167 11.6584 6.39583 11.1251 6.2375C10.5918 6.07917 10.0501 6 9.5001 6C7.96676 6 6.66676 6.53333 5.6001 7.6L7.0251 9.025C7.70843 8.34167 8.53343 8 9.5001 8C10.4668 8 11.2918 8.34167 11.9751 9.025C12.6584 9.70833 13.0001 10.5333 13.0001 11.5C13.0001 12.4667 12.6584 13.2917 11.9751 13.975L13.4001 15.4C14.4668 14.3333 15.0001 13.0333 15.0001 11.5C15.0001 10.9333 14.9168 10.3875 14.7501 9.8625C14.5834 9.3375 14.3418 8.84167 14.0251 8.375L18.0001 4.425V6C18.0001 6.55228 18.4478 7 19.0001 7C19.5524 7 20.0001 6.55228 20.0001 6Z" fill="#83BDFF"/>
</g>
</svg>
