<svg width="30" height="30" viewBox="0 0 30 30" fill="none" xmlns="http://www.w3.org/2000/svg">
<mask id="mask0_556_2543" style="mask-type:alpha" maskUnits="userSpaceOnUse" x="0" y="0" width="30" height="30">
<rect width="30" height="30" fill="#D9D9D9"/>
</mask>
<g mask="url(#mask0_556_2543)">
<path fill-rule="evenodd" clip-rule="evenodd" d="M20.4893 13.9542C19.0444 12.6483 17.1292 11.853 15.0282 11.853C12.9273 11.853 11.0122 12.6482 9.56732 13.9541C9.42071 13.7303 9.33545 13.4627 9.33545 13.1751C9.33545 12.6906 9.47148 12.2476 9.74353 11.8464C10.0156 11.4449 10.4077 11.095 10.9199 10.7965C11.4321 10.4979 12.0373 10.274 12.7354 10.1248C13.4334 9.97538 14.1964 9.90068 15.0245 9.90068C15.8684 9.90068 16.6394 9.97538 17.3374 10.1248C18.0354 10.274 18.6404 10.4979 19.1526 10.7965C19.665 11.095 20.0545 11.4449 20.3212 11.8464C20.5879 12.2476 20.7213 12.6906 20.7213 13.1751C20.7213 13.4627 20.636 13.7304 20.4893 13.9542ZM13.1275 8.34057C13.6515 8.86311 14.2864 9.12438 15.032 9.12438C15.7923 9.12438 16.4296 8.86233 16.944 8.33824C17.4583 7.81397 17.7154 7.17912 17.7154 6.4337C17.7154 5.67326 17.458 5.03591 16.943 4.52165C16.4279 4.00722 15.7897 3.75 15.0284 3.75C14.2819 3.75 13.6474 4.00756 13.1249 4.52268C12.6025 5.03763 12.3413 5.67585 12.3413 6.43732C12.3413 7.18378 12.6034 7.8182 13.1275 8.34057Z" fill="#B26DEB"/>
<path d="M4.20381 11.6395C3.4846 12.0822 3.125 12.6479 3.125 13.3365C3.125 14.0335 3.69002 14.5986 4.38702 14.5986H6.12077C6.92881 14.5986 7.58385 13.9435 7.58385 13.1355C7.58385 12.7706 7.63259 12.4146 7.73006 12.0675C7.8277 11.7206 7.97735 11.3859 8.17902 11.0633C7.98253 11.0288 7.78742 11.0056 7.59368 10.9936C7.39995 10.9817 7.2076 10.9758 7.01663 10.9758C5.86079 10.9758 4.92319 11.197 4.20381 11.6395Z" fill="#CB8CF5"/>
<path d="M5.76341 9.45009C6.10913 9.79701 6.52592 9.97048 7.01378 9.97048C7.51649 9.97048 7.93785 9.79598 8.27787 9.44699C8.61807 9.09799 8.78816 8.68301 8.78816 8.20205C8.78816 7.70642 8.61625 7.28842 8.27244 6.94805C7.92879 6.60769 7.51019 6.4375 7.01663 6.4375C6.52945 6.4375 6.1124 6.60769 5.76548 6.94805C5.41838 7.28842 5.24484 7.70538 5.24484 8.19894C5.24484 8.68612 5.41769 9.10317 5.76341 9.45009Z" fill="#CB8CF5"/>
<path d="M25.8348 11.6395C26.554 12.0822 26.9136 12.6479 26.9136 13.3365C26.9136 14.0335 26.3486 14.5986 25.6516 14.5986H23.9178C23.1098 14.5986 22.4547 13.9435 22.4547 13.1355C22.4547 12.7706 22.406 12.4146 22.3085 12.0675C22.2109 11.7206 22.0612 11.3859 21.8596 11.0633C22.056 11.0288 22.2512 11.0056 22.4449 10.9936C22.6386 10.9817 22.831 10.9758 23.0219 10.9758C24.1778 10.9758 25.1154 11.197 25.8348 11.6395Z" fill="#CB8CF5"/>
<path d="M24.2752 9.45009C23.9294 9.79701 23.5127 9.97048 23.0248 9.97048C22.5221 9.97048 22.1007 9.79598 21.7607 9.44699C21.4205 9.09799 21.2504 8.68301 21.2504 8.20205C21.2504 7.70642 21.4223 7.28842 21.7661 6.94805C22.1098 6.60769 22.5284 6.4375 23.0219 6.4375C23.5091 6.4375 23.9262 6.60769 24.2731 6.94805C24.6202 7.28842 24.7937 7.70538 24.7937 8.19894C24.7937 8.68612 24.6209 9.10317 24.2752 9.45009Z" fill="#CB8CF5"/>
<circle cx="15.0283" cy="20" r="6.5625" fill="#F2D9FD"/>
<mask id="mask1_556_2543" style="mask-type:alpha" maskUnits="userSpaceOnUse" x="7" y="12" width="16" height="16">
<rect x="7.56787" y="12.5396" width="14.9211" height="14.9211" fill="#D9D9D9"/>
</mask>
<g mask="url(#mask1_556_2543)">
<path d="M13.1154 22.5785C12.9326 22.7613 12.6364 22.7617 12.4529 22.5795C12.2687 22.3966 12.2681 22.0988 12.4515 21.915L14.3624 20.0002L12.4532 18.1004C12.269 17.9171 12.2692 17.619 12.4535 17.4359C12.6366 17.254 12.9323 17.2545 13.1148 17.4369L15.028 19.3487L16.9261 17.4386C17.1082 17.2554 17.4042 17.2544 17.5875 17.4364C17.7715 17.6192 17.7716 17.9169 17.5878 18.0998L15.678 20.0002L17.5895 21.9156C17.7726 22.0991 17.7719 22.3963 17.588 22.579C17.4045 22.7613 17.1079 22.7603 16.9255 22.5768L15.028 20.6673L13.1154 22.5785Z" fill="#8F40DE"/>
</g>
</g>
</svg>
