<svg width="32" height="27" viewBox="0 0 32 27"  fill="#306DEF" xmlns="http://www.w3.org/2000/svg">
<path fill-rule="evenodd" clip-rule="evenodd" d="M29.4083 2.85517C29.8813 2.85517 30.2648 2.47167 30.2648 1.99862C30.2648 1.52556 29.8813 1.14207 29.4083 1.14207C28.9352 1.14207 28.5517 1.52556 28.5517 1.99862C28.5517 2.47167 28.9352 2.85517 29.4083 2.85517ZM29.4083 3.99723C30.5121 3.99723 31.4069 3.10242 31.4069 1.99862C31.4069 0.894811 30.5121 0 29.4083 0C28.3045 0 27.4097 0.894811 27.4097 1.99862C27.4097 3.10242 28.3045 3.99723 29.4083 3.99723Z"/>
<path d="M13.5545 4.01509C18.9221 3.65047 22.4743 8.95016 24.6863 12.643C24.694 11.1719 24.3265 9.35261 23.5846 7.30449C23.2229 6.30468 23.5604 5.21856 24.4244 4.59985C25.2895 3.98018 26.4299 4.01121 27.261 4.67646C30.8384 7.54111 32.6557 12.4481 31.7839 16.8857C31.2253 19.728 29.7009 22.2154 27.3754 24.0783C25.6386 25.4699 23.541 26.4135 21.3338 26.813C20.3874 26.9847 19.5088 26.27 19.4651 25.3089C19.4292 24.5157 19.9791 23.8058 20.7607 23.6652C22.4481 23.3607 24.0501 22.6421 25.3748 21.5802C27.1029 20.1954 28.2336 18.3587 28.6448 16.2679C28.9474 14.726 28.8126 13.1075 28.3102 11.6015C28.2239 11.3416 27.8389 11.4162 27.8583 11.6897C28.0183 13.9105 27.6411 16.0934 26.2049 17.741C25.4291 18.6312 23.99 18.4033 23.5264 17.3172C23.5187 17.2988 22.8001 15.0072 21.9254 13.8174C21.8565 13.7233 21.7062 13.7737 21.7062 13.8901C21.5152 16.971 19.9083 19.7968 17.3249 21.5376C15.4038 22.8331 12.8281 22.9175 10.8033 21.812C10.5899 21.6956 10.3844 21.5666 10.1865 21.427C8.91421 20.5242 8.0133 19.1413 7.66225 17.6246C7.66225 17.6227 8.63976 17.4035 9.50478 17.2076C10.1274 17.067 10.779 17.323 11.1194 17.8632C11.4841 18.4431 12.0843 18.926 12.641 19.1617C13.2054 19.4002 13.8425 19.472 14.4418 19.343C15.6792 19.0783 16.7236 18.028 17.4005 17.0069C18.1317 15.9043 18.5264 14.5932 18.5264 13.2694C18.5264 11.0875 17.4645 9.02775 15.685 7.75834C15.0023 7.27152 14.1664 7.09309 13.3334 7.25601C12.4751 7.42377 11.7439 7.9232 11.2756 8.66215L11.262 8.68348L2.92307 21.3795C2.42462 22.1378 1.39183 22.3347 0.648031 21.7975C-0.0531002 21.2912 -0.198563 20.3031 0.276616 19.5806L8.5777 6.93987C9.50867 5.47845 11.0166 4.45051 12.7166 4.11886C12.9959 4.06455 13.5545 4.01606 13.5545 4.01606V4.01509Z"/>
</svg>
