<svg width="130" height="85" viewBox="0 0 130 85" fill="none" xmlns="http://www.w3.org/2000/svg">
<path d="M61.0124 40.0294C68.6311 26.8297 63.2742 9.68865 48.8832 3.41947C37.9312 -1.35516 24.8496 2.20267 17.8261 11.871C12.0194 19.8728 11.4771 29.7924 15.2071 37.9132C16.7547 41.2991 16.6885 45.2008 14.8235 48.428L12.6146 52.2636C11.5168 54.1549 9.83694 55.5833 7.87934 56.562C4.82389 58.0963 2.27107 60.7283 0.908688 64.3126C-1.33991 70.1982 0.697055 77.0626 5.77624 80.7923C12.7601 85.9373 22.4555 83.7682 26.675 76.4674C28.2225 73.7957 28.7913 70.833 28.5135 67.9894C28.3019 65.7807 28.8839 63.5719 29.9949 61.6541L31.86 58.4269C33.725 55.1865 37.0846 53.1497 40.8147 52.8455C48.9493 52.1577 56.6342 47.6476 61.0256 40.0426L61.0124 40.0294Z" fill="url(#paint0_linear_370_2622)"/>
<path d="M128.735 67.0899C127.795 63.3734 125.573 60.4504 122.716 58.5723C120.891 57.3687 119.383 55.7552 118.523 53.7448C117.994 52.5015 117.373 51.0731 116.777 49.6711C115.309 46.2456 115.693 42.3571 117.637 39.1828C122.28 31.5778 122.928 21.6979 118.14 13.0877C112.955 3.77647 99.8203 -1.9769 89.4767 0.628648C76.1042 4.00131 68.3796 16.5661 70.0065 29.0384C70.6944 34.3288 69.914 39.6986 67.5199 44.4733L65.9326 47.6475C65.4168 48.6792 64.5438 49.4727 63.4988 49.9489C59.9805 51.5492 57.0837 54.578 55.7743 58.7178C53.8696 64.7225 56.3033 71.4546 61.5942 74.8934C68.869 79.6283 78.4189 76.8905 82.2019 69.3516C83.6833 66.4022 84.0404 63.175 83.432 60.1727C82.969 57.8846 83.8156 55.8345 84.8076 53.7845C85.469 52.4222 86.3948 51.2715 87.916 50.8879C89.0932 50.5837 90.363 50.7557 91.5137 51.1392C93.7094 51.8799 95.5744 53.4141 97.0029 55.2526C99.7277 58.7575 101.646 63.3866 100.799 67.8703C100.283 70.5552 100.548 73.4253 101.712 76.1234C105.045 83.8739 114.41 87.1672 121.949 82.8819C127.425 79.7606 130.269 73.2004 128.721 67.0899H128.735Z" fill="url(#paint1_linear_370_2622)"/>
<defs>
<linearGradient id="paint0_linear_370_2622" x1="32.2372" y1="1.31201" x2="32.2372" y2="83.61" gradientUnits="userSpaceOnUse">
<stop stop-color="white"/>
<stop offset="1" stop-color="white" stop-opacity="0.6"/>
</linearGradient>
<linearGradient id="paint1_linear_370_2622" x1="92.1355" y1="0" x2="92.1355" y2="84.7768" gradientUnits="userSpaceOnUse">
<stop stop-color="white"/>
<stop offset="1" stop-color="white" stop-opacity="0.6"/>
</linearGradient>
</defs>
</svg>
