<svg width="148" height="13" viewBox="0 0 148 13"  xmlns="http://www.w3.org/2000/svg">
<path d="M136.285 12.9999V0.399902H141.739C142.867 0.399902 143.839 0.585902 144.655 0.957902C145.471 1.3179 146.101 1.8399 146.545 2.5239C146.989 3.2079 147.211 4.0239 147.211 4.9719C147.211 5.9079 146.989 6.7179 146.545 7.4019C146.101 8.0739 145.471 8.5899 144.655 8.9499C143.839 9.3099 142.867 9.4899 141.739 9.4899H137.905L139.201 8.2119V12.9999H136.285ZM144.295 12.9999L141.145 8.4279H144.259L147.445 12.9999H144.295ZM139.201 8.5359L137.905 7.1679H141.577C142.477 7.1679 143.149 6.9759 143.593 6.5919C144.037 6.1959 144.259 5.6559 144.259 4.9719C144.259 4.2759 144.037 3.7359 143.593 3.3519C143.149 2.9679 142.477 2.7759 141.577 2.7759H137.905L139.201 1.3899V8.5359Z" />
<path d="M126.891 5.4759H132.957V7.7439H126.891V5.4759ZM127.107 10.6599H133.965V12.9999H124.209V0.399902H133.731V2.7399H127.107V10.6599Z" />
<path d="M113.495 10.1199L113.333 6.7539L119.363 0.399902H122.603L117.167 6.2499L115.547 7.9779L113.495 10.1199ZM110.885 12.9999V0.399902H113.783V12.9999H110.885ZM119.507 12.9999L115.025 7.5099L116.933 5.4399L122.909 12.9999H119.507Z" />
<path d="M95.4474 12.9999L101.063 0.399902H103.943L109.577 12.9999H106.517L101.909 1.8759H103.061L98.4354 12.9999H95.4474ZM98.2554 10.2999L99.0294 8.0859H105.509L106.301 10.2999H98.2554Z" />
<path d="M79.912 12.9999V0.399902H82.324L87.688 9.2919H86.41L91.684 0.399902H94.078L94.114 12.9999H91.378L91.36 4.5939H91.864L87.652 11.6679H86.338L82.036 4.5939H82.648V12.9999H79.912Z" />
<path d="M61.578 12.9999V0.399902H67.032C68.16 0.399902 69.132 0.585902 69.948 0.957902C70.764 1.3179 71.394 1.8399 71.838 2.5239C72.282 3.2079 72.504 4.0239 72.504 4.9719C72.504 5.9079 72.282 6.7179 71.838 7.4019C71.394 8.0739 70.764 8.5899 69.948 8.9499C69.132 9.3099 68.16 9.4899 67.032 9.4899H63.198L64.494 8.2119V12.9999H61.578ZM69.588 12.9999L66.438 8.4279H69.552L72.738 12.9999H69.588ZM64.494 8.5359L63.198 7.1679H66.87C67.77 7.1679 68.442 6.9759 68.886 6.5919C69.33 6.1959 69.552 5.6559 69.552 4.9719C69.552 4.2759 69.33 3.7359 68.886 3.3519C68.442 2.9679 67.77 2.7759 66.87 2.7759H63.198L64.494 1.3899V8.5359Z" />
<path d="M52.1838 5.4759H58.2498V7.7439H52.1838V5.4759ZM52.3998 10.6599H59.2578V12.9999H49.5018V0.399902H59.0238V2.7399H52.3998V10.6599Z" />
<path d="M40.5753 12.9999V7.8519L41.2413 9.6159L35.6973 0.399902H38.7933L43.0413 7.4739H41.2593L45.5253 0.399902H48.3873L42.8433 9.6159L43.4913 7.8519V12.9999H40.5753Z" />
<path d="M22.7794 12.9999L28.3954 0.399902H31.2754L36.9094 12.9999H33.8494L29.2414 1.8759H30.3934L25.7674 12.9999H22.7794ZM25.5874 10.2999L26.3614 8.0859H32.8414L33.6334 10.2999H25.5874Z" />
<path d="M13.5018 12.9999V0.399902H16.4178V10.6239H22.7358V12.9999H13.5018Z" />
<path d="M0.494019 12.9999V0.399902H5.94802C7.07602 0.399902 8.04802 0.585902 8.86402 0.957902C9.68002 1.3179 10.31 1.8399 10.754 2.5239C11.198 3.2079 11.42 4.0239 11.42 4.9719C11.42 5.9079 11.198 6.7179 10.754 7.4019C10.31 8.0859 9.68002 8.6139 8.86402 8.9859C8.04802 9.3459 7.07602 9.5259 5.94802 9.5259H2.11402L3.41002 8.2119V12.9999H0.494019ZM3.41002 8.5359L2.11402 7.1499H5.78602C6.68602 7.1499 7.35802 6.9579 7.80202 6.5739C8.24602 6.1899 8.46802 5.6559 8.46802 4.9719C8.46802 4.2759 8.24602 3.7359 7.80202 3.3519C7.35802 2.9679 6.68602 2.7759 5.78602 2.7759H2.11402L3.41002 1.3899V8.5359Z" />
</svg>
