<svg width="132" height="18" viewBox="0 0 132 18" fill="none" xmlns="http://www.w3.org/2000/svg">
<path d="M10.5894 0.0139486C14.7829 -0.270916 17.558 3.86947 19.2861 6.75449C19.2922 5.60518 19.0051 4.18389 18.4255 2.58379C18.1429 1.80269 18.4065 0.954154 19.0816 0.470793C19.7574 -0.0133257 20.6483 0.0109181 21.2976 0.530645C24.0925 2.76865 25.5123 6.60221 24.8312 10.0691C24.3948 12.2897 23.2038 14.233 21.387 15.6883C20.0301 16.7755 18.3914 17.5127 16.6671 17.8248C15.9276 17.9589 15.2412 17.4006 15.2071 16.6498C15.1791 16.03 15.6087 15.4754 16.2193 15.3656C17.5376 15.1277 18.7891 14.5663 19.8241 13.7367C21.1741 12.6548 22.0575 11.2199 22.3787 9.58647C22.6151 8.38186 22.5098 7.11739 22.1174 5.94081C22.0499 5.73776 21.7492 5.7961 21.7643 6.00975C21.8893 7.7447 21.5946 9.4501 20.4726 10.7373C19.8665 11.4328 18.7422 11.2547 18.38 10.4062C18.374 10.3918 17.8126 8.60157 17.1292 7.67197C17.0754 7.59848 16.958 7.63787 16.958 7.72879C16.8087 10.1357 15.5534 12.3434 13.5351 13.7034C12.0342 14.7156 10.022 14.7815 8.44007 13.9178C8.27339 13.8269 8.11277 13.7261 7.95822 13.617C6.96422 12.9117 6.26039 11.8313 5.98614 10.6464C5.98614 10.6449 6.74982 10.4736 7.42561 10.3206C7.912 10.2107 8.42112 10.4108 8.68705 10.8328C8.97191 11.2858 9.44088 11.6631 9.87575 11.8472C10.3167 12.0336 10.8144 12.0896 11.2827 11.9889C12.2494 11.7821 13.0653 10.9615 13.5941 10.1638C14.1654 9.30236 14.4737 8.27806 14.4737 7.24391C14.4737 5.53927 13.6442 3.93008 12.2539 2.93836C11.7206 2.55803 11.0675 2.41863 10.4167 2.54591C9.7462 2.67698 9.17496 3.06715 8.80903 3.64446L8.79842 3.66113L2.28365 13.5799C1.89423 14.1723 1.08737 14.3261 0.506274 13.9064C-0.0414845 13.5109 -0.155127 12.7389 0.216106 12.1745L6.70133 2.29893C7.42864 1.1572 8.60674 0.35412 9.93485 0.0950139C10.153 0.0525872 10.5894 0.0139486 10.5894 0.0139486Z" fill="#306DEF"/>
<path d="M36.0041 2.35052H32V13.6428H33.4782V10.1873H36.0003C38.9339 10.1873 40.6521 8.62148 40.6521 6.26701C40.6521 3.91255 38.9377 2.35052 36.0041 2.35052ZM35.8898 8.85007H33.4782V3.69158H35.8898C37.9357 3.69158 39.1739 4.59451 39.1739 6.27082C39.1739 7.94714 37.9319 8.85007 35.8898 8.85007Z" />
<path d="M43.6694 2H42.2179V13.6428H43.6694V2Z" />
<path d="M52.3825 6.77751C51.9749 6.08793 50.9881 5.38312 49.5213 5.38312C47.2393 5.38312 45.5325 7.2004 45.5325 9.61201C45.5325 12.0236 47.2393 13.8409 49.5213 13.8409C50.9881 13.8409 51.9749 13.1361 52.3825 12.4465V13.6466H53.8341V5.58123H52.3825V6.78132V6.77751ZM49.6471 12.557C48.0279 12.557 46.9535 11.2883 46.9535 9.61201C46.9535 7.93569 48.0241 6.66702 49.6471 6.66702C51.27 6.66702 52.4092 7.93569 52.4092 9.61201C52.4092 11.2883 51.2815 12.557 49.6471 12.557Z" />
<path d="M59.4726 11.9246L56.8781 5.58124H55.2856L58.7411 13.4752L57.1486 17.0716H58.6154L63.6482 5.58124H62.1395L59.4726 11.9246Z" />
<path d="M68.018 10.2025L67.9608 9.01768H72.2811H65.6902C65.8464 7.62328 66.8331 6.60606 68.2846 6.60606C69.7362 6.60606 70.7229 7.60804 70.8944 9.01768H72.2811C72.2811 9.01768 72.2811 8.99863 72.2811 8.9872C72.0183 6.88418 70.4334 5.3793 68.2885 5.3793C65.934 5.3793 64.2424 7.18515 64.2424 9.6082C64.2424 12.0312 65.934 13.8371 68.2885 13.8371C70.1362 13.8371 71.5878 12.8351 72.0259 11.4407H70.5477C70.2505 12.1036 69.3933 12.6103 68.2923 12.6103C66.856 12.6103 65.854 11.5817 65.6978 10.1987H72.2964H68.0256L68.018 10.2025Z" />
<path d="M86.5489 10.2064H85.0707V13.6466H86.5489V10.2064Z" />
<path d="M85.0707 9.02148H86.1146V10.2025H85.0707V10.2063H86.5527V9.02148H85.0707Z" />
<path d="M90.7244 10.0197L86.3698 2.35052H85.0707V9.02151H86.5527V5.31456L90.1911 11.7417H91.2616L94.8962 5.31456V13.6428H96.3782V2.35052H95.0829L90.7244 10.0197Z" />
<path d="M105.145 6.77751C104.737 6.08793 103.75 5.38312 102.283 5.38312C100.001 5.38312 98.2946 7.2004 98.2946 9.61201C98.2946 12.0236 100.001 13.8409 102.283 13.8409C103.75 13.8409 104.737 13.1361 105.145 12.4465V13.6466H106.596V5.58123H105.145V6.78132V6.77751ZM102.409 12.557C100.79 12.557 99.7156 11.2883 99.7156 9.61201C99.7156 7.93569 100.786 6.66702 102.409 6.66702C104.032 6.66702 105.171 7.93569 105.171 9.61201C105.171 11.2883 104.044 12.557 102.409 12.557Z" />
<path d="M115.972 5.58123H114.265L110.25 9.89393V2H108.794V13.6428H110.25V11.6274L111.842 9.95108L114.589 13.6428H116.311L112.757 8.97958L115.972 5.58123Z" />
<path d="M120.666 5.38312C118.311 5.38312 116.62 7.18897 116.62 9.61201C116.62 12.0351 118.311 13.8409 120.666 13.8409C122.514 13.8409 123.965 12.8389 124.403 11.4445H122.925C122.628 12.1074 121.771 12.6141 120.67 12.6141C119.233 12.6141 118.231 11.5855 118.075 10.2025H124.674C124.7 10.0044 124.7 9.79488 124.7 9.61201C124.7 7.18897 123.024 5.38312 120.67 5.38312H120.666ZM118.071 9.02149C118.227 7.6271 119.214 6.60988 120.666 6.60988C122.117 6.60988 123.104 7.61186 123.275 9.02149H118.075H118.071Z" />
<path d="M130.899 5.38311C129.322 5.38311 128.346 6.21365 127.996 6.81941V5.57741H126.544V13.6428H127.996V9.47104C127.996 8.00427 129.15 6.67845 130.8 6.67845C131.291 6.67845 131.688 6.76227 132 6.90323V5.52027C131.718 5.42121 131.394 5.3793 130.899 5.3793V5.38311Z" />
<path d="M72.2811 9.02151C72.304 9.21581 72.3154 9.41011 72.3154 9.61203C72.3154 9.7949 72.3154 10.0083 72.2887 10.2026H74.0032V9.0177H72.2811V9.02151Z" />
<path d="M75.4547 9.97777V10.2026H85.0745V9.0177H75.63C75.5195 9.32249 75.4585 9.64632 75.4585 9.97777H75.4547Z" />
<path d="M72.2811 9.02148H67.9608L68.018 10.2063H72.2888C72.3154 10.0082 72.3154 9.79869 72.3154 9.61582C72.3154 9.4139 72.3002 9.21578 72.2811 9.02529V9.02148Z" />
<path d="M86.1108 9.02148H85.0707V10.2063H86.1108V9.02148Z" />
<path d="M78.2587 6.70514C78.7502 6.70514 79.1464 6.78133 79.4588 6.91468V5.6422C79.1769 5.55076 78.8531 5.51266 78.3578 5.51266C76.7805 5.51266 75.8052 6.27844 75.4547 6.83848V5.69554H74.0032V8.39669H75.6262C76.0033 7.44043 76.9824 6.70895 78.2587 6.70895V6.70514Z" />
<path d="M75.4547 10.6788H74.0032V14.1533H75.4547V10.6788Z" />
<path d="M75.6262 9.02148H74.0032V10.2063H75.4547V9.98156C75.4547 9.6501 75.5157 9.32627 75.6262 9.02148Z" />
</svg>
