<svg width="103" height="103" viewBox="0 0 103 103" fill="none" xmlns="http://www.w3.org/2000/svg">
<rect width="103" height="103" fill="#306DEF"/>
<circle cx="86.7975" cy="21.2872" r="4.28723" stroke="white" stroke-width="2"/>
<path d="M44.8577 26.6218C59.0573 25.6572 68.4545 39.6772 74.3062 49.4464C74.3268 45.5546 73.3545 40.7419 71.3919 35.3237C70.435 32.6787 71.3278 29.8055 73.6136 28.1687C75.9019 26.5294 78.9189 26.6115 81.1175 28.3714C90.5813 35.9497 95.389 48.9307 93.0826 60.6702C91.6049 68.1894 87.5721 74.7698 81.4202 79.698C76.8255 83.3794 71.2765 85.8755 65.4375 86.9325C62.9337 87.3866 60.6094 85.4958 60.494 82.9535C60.399 80.855 61.8536 78.9771 63.9214 78.6051C68.3852 77.7995 72.6233 75.8986 76.1277 73.0894C80.6993 69.426 83.6906 64.5671 84.7783 59.036C85.5788 54.9569 85.2222 50.6752 83.8933 46.6911C83.6649 46.0036 82.6465 46.2011 82.6978 46.9246C83.1211 52.7994 82.1231 58.5742 78.3237 62.9329C76.2714 65.2879 72.4643 64.6851 71.238 61.8118C71.2175 61.763 69.3165 55.7009 67.0025 52.5531C66.8203 52.3043 66.4227 52.4377 66.4227 52.7455C65.9173 60.8959 61.6664 68.3716 54.8321 72.9765C49.7499 76.4039 42.9362 76.6271 37.5795 73.7025C37.0151 73.3947 36.4713 73.0535 35.9479 72.6841C32.5821 70.2957 30.1988 66.6374 29.2701 62.625C29.2701 62.6199 31.8561 62.0401 34.1444 61.5219C35.7914 61.1499 37.5154 61.8272 38.4159 63.2561C39.3805 64.7902 40.9685 66.0678 42.441 66.6912C43.9341 67.3223 45.6196 67.5122 47.205 67.171C50.4785 66.4706 53.2415 63.6922 55.0322 60.9908C56.9665 58.0739 58.0106 54.6055 58.0106 51.1037C58.0106 45.3314 55.2015 39.8825 50.4939 36.5243C48.6878 35.2365 46.4764 34.7644 44.2727 35.1954C42.0023 35.6392 40.068 36.9604 38.8289 38.9153L38.793 38.9717L16.7328 72.5584C15.4142 74.5645 12.682 75.0853 10.7143 73.6641C8.85953 72.3249 8.47471 69.7107 9.73177 67.7995L31.6919 34.3591C34.1547 30.493 38.1439 27.7736 42.6411 26.8963C43.38 26.7526 44.8577 26.6243 44.8577 26.6243V26.6218Z" fill="white"/>
</svg>
