
<svg width="190" height="29" viewBox="0 0 190 29" fill="#306DEF" xmlns="http://www.w3.org/2000/svg">
<path d="M8.09731 0.655365H0V21.9234H4.70595V16.2609H8.09731C13.5794 16.2609 16.789 13.1793 16.789 8.43344C16.789 3.68762 13.5864 0.655365 8.09731 0.655365ZM7.88753 12.058H4.70595V4.85116H7.88753C10.5027 4.85116 12.076 6.07816 12.076 8.42639C12.076 10.7746 10.4957 12.051 7.88753 12.051V12.058Z" />
<path d="M23.8029 0H19.1948V21.9168H23.8029V0Z" />
<path d="M38.2142 8.19439C37.3122 6.96738 35.8577 6.26221 33.8649 6.26221C29.5155 6.26221 26.4878 9.62589 26.4878 14.273C26.4878 18.9201 29.5155 22.2838 33.8649 22.2838C35.8577 22.2838 37.3052 21.5786 38.2142 20.3516V21.9171H42.8223V6.6289H38.2142V8.19439ZM34.5921 18.3207C32.3895 18.3207 30.998 16.6212 30.998 14.273C30.998 11.9248 32.3964 10.2253 34.5921 10.2253C36.7877 10.2253 38.2911 11.9248 38.2911 14.273C38.2911 16.6212 36.8437 18.3207 34.5921 18.3207Z" />
<path d="M53.1428 16.0708L49.8563 6.62854H44.7588L50.7374 21.5007L47.9893 28.2845H52.5205L61.2401 6.62854H56.4502L53.1428 16.0708Z" />
<path d="M84.7072 16.9811H80.0991V21.9173H84.7072V16.9811Z" />
<path d="M88.637 9.4637C89.539 9.4637 90.3431 9.60474 90.9934 9.8727L90.9445 6.46671C90.3501 6.30452 89.8047 6.26221 88.9516 6.26221C87.0077 6.26221 85.6162 6.81224 84.7072 7.77128V6.54428H80.0991V11.3395H84.91C85.3854 10.1548 86.7 9.4637 88.637 9.4637Z" />
<path d="M111.586 12.5517L104.314 0.655365H100.566V12.7562L104.356 12.7491V15.7602H100.566V21.9164H105.272V10.2528L110.167 18.4187H113.013L117.9 10.2528V21.9164H122.606V0.655365H118.858L111.586 12.5517Z" />
<path d="M137.151 8.19439C136.249 6.96738 134.794 6.26221 132.801 6.26221C128.452 6.26221 125.424 9.62589 125.424 14.273C125.424 18.9201 128.452 22.2838 132.801 22.2838C134.794 22.2838 136.242 21.5786 137.151 20.3516V21.9171H141.759V6.6289H137.151V8.19439ZM133.529 18.3207C131.326 18.3207 129.934 16.6212 129.934 14.273C129.934 11.9248 131.333 10.2253 133.529 10.2253C135.724 10.2253 137.228 11.9248 137.228 14.273C137.228 16.6212 135.78 18.3207 133.529 18.3207Z" />
<path d="M160.303 6.62865H155.185L149.828 12.8624V0H145.22V21.9168H149.828V18.398L151.66 16.3107L155.359 21.9168H160.618L154.485 13.1515L160.303 6.62865Z" />
<path d="M168.505 6.26221C163.876 6.26221 160.61 9.62589 160.61 14.273C160.61 18.9201 163.869 22.2838 168.505 22.2838C172.176 22.2838 175.155 20.274 175.931 17.3546H171.302C170.91 18.088 169.826 18.5534 168.505 18.5534C166.771 18.5534 165.554 17.538 165.19 15.7609H176.288C176.364 15.2109 176.392 14.7173 176.392 14.273C176.392 9.60474 173.134 6.26221 168.498 6.26221H168.505ZM165.169 12.7569C165.554 10.9305 166.694 9.93617 168.505 9.93617C170.316 9.93617 171.505 10.9305 171.896 12.7569H165.169Z" />
<path d="M189.951 6.52312C189.356 6.31157 188.811 6.26221 187.958 6.26221C186.014 6.26221 184.623 6.96738 183.714 8.19439V6.6289H179.105V21.9171H183.714V14.0897C183.714 11.7696 185.189 10.3593 187.643 10.3593C188.545 10.3593 189.349 10.5426 190 10.8811L189.951 6.52312Z" />
<path fill-rule="evenodd" clip-rule="evenodd" d="M69.4985 6.26172C73.6099 6.26172 76.6306 8.89884 77.2601 12.7559L77.2601 12.749L77.2612 12.7559H80.099V15.7599H77.281C77.3494 15.2708 77.3791 14.8263 77.3848 14.4215C77.3788 14.8245 77.3491 15.2667 77.2811 15.7531H72.8829V15.7604H66.1841C66.5477 17.5375 67.7644 18.5529 69.4985 18.5529C70.8201 18.5529 71.9039 18.0875 72.2955 17.3541H76.9246C76.1484 20.2735 73.1696 22.2833 69.4985 22.2833C64.8625 22.2833 61.604 18.9196 61.604 14.2725C61.604 9.6254 64.8695 6.26172 69.4985 6.26172ZM72.8828 12.7561V12.7564H66.1561C66.5407 10.93 67.6805 9.93568 69.4915 9.93568C71.3025 9.93568 72.4912 10.9299 72.8828 12.7561H72.8828ZM84.7 15.7599H80.0991V12.7559H84.9097H84.91H84.9169H100.559V15.7599H84.7072H84.7Z" />
<path d="M104.356 12.7492H100.566V15.7533H104.356V12.7492Z" />
</svg>
