<svg width="104" height="104" viewBox="0 0 104 104" fill="#306DEF" xmlns="http://www.w3.org/2000/svg">
<path fill-rule="evenodd" clip-rule="evenodd" d="M0 0H104V104H0V0ZM87.4788 25.5745C89.2943 25.5745 90.7661 24.1027 90.7661 22.2872C90.7661 20.4717 89.2943 19 87.4788 19C85.6634 19 84.1916 20.4717 84.1916 22.2872C84.1916 24.1027 85.6634 25.5745 87.4788 25.5745ZM87.4788 27.5745C90.3989 27.5745 92.7661 25.2073 92.7661 22.2872C92.7661 19.3672 90.3989 17 87.4788 17C84.5588 17 82.1916 19.3672 82.1916 22.2872C82.1916 25.2073 84.5588 27.5745 87.4788 27.5745ZM74.9874 50.4464C69.1357 40.6772 59.7385 26.6572 45.5388 27.6218V27.6243C45.5388 27.6243 44.0611 27.7526 43.3223 27.8963C38.8251 28.7736 34.8358 31.493 32.373 35.3591L10.4129 68.7995C9.15586 70.7107 9.54068 73.3249 11.3955 74.6641C13.3632 76.0853 16.0954 75.5645 17.414 73.5584L39.4741 39.9717L39.51 39.9153C40.7492 37.9604 42.6835 36.6392 44.9539 36.1954C47.1576 35.7644 49.369 36.2365 51.1751 37.5243C55.8826 40.8825 58.6918 46.3315 58.6918 52.1037C58.6918 55.6055 57.6476 59.0739 55.7133 61.9908C53.9226 64.6922 51.1597 67.4706 47.8862 68.171C46.3007 68.5122 44.6153 68.3223 43.1222 67.6912C41.6496 67.0678 40.0616 65.7902 39.097 64.2561C38.1965 62.8272 36.4726 62.1499 34.8256 62.5219C33.922 62.7265 32.972 62.9407 32.1532 63.1254C30.8982 63.4084 29.9513 63.6219 29.9513 63.625C30.8799 67.6374 33.2632 71.2957 36.6291 73.6841C37.1524 74.0535 37.6963 74.3947 38.2607 74.7026C43.6173 77.6271 50.4311 77.4039 55.5132 73.9765C62.3475 69.3716 66.5984 61.8959 67.1038 53.7455C67.1038 53.4377 67.5015 53.3043 67.6836 53.5531C69.8669 56.523 71.6824 62.0871 71.8979 62.7475C71.9108 62.7871 71.918 62.809 71.9191 62.8118C73.1454 65.6851 76.9525 66.2879 79.0049 63.9329C82.8043 59.5742 83.8022 53.7994 83.3789 47.9246C83.3276 47.2011 84.3461 47.0036 84.5744 47.6911C85.9033 51.6752 86.2599 55.9569 85.4595 60.036C84.3717 65.5671 81.3805 70.426 76.8089 74.0894C73.3045 76.8986 69.0664 78.7995 64.6025 79.6051C62.5348 79.9771 61.0802 81.855 61.1751 83.9535C61.2906 86.4958 63.6148 88.3866 66.1187 87.9325C71.9576 86.8755 77.5066 84.3794 82.1013 80.698C88.2532 75.7698 92.2861 69.1894 93.7638 61.6702C96.0701 49.9307 91.2625 36.9497 81.7986 29.3714C79.6 27.6115 76.5831 27.5294 74.2947 29.1687C72.0089 30.8055 71.1162 33.6787 72.0731 36.3237C74.0356 41.7419 75.0079 46.5546 74.9874 50.4464Z" />
</svg>
