<svg width="129" height="85" viewBox="0 0 129 85" fill="none" xmlns="http://www.w3.org/2000/svg">
<path d="M60.946 39.9858C68.5564 26.8005 63.2053 9.67807 48.83 3.41571C37.8899 -1.35372 24.8226 2.20023 17.8067 11.858C12.0063 19.8511 11.4646 29.7599 15.1906 37.8719C16.7365 41.2541 16.6704 45.1516 14.8074 48.3752L12.6009 52.2066C11.5043 54.0959 9.82625 55.5228 7.87077 56.5005C4.81865 58.033 2.26862 60.6622 0.907714 64.2425C-1.33843 70.1217 0.696311 76.9786 5.76996 80.7044C12.7462 85.8437 22.4311 83.677 26.6459 76.3841C28.1918 73.7153 28.76 70.7559 28.4825 67.9154C28.2711 65.709 28.8524 63.5027 29.9623 61.587L31.8253 58.3633C33.6883 55.1264 37.0443 53.0918 40.7702 52.788C48.896 52.1009 56.5726 47.5957 60.9592 39.999L60.946 39.9858Z" fill="url(#paint0_linear_413_4083)"/>
<path d="M128.594 67.0169C127.656 63.3044 125.437 60.3846 122.583 58.5086C120.759 57.3063 119.253 55.6945 118.394 53.6863C117.866 52.4444 117.245 51.0175 116.65 49.6171C115.184 46.1952 115.567 42.311 117.509 39.1402C122.147 31.5434 122.794 21.6743 118.011 13.0734C112.832 3.77236 99.7117 -1.97475 89.3794 0.627963C76.0214 3.99695 68.3052 16.5481 69.9304 29.0068C70.6174 34.2915 69.8379 39.6554 67.4464 44.4248L65.8609 47.5957C65.3456 48.6262 64.4736 49.4189 63.4298 49.8945C59.9152 51.4931 57.0216 54.5186 55.7136 58.6539C53.811 64.652 56.2421 71.3768 61.5271 74.8118C68.7941 79.5416 78.3336 76.8068 82.1124 69.2761C83.5922 66.3299 83.949 63.1062 83.3412 60.1072C82.8788 57.8215 83.7244 55.7737 84.7153 53.7259C85.3759 52.3651 86.3008 51.2157 87.8203 50.8325C88.9962 50.5287 90.2646 50.7004 91.4141 51.0836C93.6074 51.8234 95.4704 53.356 96.8974 55.1924C99.6192 58.6935 101.535 63.3176 100.689 67.7964C100.174 70.4784 100.438 73.3453 101.601 76.0405C104.931 83.7826 114.285 87.0723 121.816 82.7917C127.286 79.6737 130.127 73.1207 128.581 67.0169H128.594Z" fill="url(#paint1_linear_413_4083)"/>
<defs>
<linearGradient id="paint0_linear_413_4083" x1="32.2022" y1="1.31055" x2="32.2022" y2="83.519" gradientUnits="userSpaceOnUse">
<stop stop-color="#49CF60"/>
<stop offset="1" stop-color="#49CF60" stop-opacity="0.5"/>
</linearGradient>
<linearGradient id="paint1_linear_413_4083" x1="92.0353" y1="0" x2="92.0353" y2="84.6845" gradientUnits="userSpaceOnUse">
<stop stop-color="#49CF60"/>
<stop offset="1" stop-color="#49CF60" stop-opacity="0.5"/>
</linearGradient>
</defs>
</svg>
