<svg width="248" height="39" viewBox="0 0 248 39"  fill="#306DEF" xmlns="http://www.w3.org/2000/svg">
<path d="M2.304 30.88V4.8H12.32C19.104 4.8 23.072 8.576 23.072 14.336C23.072 20.16 19.104 23.936 12.32 23.936H8.128V30.88H2.304ZM8.128 18.784H12.064C15.296 18.784 17.248 17.248 17.248 14.336C17.248 11.456 15.296 9.952 12.064 9.952H8.128V18.784ZM31.7463 4V30.88H26.0503V4H31.7463ZM44.179 31.328C38.803 31.328 35.059 27.2 35.059 21.504C35.059 15.808 38.803 11.68 44.179 11.68C46.643 11.68 48.435 12.544 49.555 14.048V12.128H55.251V30.88H49.555V28.96C48.435 30.464 46.643 31.328 44.179 31.328ZM45.075 26.464C47.859 26.464 49.651 24.384 49.651 21.504C49.651 18.624 47.859 16.544 45.075 16.544C42.355 16.544 40.627 18.624 40.627 21.504C40.627 24.384 42.355 26.464 45.075 26.464ZM72.1263 12.128H78.0463L67.2623 38.688H61.6623L65.0543 30.368L57.6623 12.128H63.9663L68.0303 23.712L72.1263 12.128ZM88.2565 31.328C82.5285 31.328 78.4965 27.232 78.4965 21.504C78.4965 15.808 82.5285 11.68 88.2565 11.68C93.9845 11.68 98.0165 15.776 98.0165 21.504C98.0165 22.048 97.9845 22.656 97.8885 23.328H84.1605C84.6085 25.504 86.1125 26.752 88.2565 26.752C89.8885 26.752 91.2325 26.176 91.7125 25.28H97.4405C96.4805 28.864 92.8005 31.328 88.2565 31.328ZM84.1285 19.648H92.4485C91.9685 17.408 90.4965 16.192 88.2565 16.192C86.0165 16.192 84.6085 17.408 84.1285 19.648ZM101.363 30.88V12.128H107.059V14.048C108.179 12.544 109.907 11.68 112.307 11.68C113.363 11.68 114.035 11.744 114.771 12L114.835 17.344C114.035 16.928 113.043 16.704 111.923 16.704C108.883 16.704 107.059 18.432 107.059 21.28V30.88H101.363ZM126.679 30.88V4.8H131.319L140.311 19.392L149.303 4.8H153.943V30.88H148.119V16.576L142.071 26.592H138.551L132.503 16.576V30.88H126.679ZM166.554 31.328C161.178 31.328 157.434 27.2 157.434 21.504C157.434 15.808 161.178 11.68 166.554 11.68C169.018 11.68 170.81 12.544 171.93 14.048V12.128H177.626V30.88H171.93V28.96C170.81 30.464 169.018 31.328 166.554 31.328ZM167.45 26.464C170.234 26.464 172.026 24.384 172.026 21.504C172.026 18.624 170.234 16.544 167.45 16.544C164.73 16.544 163.002 18.624 163.002 21.504C163.002 24.384 164.73 26.464 167.45 26.464ZM194.469 30.88L189.893 24L187.621 26.56V30.88H181.925V4H187.621V19.776L194.245 12.128H200.581L193.381 20.128L200.965 30.88H194.469ZM210.725 31.328C204.997 31.328 200.965 27.232 200.965 21.504C200.965 15.808 204.997 11.68 210.725 11.68C216.453 11.68 220.485 15.776 220.485 21.504C220.485 22.048 220.453 22.656 220.357 23.328H206.629C207.077 25.504 208.581 26.752 210.725 26.752C212.357 26.752 213.701 26.176 214.181 25.28H219.909C218.949 28.864 215.269 31.328 210.725 31.328ZM206.597 19.648H214.917C214.437 17.408 212.965 16.192 210.725 16.192C208.485 16.192 207.077 17.408 206.597 19.648ZM223.832 30.88V12.128H229.528V14.048C230.648 12.544 232.376 11.68 234.776 11.68C235.832 11.68 236.504 11.744 237.24 12L237.304 17.344C236.504 16.928 235.512 16.704 234.392 16.704C231.352 16.704 229.528 18.432 229.528 21.28V30.88H223.832Z" />
<path fill-rule="evenodd" clip-rule="evenodd" d="M243 7C244.105 7 245 6.10457 245 5C245 3.89543 244.105 3 243 3C241.895 3 241 3.89543 241 5C241 6.10457 241.895 7 243 7ZM243 10C245.761 10 248 7.76142 248 5C248 2.23858 245.761 0 243 0C240.239 0 238 2.23858 238 5C238 7.76142 240.239 10 243 10Z"/>
</svg>

