<svg xmlns="http://www.w3.org/2000/svg" version="1.1" xmlns:xlink="http://www.w3.org/1999/xlink" xmlns:svgjs="http://svgjs.com/svgjs" width="512" height="512" x="0" y="0" viewBox="0 0 32 32" style="enable-background:new 0 0 512 512" xml:space="preserve" class=""><g><path d="M24.18 6.17H22.6V3c0-.55-.45-1-1-1s-1 .45-1 1v3.17h-9.19V3c0-.55-.45-1-1-1s-1 .45-1 1v3.17H7.82c-2.76 0-5 2.24-5 5V25c0 2.76 2.24 5 5 5h16.35c2.76 0 5-2.24 5-5V11.17c.01-2.76-2.24-5-4.99-5zm3 18.83c0 1.65-1.35 3-3 3H7.82c-1.65 0-3-1.35-3-3v-9.04h13.59c.55 0 1-.45 1-1s-.45-1-1-1H4.82v-2.79c0-1.65 1.35-3 3-3h16.35c1.65 0 3 1.35 3 3V25z" fill="#000000" data-original="#000000" class=""></path></g></svg>