<svg width="24" height="24" viewBox="0 0 24 24" fill="#334155" xmlns="http://www.w3.org/2000/svg">
<mask id="mask0_156_1719" style="mask-type:alpha" maskUnits="userSpaceOnUse" x="0" y="0" width="24" height="24">
<rect width="24" height="24" fill="#D9D9D9"/>
</mask>
<g mask="url(#mask0_156_1719)">
<path d="M3.70711 20.2929C3.07714 20.9229 2 20.4767 2 19.5858V4C2 3.45 2.19583 2.97917 2.5875 2.5875C2.97917 2.19583 3.45 2 4 2H20C20.55 2 21.0208 2.19583 21.4125 2.5875C21.8042 2.97917 22 3.45 22 4V16C22 16.55 21.8042 17.0208 21.4125 17.4125C21.0208 17.8042 20.55 18 20 18H6.41421C6.149 18 5.89464 18.1054 5.70711 18.2929L3.70711 20.2929ZM6 13C6 13.5523 6.44772 14 7 14H13C13.5523 14 14 13.5523 14 13C14 12.4477 13.5523 12 13 12H7C6.44772 12 6 12.4477 6 13ZM6 10C6 10.5523 6.44772 11 7 11H17C17.5523 11 18 10.5523 18 10C18 9.44772 17.5523 9 17 9H7C6.44771 9 6 9.44772 6 10ZM6 7C6 7.55228 6.44772 8 7 8H17C17.5523 8 18 7.55228 18 7C18 6.44772 17.5523 6 17 6H7C6.44771 6 6 6.44772 6 7Z" />
</g>
</svg>
