<svg width="25" height="24" viewBox="0 0 25 24" fill="currentColor" xmlns="http://www.w3.org/2000/svg">
<mask id="mask0_407_4827" style="mask-type:alpha" maskUnits="userSpaceOnUse" x="0" y="0" width="25" height="24">
<rect x="0.324219" width="24" height="24" />
</mask>
<g mask="url(#mask0_407_4827)">
<path d="M4.53132 19.3314C3.90136 19.9614 2.82422 19.5152 2.82422 18.6243V4.30775C2.82422 3.80258 2.99922 3.375 3.34922 3.025C3.69922 2.675 4.1268 2.5 4.63197 2.5H20.0165C20.5216 2.5 20.9492 2.675 21.2992 3.025C21.6492 3.375 21.8242 3.80258 21.8242 4.30775V15.6923C21.8242 16.1974 21.6492 16.625 21.2992 16.975C20.9492 17.325 20.5216 17.5 20.0165 17.5H6.36272L4.53132 19.3314ZM6.57422 13C6.57422 13.4142 6.91001 13.75 7.32422 13.75H13.3242C13.7384 13.75 14.0742 13.4142 14.0742 13C14.0742 12.5858 13.7384 12.25 13.3242 12.25H7.32422C6.91001 12.25 6.57422 12.5858 6.57422 13ZM6.57422 10C6.57422 10.4142 6.91001 10.75 7.32422 10.75H17.3242C17.7384 10.75 18.0742 10.4142 18.0742 10C18.0742 9.58579 17.7384 9.25 17.3242 9.25H7.32422C6.91001 9.25 6.57422 9.58579 6.57422 10ZM6.57422 7C6.57422 7.41421 6.91001 7.75 7.32422 7.75H17.3242C17.7384 7.75 18.0742 7.41421 18.0742 7C18.0742 6.58579 17.7384 6.25 17.3242 6.25H7.32422C6.91001 6.25 6.57422 6.58579 6.57422 7Z" />
</g>
</svg>
