<svg width="24" height="24" viewBox="0 0 24 24" fill="currentColor" xmlns="http://www.w3.org/2000/svg">
<mask id="mask0_1381_13979" style="mask-type:alpha" maskUnits="userSpaceOnUse" x="0" y="0" width="24" height="24">
<rect width="24" height="24" fill="#D9D9D9"/>
</mask>
<g mask="url(#mask0_1381_13979)">
<path d="M7.89616 5.03281L6.99216 2.33081L8.10366 1.96731L9.00766 4.65381L7.89616 5.03281ZM11.4037 3.84631V1.15381H12.5962V3.84631H11.4037ZM16.1037 5.03281L14.9922 4.65381L15.8962 1.96731L17.0077 2.34631L16.1037 5.03281ZM21.6442 22.7693L16.3692 21.9596C15.8538 21.8827 15.3997 21.6744 15.0067 21.3346C14.6137 20.9949 14.3352 20.5776 14.1712 20.0828L13.3212 17.4328C13.1507 16.8943 13.1423 16.36 13.2962 15.8298C13.45 15.2998 13.7307 14.8591 14.1384 14.5078L15.4172 18.4981L16.2212 18.2423L13.9537 11.1096C13.7692 10.5224 13.7788 9.94131 13.9827 9.36631C14.1865 8.79131 14.5518 8.35131 15.0787 8.04631L16.0979 7.47131L20.5134 15.8406C20.6159 16.0521 20.7672 16.2149 20.9672 16.3291C21.1672 16.4431 21.3812 16.5001 21.6094 16.5001H22.5844L21.6442 22.7693ZM2.37116 22.7596L1.43066 16.4906H2.40566C2.634 16.4906 2.84816 16.4335 3.04816 16.3193C3.24816 16.2051 3.39941 16.0423 3.50191 15.8308L7.91716 7.46156L8.93641 8.03656C9.46341 8.34173 9.82883 8.78181 10.0327 9.35681C10.2365 9.93181 10.2461 10.5129 10.0614 11.1001L7.77866 18.2328L8.58266 18.4886L9.86141 14.4828C10.2794 14.8341 10.5653 15.2774 10.7192 15.8126C10.873 16.3479 10.8647 16.8847 10.6942 17.4231L9.84416 20.0731C9.68 20.5679 9.4015 20.9852 9.00866 21.3251C8.61566 21.6647 8.1615 21.8731 7.64616 21.9501L2.37116 22.7596Z" />
</g>
</svg>
