<svg width="24" height="24" viewBox="0 0 24 24" fill="#334155" xmlns="http://www.w3.org/2000/svg">
<mask id="mask0_129_2782" style="mask-type:alpha" maskUnits="userSpaceOnUse" x="0" y="0" width="24" height="24">
<rect width="24" height="24" fill="#D9D9D9"/>
</mask>
<g mask="url(#mask0_129_2782)">
<path d="M12.0001 22C10.7501 22 9.57927 21.7625 8.4876 21.2875C7.39593 20.8125 6.44593 20.1708 5.6376 19.3625C4.82926 18.5541 4.1876 17.6041 3.7126 16.5125C3.2376 15.4208 3.0001 14.25 3.0001 13C3.0001 11.75 3.2376 10.5791 3.7126 9.48748C4.1876 8.39581 4.82926 7.44581 5.6376 6.63748C6.44593 5.82914 7.39593 5.18748 8.4876 4.71248C9.57927 4.23748 10.7501 3.99998 12.0001 3.99998C13.2501 3.99998 14.4209 4.23748 15.5126 4.71248C16.6043 5.18748 17.5543 5.82914 18.3626 6.63748C19.1709 7.44581 19.8126 8.39581 20.2876 9.48748C20.7626 10.5791 21.0001 11.75 21.0001 13C21.0001 14.25 20.7626 15.4208 20.2876 16.5125C19.8126 17.6041 19.1709 18.5541 18.3626 19.3625C17.5543 20.1708 16.6043 20.8125 15.5126 21.2875C14.4209 21.7625 13.2501 22 12.0001 22ZM14.1001 16.5C14.4867 16.8866 15.1135 16.8866 15.5001 16.5C15.8867 16.1134 15.8867 15.4866 15.5001 15.1L13.9374 13.5372C13.3372 12.9371 13.0001 12.1232 13.0001 11.2745V8.99998C13.0001 8.44769 12.5524 7.99998 12.0001 7.99998C11.4478 7.99998 11.0001 8.44769 11.0001 8.99998V11.826C11.0001 12.8338 11.4005 13.8003 12.1131 14.513L14.1001 16.5ZM4.9001 3.04998C5.2867 2.66338 5.9135 2.66338 6.3001 3.04998C6.6867 3.43657 6.6867 4.06338 6.3001 4.44998L3.4501 7.29998C3.0635 7.68657 2.4367 7.68657 2.0501 7.29998C1.6635 6.91338 1.6635 6.28657 2.0501 5.89998L4.9001 3.04998ZM17.7001 3.04998C18.0867 2.66338 18.7135 2.66338 19.1001 3.04998L21.9501 5.89998C22.3367 6.28657 22.3367 6.91338 21.9501 7.29998C21.5635 7.68657 20.9367 7.68657 20.5501 7.29998L17.7001 4.44998C17.3135 4.06338 17.3135 3.43658 17.7001 3.04998Z" />
</g>
</svg>
