<svg width="24" height="24" viewBox="0 0 24 24"  xmlns="http://www.w3.org/2000/svg">
<mask id="mask0_411_6248" style="mask-type:alpha" maskUnits="userSpaceOnUse" x="0" y="0" width="24" height="24">
<rect width="24" height="24" />
</mask>
<g mask="url(#mask0_411_6248)">
<path d="M9.05775 17.5C8.55258 17.5 8.125 17.325 7.775 16.975C7.425 16.625 7.25 16.1974 7.25 15.6923V4.30775C7.25 3.80258 7.425 3.375 7.775 3.025C8.125 2.675 8.55258 2.5 9.05775 2.5H17.4423C17.9474 2.5 18.375 2.675 18.725 3.025C19.075 3.375 19.25 3.80258 19.25 4.30775V15.6923C19.25 16.1974 19.075 16.625 18.725 16.975C18.375 17.325 17.9474 17.5 17.4423 17.5H9.05775ZM5.55775 21C5.05258 21 4.625 20.825 4.275 20.475C3.925 20.125 3.75 19.6974 3.75 19.1923V7.05775C3.75 6.64354 4.08579 6.30775 4.5 6.30775C4.91421 6.30775 5.25 6.64354 5.25 7.05775V19.1923C5.25 19.2693 5.28208 19.3398 5.34625 19.4038C5.41025 19.4679 5.48075 19.5 5.55775 19.5H14.6923C15.1065 19.5 15.4423 19.8358 15.4423 20.25C15.4423 20.6642 15.1065 21 14.6923 21H5.55775Z" />
</g>
</svg>
