<svg width="24" height="24" viewBox="0 0 24 24"  xmlns="http://www.w3.org/2000/svg">
<mask id="mask0_411_6202" style="mask-type:alpha" maskUnits="userSpaceOnUse" x="0" y="0" width="24" height="24">
<rect width="24" height="24" />
</mask>
<g mask="url(#mask0_411_6202)">
<path d="M7.30775 20.5C6.80258 20.5 6.375 20.325 6.025 19.975C5.675 19.625 5.5 19.1974 5.5 18.6922V5.99998H5.25C4.83579 5.99998 4.5 5.66419 4.5 5.24998C4.5 4.83577 4.83579 4.49998 5.25 4.49998H9C9 4.01148 9.396 3.61548 9.8845 3.61548H14.1155C14.604 3.61548 15 4.01148 15 4.49998H18.75C19.1642 4.49998 19.5 4.83577 19.5 5.24998C19.5 5.66419 19.1642 5.99998 18.75 5.99998H18.5V18.6922C18.5 19.1974 18.325 19.625 17.975 19.975C17.625 20.325 17.1974 20.5 16.6923 20.5H7.30775ZM9.404 16.2501C9.404 16.6642 9.73973 17 10.1539 17C10.568 17 10.9037 16.6642 10.9037 16.2501V8.74985C10.9037 8.33571 10.568 7.99998 10.1539 7.99998C9.73973 7.99998 9.404 8.33571 9.404 8.74985V16.2501ZM13.0962 16.2501C13.0962 16.6642 13.432 17 13.8461 17C14.2603 17 14.596 16.6642 14.596 16.2501V8.74985C14.596 8.33571 14.2603 7.99998 13.8461 7.99998C13.432 7.99998 13.0962 8.33571 13.0962 8.74985V16.2501Z" />
</g>
</svg>
