<svg width="24" height="24" viewBox="0 0 24 24"  xmlns="http://www.w3.org/2000/svg">
<mask id="mask0_129_2785" style="mask-type:alpha" maskUnits="userSpaceOnUse" x="-1" y="0" width="25" height="24">
<rect x="-0.192871" width="24" height="24" />
</mask>
<g mask="url(#mask0_129_2785)">
<path d="M20.0946 21.3432C19.8039 21.634 19.3326 21.635 19.0407 21.3452L15.5227 17.8538C15.0099 18.0436 14.4415 18.1988 13.8177 18.3193C13.194 18.4398 12.5239 18.5 11.8072 18.5C9.4572 18.5 7.34379 17.8538 5.46695 16.5615C3.58995 15.2692 2.2162 13.582 1.3457 11.5C1.71487 10.6167 2.19179 9.79267 2.77645 9.028C3.36112 8.26317 4.0047 7.6 4.7072 7.0385L2.46059 4.76694C2.17149 4.47463 2.17282 4.00369 2.46356 3.71302C2.75539 3.42126 3.22848 3.42128 3.52028 3.71308L20.0946 20.2874C20.3861 20.5789 20.3862 21.0516 20.0946 21.3432ZM11.8072 15.577C12.0162 15.577 12.2303 15.559 12.4495 15.523C12.6688 15.4872 12.8637 15.4346 13.0342 15.3653L7.94195 10.273C7.87262 10.4563 7.82004 10.656 7.7842 10.872C7.7482 11.0882 7.7302 11.2975 7.7302 11.5C7.7302 12.6347 8.12604 13.5978 8.9177 14.3895C9.70937 15.1812 10.6725 15.577 11.8072 15.577ZM18.761 16.0845L15.6245 12.973C15.7026 12.7602 15.7655 12.532 15.813 12.2885C15.8605 12.0448 15.8842 11.782 15.8842 11.5C15.8842 10.3653 15.4884 9.40217 14.6967 8.6105C13.905 7.81884 12.9419 7.423 11.8072 7.423C11.5252 7.423 11.2656 7.44834 11.0285 7.499C10.7913 7.54967 10.563 7.62567 10.3437 7.727L7.84195 5.23475C8.47395 4.98342 9.11945 4.79817 9.77845 4.679C10.4375 4.55967 11.1137 4.5 11.8072 4.5C14.1507 4.5 16.2641 5.14617 18.1475 6.4385C19.7977 7.57091 21.0567 9.00648 21.9245 10.7452C22.1617 11.2205 22.162 11.7797 21.9232 12.2542C21.6148 12.8671 21.2515 13.4497 20.8332 14.002C20.2465 14.7763 19.5558 15.4705 18.761 16.0845ZM14.4917 11.85L11.4822 8.85C11.9232 8.76667 12.3395 8.79934 12.7312 8.948C13.1229 9.09684 13.4604 9.318 13.7437 9.6115C14.0335 9.90517 14.2457 10.2494 14.3802 10.6443C14.5149 11.0391 14.552 11.441 14.4917 11.85Z" />
</g>
</svg>
