<svg width="24" height="24" viewBox="0 0 24 24"  xmlns="http://www.w3.org/2000/svg">
<mask id="mask0_129_2765" style="mask-type:alpha" maskUnits="userSpaceOnUse" x="0" y="0" width="25" height="24">
<rect x="0.0981445" width="24" height="24" />
</mask>
<g mask="url(#mask0_129_2765)">
<path d="M4.40589 19.5C3.90073 19.5 3.47314 19.325 3.12314 18.975C2.77314 18.625 2.59814 18.1974 2.59814 17.6923V6.30775C2.59814 5.80258 2.77314 5.375 3.12314 5.025C3.47314 4.675 3.90073 4.5 4.40589 4.5H9.06772C9.59815 4.5 10.1069 4.71071 10.4819 5.08579L11.3104 5.91421C11.6854 6.28929 12.1941 6.5 12.7246 6.5H19.7904C20.2956 6.5 20.7231 6.675 21.0731 7.025C21.4231 7.375 21.5981 7.80258 21.5981 8.30775V17.6923C21.5981 18.1974 21.4231 18.625 21.0731 18.975C20.7231 19.325 20.2956 19.5 19.7904 19.5H4.40589Z" />
</g>
</svg>
