<svg width="24" height="24" viewBox="0 0 24 24" fill="currentColor" xmlns="http://www.w3.org/2000/svg">
<mask id="mask0_129_2846" style="mask-type:alpha" maskUnits="userSpaceOnUse" x="0" y="0" width="25" height="24">
<rect x="0.45459" width="24" height="24" />
</mask>
<g mask="url(#mask0_129_2846)">
<path d="M2.17384 17.7885C1.50047 17.7885 0.95459 17.2426 0.95459 16.5692C0.95459 15.9039 1.30201 15.3574 1.99684 14.9297C2.69184 14.5022 3.59767 14.2885 4.71434 14.2885C4.89884 14.2885 5.08467 14.2942 5.27184 14.3057C5.45901 14.3172 5.64751 14.3397 5.83734 14.373C5.64251 14.6847 5.49792 15.0081 5.40359 15.3432C5.30942 15.6786 5.26234 16.0225 5.26234 16.375C5.26234 17.1556 4.6295 17.7885 3.84884 17.7885H2.17384ZM8.32959 17.7885C7.5702 17.7885 6.95459 17.1729 6.95459 16.4135C6.95459 15.9453 7.08601 15.5174 7.34884 15.1297C7.61167 14.7419 7.99051 14.4038 8.48534 14.1155C8.98017 13.827 9.56484 13.6107 10.2393 13.4665C10.9137 13.3222 11.6508 13.25 12.4508 13.25C13.2662 13.25 14.011 13.3222 14.6853 13.4665C15.3597 13.6107 15.9443 13.827 16.4391 14.1155C16.9341 14.4038 17.3104 14.7419 17.5681 15.1297C17.8258 15.5174 17.9546 15.9453 17.9546 16.4135C17.9546 17.1729 17.339 17.7885 16.5796 17.7885H8.32959ZM21.0573 17.7885C20.2783 17.7885 19.6468 17.157 19.6468 16.378C19.6468 16.0018 19.6023 15.6473 19.5133 15.3145C19.4242 14.9818 19.2905 14.668 19.1123 14.373C19.3085 14.3397 19.496 14.3172 19.6748 14.3057C19.8537 14.2942 20.0303 14.2885 20.2046 14.2885C21.3213 14.2885 22.2254 14.4997 22.9171 14.9222C23.6088 15.3446 23.9546 15.8936 23.9546 16.5692C23.9546 17.2426 23.4087 17.7885 22.7353 17.7885H21.0573ZM4.71159 13.3172C4.24026 13.3172 3.83759 13.1497 3.50359 12.8145C3.16959 12.4793 3.00259 12.0764 3.00259 11.6057C3.00259 11.1289 3.17026 10.7261 3.50559 10.3972C3.84076 10.0684 4.24367 9.90399 4.71434 9.90399C5.19117 9.90399 5.59559 10.0684 5.92759 10.3972C6.25976 10.7261 6.42584 11.1299 6.42584 11.6087C6.42584 12.0734 6.26151 12.4743 5.93284 12.8115C5.60434 13.1487 5.19726 13.3172 4.71159 13.3172ZM20.2046 13.3172C19.7379 13.3172 19.336 13.1487 18.9988 12.8115C18.6617 12.4743 18.4931 12.0734 18.4931 11.6087C18.4931 11.1299 18.6617 10.7261 18.9988 10.3972C19.336 10.0684 19.7385 9.90399 20.2063 9.90399C20.6885 9.90399 21.094 10.0684 21.4228 10.3972C21.7517 10.7261 21.9161 11.1289 21.9161 11.6057C21.9161 12.0764 21.7521 12.4793 21.4241 12.8145C21.0961 13.1497 20.6896 13.3172 20.2046 13.3172ZM12.4581 12.5C11.7378 12.5 11.1244 12.2476 10.6181 11.7427C10.1118 11.2381 9.85859 10.6252 9.85859 9.90399C9.85859 9.16832 10.1109 8.55174 10.6156 8.05424C11.1204 7.55657 11.7334 7.30774 12.4546 7.30774C13.1901 7.30774 13.8067 7.55624 14.3043 8.05324C14.8018 8.55007 15.0506 9.16582 15.0506 9.90049C15.0506 10.6207 14.8022 11.234 14.3053 11.7405C13.8083 12.2468 13.1926 12.5 12.4581 12.5Z" />
</g>
</svg>
