<svg width="24" height="24" viewBox="0 0 24 24" fill="#334155" xmlns="http://www.w3.org/2000/svg">
<mask id="mask0_129_2832" style="mask-type:alpha" maskUnits="userSpaceOnUse" x="0" y="0" width="24" height="24">
<rect width="24" height="24" fill="#D9D9D9"/>
</mask>
<g mask="url(#mask0_129_2832)">
<path d="M12.6675 20.4015C12.2877 20.7421 11.7123 20.7421 11.3325 20.4015L10.55 19.7C8.86667 18.1834 7.475 16.875 6.375 15.775C5.275 14.675 4.4 13.6875 3.75 12.8125C3.1 11.9375 2.64583 11.1334 2.3875 10.4C2.12917 9.66669 2 8.91669 2 8.15002C2 6.58336 2.525 5.27502 3.575 4.22502C4.625 3.17502 5.93333 2.65002 7.5 2.65002C8.36667 2.65002 9.19167 2.83336 9.975 3.20002C10.581 3.48369 11.1222 3.85714 11.5985 4.32036C11.8196 4.5353 12.1804 4.5353 12.4015 4.32036C12.8778 3.85714 13.419 3.48369 14.025 3.20002C14.8083 2.83336 15.6333 2.65002 16.5 2.65002C18.0667 2.65002 19.375 3.17502 20.425 4.22502C21.475 5.27502 22 6.58336 22 8.15002C22 8.91669 21.8708 9.66669 21.6125 10.4C21.3542 11.1334 20.9 11.9375 20.25 12.8125C19.6 13.6875 18.725 14.675 17.625 15.775C16.525 16.875 15.1333 18.1834 13.45 19.7L12.6675 20.4015Z" />
</g>
</svg>
