<svg width="24" height="24" viewBox="0 0 24 24"  xmlns="http://www.w3.org/2000/svg">
<mask id="mask0_129_2832" style="mask-type:alpha" maskUnits="userSpaceOnUse" x="0" y="0" width="24" height="24">
<rect width="24" height="24" />
</mask>
<g mask="url(#mask0_129_2832)">
<path d="M13.1038 19.3345C12.4761 19.8988 11.5239 19.8988 10.8963 19.3345C9.23858 17.8307 7.86775 16.5384 6.78375 15.4578C5.69975 14.3769 4.84075 13.415 4.20675 12.572C3.57275 11.7292 3.12983 10.9603 2.878 10.2653C2.626 9.57044 2.5 8.86536 2.5 8.15002C2.5 6.73086 2.9785 5.54269 3.9355 4.58552C4.89267 3.62852 6.08083 3.15002 7.5 3.15002C8.373 3.15002 9.198 3.35419 9.975 3.76252C10.752 4.17086 11.427 4.75644 12 5.51927C12.573 4.75644 13.248 4.17086 14.025 3.76252C14.802 3.35419 15.627 3.15002 16.5 3.15002C17.9192 3.15002 19.1073 3.62852 20.0645 4.58552C21.0215 5.54269 21.5 6.73086 21.5 8.15002C21.5 8.86536 21.374 9.57044 21.122 10.2653C20.8702 10.9603 20.4272 11.7292 19.7932 12.572C19.1592 13.415 18.3018 14.3769 17.221 15.4578C16.1403 16.5384 14.7679 17.8307 13.1038 19.3345Z" />
</g>
</svg>
