<svg width="24" height="24" viewBox="0 0 24 24"  xmlns="http://www.w3.org/2000/svg">
<mask id="mask0_156_1716" style="mask-type:alpha" maskUnits="userSpaceOnUse" x="0" y="-1" width="25" height="25">
<rect x="0.0444336" y="-0.236549" width="24" height="24" />
</mask>
<g mask="url(#mask0_156_1716)">
<path d="M6.54443 20.2635C5.43986 20.2635 4.54443 19.368 4.54443 18.2635V10.0114C4.54443 9.38304 4.83974 8.79121 5.34181 8.41337L10.8418 4.27426C11.554 3.73829 12.5349 3.73829 13.2471 4.27426L18.7471 8.41337C19.2491 8.79121 19.5444 9.38304 19.5444 10.0114V18.2635C19.5444 19.368 18.649 20.2635 17.5444 20.2635H15.9482C14.8436 20.2635 13.9482 19.368 13.9482 18.2635V15.475C13.9482 14.4235 13.0958 13.5712 12.0444 13.5712C10.993 13.5712 10.1407 14.4235 10.1407 15.475V18.2635C10.1407 19.368 9.24525 20.2635 8.14068 20.2635H6.54443Z" />
</g>
</svg>
