<svg width="24" height="24" viewBox="0 0 24 24" fill="#334155" xmlns="http://www.w3.org/2000/svg">
<mask id="mask0_129_2801" style="mask-type:alpha" maskUnits="userSpaceOnUse" x="0" y="0" width="24" height="24">
<rect width="24" height="24" fill="#D9D9D9"/>
</mask>
<g mask="url(#mask0_129_2801)">
<path d="M14 12C14 12.5523 14.4477 13 15 13H18C18.5523 13 19 12.5523 19 12C19 11.4477 18.5523 11 18 11H15C14.4477 11 14 11.4477 14 12ZM14 9C14 9.55228 14.4477 10 15 10H18C18.5523 10 19 9.55228 19 9C19 8.44772 18.5523 8 18 8H15C14.4477 8 14 8.44772 14 9ZM5 16H13V15.45C13 14.7 12.6333 14.1042 11.9 13.6625C11.1667 13.2208 10.2 13 9 13C7.8 13 6.83333 13.2208 6.1 13.6625C5.36667 14.1042 5 14.7 5 15.45V16ZM9 12C9.55 12 10.0208 11.8042 10.4125 11.4125C10.8042 11.0208 11 10.55 11 10C11 9.45 10.8042 8.97917 10.4125 8.5875C10.0208 8.19583 9.55 8 9 8C8.45 8 7.97917 8.19583 7.5875 8.5875C7.19583 8.97917 7 9.45 7 10C7 10.55 7.19583 11.0208 7.5875 11.4125C7.97917 11.8042 8.45 12 9 12ZM4 20C3.45 20 2.97917 19.8042 2.5875 19.4125C2.19583 19.0208 2 18.55 2 18V6C2 5.45 2.19583 4.97917 2.5875 4.5875C2.97917 4.19583 3.45 4 4 4H20C20.55 4 21.0208 4.19583 21.4125 4.5875C21.8042 4.97917 22 5.45 22 6V18C22 18.55 21.8042 19.0208 21.4125 19.4125C21.0208 19.8042 20.55 20 20 20H4Z"/>
</g>
</svg>
