<svg width="24" height="24" viewBox="0 0 24 24"  xmlns="http://www.w3.org/2000/svg">
<mask id="mask0_129_2801" style="mask-type:alpha" maskUnits="userSpaceOnUse" x="0" y="0" width="24" height="24">
<rect width="24" height="24" />
</mask>
<g mask="url(#mask0_129_2801)">
<path d="M4.30775 21.5C3.80258 21.5 3.375 21.325 3.025 20.975C2.675 20.625 2.5 20.1974 2.5 19.6923V9.30775C2.5 8.80258 2.675 8.375 3.025 8.025C3.375 7.675 3.80258 7.5 4.30775 7.5H9.5V4C9.5 3.5875 9.64692 3.23442 9.94075 2.94075C10.2344 2.64692 10.5875 2.5 11 2.5H13C13.4125 2.5 13.7656 2.64692 14.0592 2.94075C14.3531 3.23442 14.5 3.5875 14.5 4V7.5H19.6923C20.1974 7.5 20.625 7.675 20.975 8.025C21.325 8.375 21.5 8.80258 21.5 9.30775V19.6923C21.5 20.1974 21.325 20.625 20.975 20.975C20.625 21.325 20.1974 21.5 19.6923 21.5H4.30775ZM6.15375 17.7115H11.8463V17.4152C11.8463 17.1602 11.7755 16.924 11.634 16.7065C11.4927 16.4888 11.2954 16.32 11.0423 16.2C10.7153 16.0563 10.3842 15.9487 10.049 15.877C9.71383 15.8052 9.36417 15.7693 9 15.7693C8.63583 15.7693 8.28617 15.8052 7.951 15.877C7.61583 15.9487 7.28475 16.0563 6.95775 16.2C6.70458 16.32 6.50733 16.4888 6.366 16.7065C6.2245 16.924 6.15375 17.1602 6.15375 17.4152V17.7115ZM14 15.5961C14 15.9254 14.2669 16.1923 14.5961 16.1923H17.4039C17.7331 16.1923 18 15.9254 18 15.5961C18 15.2669 17.7331 15 17.4039 15H14.5961C14.2669 15 14 15.2669 14 15.5961ZM8.99775 15C9.37108 15 9.68917 14.8693 9.952 14.608C10.2148 14.3467 10.3463 14.0293 10.3463 13.656C10.3463 13.2828 10.2156 12.9648 9.95425 12.702C9.69292 12.4392 9.37558 12.3077 9.00225 12.3077C8.62892 12.3077 8.31083 12.4384 8.048 12.6997C7.78517 12.9611 7.65375 13.2783 7.65375 13.6515C7.65375 14.0248 7.78442 14.3429 8.04575 14.6058C8.30708 14.8686 8.62442 15 8.99775 15ZM14 12.9039C14 13.2331 14.2669 13.5 14.5961 13.5H17.4039C17.7331 13.5 18 13.2331 18 12.9039C18 12.5746 17.7331 12.3077 17.4039 12.3077H14.5961C14.2669 12.3077 14 12.5746 14 12.9039ZM11 8.78475C11 9.11612 11.2686 9.38475 11.6 9.38475H12.4C12.7314 9.38475 13 9.11612 13 8.78475V4.6C13 4.26863 12.7314 4 12.4 4H11.6C11.2686 4 11 4.26863 11 4.6V8.78475Z" />
</g>
</svg>
