<svg width="24" height="24" viewBox="0 0 24 24"  xmlns="http://www.w3.org/2000/svg">
<mask id="mask0_129_2786" style="mask-type:alpha" maskUnits="userSpaceOnUse" x="0" y="0" width="24" height="24">
<rect width="24" height="24" />
</mask>
<g mask="url(#mask0_129_2786)">
<path d="M12 20.175L17.3595 16.8942C16.5583 16.3557 15.7036 15.9471 14.7952 15.6682C13.8869 15.3894 12.9552 15.25 12 15.25C11.0448 15.25 10.1106 15.391 9.19725 15.673C8.28375 15.9552 7.418 16.3571 6.6 16.8787L12 20.175ZM12 12.75C12.9025 12.75 13.6698 12.434 14.302 11.802C14.934 11.1698 15.25 10.4025 15.25 9.49999C15.25 8.59749 14.934 7.83015 14.302 7.19799C13.6698 6.56599 12.9025 6.24999 12 6.24999C11.0975 6.24999 10.3302 6.56599 9.698 7.19799C9.066 7.83015 8.75 8.59749 8.75 9.49999C8.75 10.4025 9.066 11.1698 9.698 11.802C10.3302 12.434 11.0975 12.75 12 12.75ZM13.0426 21.2766C12.4025 21.6676 11.5975 21.6676 10.9574 21.2766L4.45742 17.3061C3.86273 16.9428 3.5 16.2962 3.5 15.5993V8.40065C3.5 7.70379 3.86273 7.05716 4.45742 6.69389L10.9574 2.72335C11.5975 2.33236 12.4025 2.33236 13.0426 2.72335L19.5426 6.69389C20.1373 7.05716 20.5 7.70379 20.5 8.40065V15.5993C20.5 16.2962 20.1373 16.9428 19.5426 17.3061L13.0426 21.2766Z" />
</g>
</svg>
