<svg width="24" height="24" viewBox="0 0 24 24" fill="#334155" xmlns="http://www.w3.org/2000/svg">
<mask id="mask0_129_2786" style="mask-type:alpha" maskUnits="userSpaceOnUse" x="0" y="0" width="24" height="24">
<rect width="24" height="24" fill="#D9D9D9"/>
</mask>
<g mask="url(#mask0_129_2786)">
<path d="M12 20.175L17.6 16.75C16.7667 16.1667 15.875 15.7292 14.925 15.4375C13.975 15.1458 13 15 12 15C11 15 10.0208 15.1458 9.0625 15.4375C8.10417 15.7292 7.2 16.1583 6.35 16.725L12 20.175ZM12 13C12.9667 13 13.7917 12.6583 14.475 11.975C15.1583 11.2917 15.5 10.4667 15.5 9.5C15.5 8.53333 15.1583 7.70833 14.475 7.025C13.7917 6.34167 12.9667 6 12 6C11.0333 6 10.2083 6.34167 9.525 7.025C8.84167 7.70833 8.5 8.53333 8.5 9.5C8.5 10.4667 8.84167 11.2917 9.525 11.975C10.2083 12.6583 11.0333 13 12 13ZM13.0429 21.8627C12.4027 22.2539 11.5973 22.2539 10.9571 21.8627L3.9571 17.5849C3.36259 17.2216 3 16.5751 3 15.8783V8.12167C3 7.42494 3.36259 6.77842 3.9571 6.41511L10.9571 2.13733C11.5973 1.74608 12.4027 1.74608 13.0429 2.13733L20.0429 6.41511C20.6374 6.77842 21 7.42494 21 8.12167V15.8783C21 16.5751 20.6374 17.2216 20.0429 17.5849L13.0429 21.8627Z" />
</g>
</svg>
