<svg width="24" height="24" viewBox="0 0 24 24"  xmlns="http://www.w3.org/2000/svg">
<mask id="mask0_129_2792" style="mask-type:alpha" maskUnits="userSpaceOnUse" x="-1" y="0" width="25" height="24">
<rect x="-0.0961914" width="24" height="24" />
</mask>
<g mask="url(#mask0_129_2792)">
<path d="M5.21156 20.5C4.70639 20.5 4.27881 20.325 3.92881 19.975C3.57881 19.625 3.40381 19.1974 3.40381 18.6923V5.30775C3.40381 4.80258 3.57881 4.375 3.92881 4.025C4.27881 3.675 4.70639 3.5 5.21156 3.5H18.5961C19.1012 3.5 19.5288 3.675 19.8788 4.025C20.2288 4.375 20.4038 4.80258 20.4038 5.30775V18.6923C20.4038 19.1974 20.2288 19.625 19.8788 19.975C19.5288 20.325 19.1012 20.5 18.5961 20.5H5.21156ZM7.37902 15.7887C7.08079 16.184 7.36281 16.75 7.85801 16.75H16.0306C16.525 16.75 16.8072 16.1856 16.5106 15.79L14.4165 12.9978C14.1783 12.6801 13.7027 12.6773 13.4607 12.9922L11.1346 16.0192L9.61575 14.0769C9.37288 13.7663 8.90156 13.7704 8.6641 14.0851L7.37902 15.7887Z" />
</g>
</svg>
