<svg width="24" height="24" viewBox="0 0 24 24" fill="#334155" xmlns="http://www.w3.org/2000/svg">
<mask id="mask0_129_2829" style="mask-type:alpha" maskUnits="userSpaceOnUse" x="0" y="0" width="24" height="24">
<rect width="24" height="24" fill="#D9D9D9"/>
</mask>
<g mask="url(#mask0_129_2829)">
<path d="M12 10C12.8333 10 13.5417 9.70833 14.125 9.125C14.7083 8.54167 15 7.83333 15 7C15 6.16667 14.7083 5.45833 14.125 4.875C13.5417 4.29167 12.8333 4 12 4C11.1667 4 10.4583 4.29167 9.875 4.875C9.29167 5.45833 9 6.16667 9 7C9 7.83333 9.29167 8.54167 9.875 9.125C10.4583 9.70833 11.1667 10 12 10ZM13.4387 21.5757C12.6732 22.3608 11.4149 22.3727 10.6347 21.6022L9.00932 19.9969C8.4529 19.4473 8.45012 18.5499 9.00311 17.9969C9.55368 17.4463 9.55212 16.5521 9.00155 16.0016C8.44927 15.4493 8.44772 14.5523 9 14L9.90892 13.0911C9.96724 13.0328 10 12.9537 10 12.8712C10 12.7388 9.91582 12.6216 9.79228 12.5739C8.68796 12.1477 7.79053 11.448 7.1 10.475C6.36667 9.44167 6 8.28333 6 7C6 5.33333 6.58333 3.91667 7.75 2.75C8.91667 1.58333 10.3333 1 12 1C13.6667 1 15.0833 1.58333 16.25 2.75C17.4167 3.91667 18 5.33333 18 7C18 8.35 17.6167 9.52917 16.85 10.5375C16.3887 11.1442 15.861 11.6408 15.2669 12.0273C14.5562 12.4897 14 13.2171 14 14.065V20.1959C14 20.7115 13.7986 21.2066 13.4387 21.5757Z" />
</g>
</svg>
