<svg width="24" height="24" viewBox="0 0 24 24"  xmlns="http://www.w3.org/2000/svg">
<mask id="mask0_129_2829" style="mask-type:alpha" maskUnits="userSpaceOnUse" x="-1" y="0" width="25" height="24">
<rect x="-0.158203" width="24" height="24" />
</mask>
<g mask="url(#mask0_129_2829)">
<path d="M11.8511 9.42302C12.5243 9.42302 13.0964 9.18743 13.5676 8.71627C14.0388 8.2451 14.2743 7.67302 14.2743 7.00002C14.2743 6.32702 14.0388 5.75493 13.5676 5.28376C13.0964 4.8126 12.5243 4.57702 11.8511 4.57702C11.1781 4.57702 10.606 4.8126 10.1348 5.28376C9.66367 5.75493 9.42809 6.32702 9.42809 7.00002C9.42809 7.67302 9.66367 8.2451 10.1348 8.71627C10.606 9.18743 11.1781 9.42302 11.8511 9.42302ZM11.8821 22.5385L9.45561 20.1485C8.9409 19.6415 8.91886 18.8184 9.4057 18.2846C9.87147 17.7739 9.87415 16.9932 9.4119 16.4794L9.3622 16.4241C8.87471 15.8822 8.8742 15.0599 9.36102 14.5173L9.62435 14.2239C9.93147 13.8816 10.1013 13.4379 10.1013 12.978V12.0923C9.05517 11.7141 8.19101 11.0708 7.50884 10.1625C6.82684 9.25418 6.48584 8.20002 6.48584 7.00002C6.48584 5.50002 7.00509 4.23077 8.04359 3.19227C9.08209 2.15393 10.3513 1.63477 11.8511 1.63477C13.3511 1.63477 14.6203 2.15393 15.6588 3.19227C16.6973 4.23077 17.2166 5.50002 17.2166 7.00002C17.2166 8.24102 16.8653 9.30801 16.1626 10.201C15.4601 11.0938 14.6063 11.7243 13.6011 12.0923V20.7885L11.8821 22.5385Z" />
</g>
</svg>
