<svg width="24" height="24" viewBox="0 0 24 24" fill="currentColor" xmlns="http://www.w3.org/2000/svg">
<mask id="mask0_1033_8684" style="mask-type:alpha" maskUnits="userSpaceOnUse" x="0" y="0" width="24" height="24">
<rect width="24" height="24" fill="#D9D9D9"/>
</mask>
<g mask="url(#mask0_1033_8684)">
<path d="M12.001 11.9807C12.5143 11.9807 12.9533 11.798 13.318 11.4325C13.6828 11.067 13.8653 10.6276 13.8653 10.1142C13.8653 9.6009 13.6824 9.16182 13.3168 8.79699C12.9513 8.43232 12.5118 8.24999 11.9985 8.24999C11.4852 8.24999 11.0462 8.43274 10.6815 8.79824C10.3167 9.16374 10.1343 9.60315 10.1343 10.1165C10.1343 10.6298 10.3171 11.0689 10.6828 11.4337C11.0483 11.7984 11.4877 11.9807 12.001 11.9807ZM11.9998 21.8442C9.3331 19.5661 7.35043 17.4779 6.05177 15.5797C4.75293 13.6817 4.10352 11.8956 4.10352 10.2212C4.10352 8.1224 4.84652 6.25665 6.33252 4.62399C7.81835 2.99132 9.70743 2.17499 11.9998 2.17499C14.2921 2.17499 16.1812 2.99132 17.667 4.62399C19.153 6.25665 19.896 8.1224 19.896 10.2212C19.896 11.8956 19.2466 13.6817 17.9478 15.5797C16.6491 17.4779 14.6664 19.5661 11.9998 21.8442Z" />
</g>
</svg>
