<svg width="24" height="24" viewBox="0 0 24 24"  xmlns="http://www.w3.org/2000/svg">
<mask id="mask0_156_1713" style="mask-type:alpha" maskUnits="userSpaceOnUse" x="0" y="0" width="24" height="24">
<rect width="24" height="24" />
</mask>
<g mask="url(#mask0_156_1713)">
<path d="M10.977 2.20519C11.6074 1.82995 12.3926 1.82995 13.023 2.20518L20.7808 6.823C21.0037 6.968 21.1794 7.15875 21.3078 7.39525C21.4359 7.63175 21.5 7.88334 21.5 8.15V18.6923C21.5 19.1974 21.325 19.625 20.975 19.975C20.625 20.325 20.1974 20.5 19.6923 20.5H4.30775C3.80258 20.5 3.375 20.325 3.025 19.975C2.675 19.625 2.5 19.1974 2.5 18.6923V8.15C2.5 7.88334 2.56408 7.63175 2.69225 7.39525C2.82058 7.15875 2.99625 6.968 3.21925 6.823L10.977 2.20519ZM10.9759 12.0395C11.6068 12.4156 12.3932 12.4156 13.0241 12.0395L19.8 8L12.3072 3.53316C12.118 3.42032 11.882 3.42032 11.6928 3.53316L4.2 8L10.9759 12.0395Z" />
</g>
</svg>
