<svg width="24" height="24" viewBox="0 0 24 24" fill="#334155" xmlns="http://www.w3.org/2000/svg">
<mask id="mask0_156_1718" style="mask-type:alpha" maskUnits="userSpaceOnUse" x="0" y="0" width="24" height="24">
<rect width="24" height="24" fill="#D9D9D9"/>
</mask>
<g mask="url(#mask0_156_1718)">
<path d="M5 19C4.44772 19 4 18.5523 4 18C4 17.4477 4.44772 17 5 17H6V10C6 8.61667 6.41667 7.3875 7.25 6.3125C8.08333 5.2375 9.16667 4.53333 10.5 4.2V3.5C10.5 3.08333 10.6458 2.72917 10.9375 2.4375C11.2292 2.14583 11.5833 2 12 2C12.4167 2 12.7708 2.14583 13.0625 2.4375C13.3542 2.72917 13.5 3.08333 13.5 3.5V4.2C14.8333 4.53333 15.9167 5.2375 16.75 6.3125C17.5833 7.3875 18 8.61667 18 10V17H19C19.5523 17 20 17.4477 20 18C20 18.5523 19.5523 19 19 19H5ZM12 22C11.45 22 10.9792 21.8042 10.5875 21.4125C10.319 21.144 10.1425 20.8383 10.0581 20.4954C9.99208 20.2273 10.2239 20 10.5 20H13.5C13.7761 20 14.0079 20.2273 13.9419 20.4954C13.8575 20.8383 13.681 21.144 13.4125 21.4125C13.0208 21.8042 12.55 22 12 22Z" />
</g>
</svg>
