<svg width="24" height="24" viewBox="0 0 24 24"  xmlns="http://www.w3.org/2000/svg">
<mask id="mask0_407_4761" style="mask-type:alpha" maskUnits="userSpaceOnUse" x="0" y="0" width="24" height="24">
<rect width="24" height="24" />
</mask>
<g mask="url(#mask0_407_4761)">
<path d="M5.24988 18.8845C4.83573 18.8845 4.5 18.5488 4.5 18.1346C4.5 17.7205 4.83573 17.3848 5.24988 17.3848H6.30775V9.923C6.30775 8.57817 6.72283 7.38908 7.553 6.35575C8.383 5.32242 9.44867 4.6615 10.75 4.373V3.75C10.75 3.40283 10.8714 3.10767 11.1143 2.8645C11.3571 2.6215 11.6519 2.5 11.9988 2.5C12.3458 2.5 12.641 2.6215 12.8845 2.8645C13.1282 3.10767 13.25 3.40283 13.25 3.75V4.373C14.5513 4.6615 15.617 5.32242 16.447 6.35575C17.2772 7.38908 17.6923 8.57817 17.6923 9.923V17.3848H18.7501C19.1643 17.3848 19.5 17.7205 19.5 18.1346C19.5 18.5488 19.1643 18.8845 18.7501 18.8845H5.24988ZM11.9983 21.6923C11.5008 21.6923 11.0754 21.5153 10.7223 21.1613C10.3689 20.8073 10.1923 20.3817 10.1923 19.8845H13.8077C13.8077 20.3833 13.6306 20.8093 13.2762 21.1625C12.9219 21.5157 12.4959 21.6923 11.9983 21.6923Z" />
</g>
</svg>
