<svg width="24" height="24" viewBox="0 0 24 24" fill="#334155" xmlns="http://www.w3.org/2000/svg">
<mask id="mask0_129_2771" style="mask-type:alpha" maskUnits="userSpaceOnUse" x="0" y="0" width="24" height="24">
<rect width="24" height="24" fill="#D9D9D9"/>
</mask>
<g mask="url(#mask0_129_2771)">
<path d="M6 22C5.45 22 4.97917 21.8042 4.5875 21.4125C4.19583 21.0208 4 20.55 4 20V4C4 3.45 4.19583 2.97917 4.5875 2.5875C4.97917 2.19583 5.45 2 6 2H13.1716C13.702 2 14.2107 2.21071 14.5858 2.58579L19.4142 7.41421C19.7893 7.78929 20 8.29799 20 8.82843V20C20 20.55 19.8042 21.0208 19.4125 21.4125C19.0208 21.8042 18.55 22 18 22H6ZM13 8.6C13 8.82091 13.1791 9 13.4 9H17.0343C17.3907 9 17.5691 8.56914 17.3172 8.31716L13.6828 4.68284C13.4309 4.43086 13 4.60932 13 4.96569V8.6Z" />
</g>
</svg>
