<svg width="24" height="24" viewBox="0 0 24 24"  xmlns="http://www.w3.org/2000/svg">
<mask id="mask0_129_2771" style="mask-type:alpha" maskUnits="userSpaceOnUse" x="-1" y="0" width="25" height="24">
<rect x="-0.487305" width="24" height="24" />
</mask>
<g mask="url(#mask0_129_2771)">
<path d="M5.82045 21.5C5.31528 21.5 4.8877 21.325 4.5377 20.975C4.1877 20.625 4.0127 20.1974 4.0127 19.6923V4.30775C4.0127 3.80258 4.1877 3.375 4.5377 3.025C4.8877 2.675 5.31528 2.5 5.82045 2.5H12.9343C13.4647 2.5 13.9734 2.71071 14.3485 3.08579L18.4269 7.16421C18.802 7.53929 19.0127 8.04799 19.0127 8.57843V19.6923C19.0127 20.1974 18.8377 20.625 18.4877 20.975C18.1377 21.325 17.7101 21.5 17.2049 21.5H5.82045ZM13.0127 8.5H17.5127L13.0127 4V8.5Z" />
</g>
</svg>
