<svg width="24" height="24" viewBox="0 0 24 24" fill="#334155" xmlns="http://www.w3.org/2000/svg">
<mask id="mask0_129_2767" style="mask-type:alpha" maskUnits="userSpaceOnUse" x="0" y="0" width="24" height="24">
<rect width="24" height="24" fill="#D9D9D9"/>
</mask>
<g mask="url(#mask0_129_2767)">
<path d="M4 21C3.44772 21 3 20.5523 3 20V17.1648C3 16.8992 3.10562 16.6446 3.29356 16.457L16.2 3.575C16.4 3.39167 16.6208 3.25 16.8625 3.15C17.1042 3.05 17.3583 3 17.625 3C17.8917 3 18.15 3.05 18.4 3.15C18.65 3.25 18.8667 3.4 19.05 3.6L20.425 5C20.625 5.18333 20.7708 5.4 20.8625 5.65C20.9542 5.9 21 6.15 21 6.4C21 6.66667 20.9542 6.92083 20.8625 7.1625C20.7708 7.40417 20.625 7.625 20.425 7.825L7.54289 20.7071C7.35536 20.8946 7.101 21 6.83579 21H4ZM17.3879 7.58787C17.505 7.70503 17.695 7.70503 17.8121 7.58787L18.7879 6.61213C18.905 6.49497 18.905 6.30503 18.7879 6.18787L17.8121 5.21213C17.695 5.09497 17.505 5.09497 17.3879 5.21213L16.4121 6.18787C16.295 6.30503 16.295 6.49497 16.4121 6.61213L17.3879 7.58787Z" />
</g>
</svg>
