<svg width="24" height="24" viewBox="0 0 24 24" fill="currentColor" xmlns="http://www.w3.org/2000/svg">
<mask id="mask0_129_2787" style="mask-type:alpha" maskUnits="userSpaceOnUse" x="0" y="0" width="24" height="24">
<rect width="24" height="24" />
</mask>
<g mask="url(#mask0_129_2787)">
<path d="M3.79834 19.3078C2.69377 19.3078 1.79834 18.4123 1.79834 17.3078V17.0845C1.79834 16.5692 1.93134 16.1093 2.19734 15.7048C2.46334 15.3003 2.81859 14.9856 3.26309 14.7608C4.21342 14.2959 5.16901 13.9375 6.12984 13.6855C7.09084 13.4337 8.14692 13.3078 9.29809 13.3078C10.4494 13.3078 11.5055 13.4337 12.4663 13.6855C13.4273 13.9375 14.383 14.2959 15.3333 14.7608C15.7778 14.9856 16.1331 15.3003 16.3991 15.7048C16.6651 16.1093 16.7981 16.5692 16.7981 17.0845V17.3078C16.7981 18.4123 15.9027 19.3078 14.7981 19.3078H3.79834ZM20.5 19.3078C19.56 19.3078 18.7981 18.5458 18.7981 17.6059V16.9615C18.7981 16.3052 18.6374 15.6796 18.3161 15.0848C17.9946 14.4901 17.5386 13.9798 16.9481 13.554C17.6186 13.654 18.2552 13.8088 18.8578 14.0183C19.4603 14.2279 20.0353 14.4757 20.5828 14.7615C21.0995 15.0372 21.4985 15.3621 21.7798 15.7363C22.0612 16.1103 22.2018 16.5187 22.2018 16.9615V17.6059C22.2018 18.5458 21.4399 19.3078 20.5 19.3078ZM9.29809 11.6923C8.33559 11.6923 7.51167 11.3496 6.82634 10.6643C6.14101 9.97876 5.79834 9.15476 5.79834 8.19226C5.79834 7.22976 6.14101 6.40584 6.82634 5.72051C7.51167 5.03501 8.33559 4.69226 9.29809 4.69226C10.2606 4.69226 11.0846 5.03501 11.7701 5.72051C12.4554 6.40584 12.7981 7.22976 12.7981 8.19226C12.7981 9.15476 12.4554 9.97876 11.7701 10.6643C11.0846 11.3496 10.2606 11.6923 9.29809 11.6923ZM17.9326 8.19226C17.9326 9.15476 17.5899 9.97876 16.9046 10.6643C16.2193 11.3496 15.3953 11.6923 14.4328 11.6923C14.32 11.6923 14.1764 11.6794 14.0021 11.6538C13.8276 11.6281 13.684 11.5999 13.5713 11.5693C13.9657 11.0951 14.2688 10.5691 14.4806 9.99126C14.6923 9.41343 14.7981 8.81343 14.7981 8.19126C14.7981 7.56893 14.6901 6.97118 14.4741 6.39801C14.2581 5.82501 13.9572 5.29751 13.5713 4.81551C13.7148 4.76418 13.8584 4.73084 14.0021 4.71551C14.1456 4.70001 14.2892 4.69226 14.4328 4.69226C15.3953 4.69226 16.2193 5.03501 16.9046 5.72051C17.5899 6.40584 17.9326 7.22976 17.9326 8.19226Z" />
</g>
</svg>
