<svg width="24" height="24" viewBox="0 0 24 24" fill="currentColor" xmlns="http://www.w3.org/2000/svg">
<mask id="mask0_129_2789" style="mask-type:alpha" maskUnits="userSpaceOnUse" x="0" y="0" width="24" height="24">
<rect width="24" height="24" />
</mask>
<g mask="url(#mask0_129_2789)">
<path d="M12 11.6923C11.0375 11.6923 10.2136 11.3496 9.52825 10.6643C8.84275 9.97876 8.5 9.15476 8.5 8.19226C8.5 7.22976 8.84275 6.40584 9.52825 5.72051C10.2136 5.03501 11.0375 4.69226 12 4.69226C12.9625 4.69226 13.7864 5.03501 14.4718 5.72051C15.1573 6.40584 15.5 7.22976 15.5 8.19226C15.5 9.15476 15.1573 9.97876 14.4718 10.6643C13.7864 11.3496 12.9625 11.6923 12 11.6923ZM6.5 19.3078C5.39543 19.3078 4.5 18.4123 4.5 17.3078V17.0845C4.5 16.5948 4.633 16.1413 4.899 15.724C5.165 15.3067 5.5205 14.9858 5.9655 14.7615C6.95383 14.277 7.95092 13.9136 8.95675 13.6713C9.96258 13.4289 10.977 13.3078 12 13.3078C13.023 13.3078 14.0374 13.4289 15.0433 13.6713C16.0491 13.9136 17.0462 14.277 18.0345 14.7615C18.4795 14.9858 18.835 15.3067 19.101 15.724C19.367 16.1413 19.5 16.5948 19.5 17.0845V17.3078C19.5 18.4123 18.6046 19.3078 17.5 19.3078H6.5Z" />
</g>
</svg>
