<svg width="24" height="24" viewBox="0 0 24 24" fill="currentColor" xmlns="http://www.w3.org/2000/svg">
<mask id="mask0_455_4372" style="mask-type:alpha" maskUnits="userSpaceOnUse" x="0" y="0" width="24" height="24">
<rect width="24" height="24" />
</mask>
<g mask="url(#mask0_455_4372)">
<path d="M10.575 21.5C10.0707 21.5 9.64532 21.1245 9.58277 20.624L9.3115 18.4538C9.04367 18.3641 8.769 18.2385 8.4875 18.077C8.20617 17.9153 7.95459 17.7422 7.73275 17.5577L5.72543 18.406C5.26056 18.6025 4.72215 18.4218 4.46996 17.9846L3.04531 15.515C2.79322 15.078 2.9061 14.5217 3.30857 14.2175L5.04425 12.9058C5.02125 12.7571 5.00492 12.6077 4.99525 12.4578C4.98559 12.3078 4.98075 12.1583 4.98075 12.0095C4.98075 11.8673 4.98559 11.7228 4.99525 11.576C5.00492 11.4292 5.02125 11.2686 5.04425 11.0943L3.31006 9.78361C2.90695 9.47896 2.79444 8.92147 3.04784 8.48432L4.47002 6.03087C4.72241 5.59546 5.25906 5.41546 5.72295 5.61061L7.723 6.452C7.96417 6.261 8.22159 6.08633 8.49525 5.928C8.76892 5.76967 9.03784 5.64242 9.302 5.54625L9.58042 3.37293C9.64436 2.87385 10.0692 2.5 10.5723 2.5H13.4246C13.9291 2.5 14.3546 2.87575 14.4169 3.37635L14.6885 5.55575C14.9885 5.66475 15.2599 5.792 15.5028 5.9375C15.7458 6.083 15.991 6.2545 16.2385 6.452L18.2794 5.60504C18.7425 5.41284 19.2764 5.59335 19.5278 6.02716L20.9521 8.48425C21.2055 8.92143 21.093 9.47896 20.6898 9.7836L18.9173 11.123C18.9531 11.2845 18.9727 11.4355 18.976 11.576C18.9792 11.7163 18.9808 11.8577 18.9808 12C18.9808 12.1358 18.9775 12.274 18.971 12.4145C18.9647 12.5548 18.9417 12.7154 18.902 12.8963L20.6553 14.2177C21.0586 14.5217 21.1719 15.0786 20.9196 15.516L19.497 17.9818C19.2441 18.4202 18.7035 18.6005 18.2381 18.4018L16.2385 17.548C15.991 17.7455 15.7384 17.9202 15.4808 18.072C15.2231 18.224 14.959 18.3481 14.6885 18.4443L14.4169 20.6236C14.3546 21.1242 13.9291 21.5 13.4246 21.5H10.575ZM12.0115 15C12.8435 15 13.5515 14.708 14.1355 14.124C14.7195 13.54 15.0115 12.832 15.0115 12C15.0115 11.168 14.7195 10.46 14.1355 9.876C13.5515 9.292 12.8435 9 12.0115 9C11.1692 9 10.4586 9.292 9.87975 9.876C9.30092 10.46 9.0115 11.168 9.0115 12C9.0115 12.832 9.30092 13.54 9.87975 14.124C10.4586 14.708 11.1692 15 12.0115 15Z" />
</g>
</svg>
