<svg width="24" height="24" viewBox="0 0 24 24" fill="currentColor" xmlns="http://www.w3.org/2000/svg">
<mask id="mask0_1381_13976" style="mask-type:alpha" maskUnits="userSpaceOnUse" x="0" y="0" width="24" height="24">
<rect width="24" height="24" fill="#D9D9D9"/>
</mask>
<g mask="url(#mask0_1381_13976)">
<path d="M6.26925 3.90405H16.173V15.9038L9.5385 22.5001L8.6925 21.6538C8.5885 21.55 8.50225 21.4125 8.43375 21.2413C8.36508 21.0701 8.33075 20.909 8.33075 20.7578V20.5038L9.3925 15.9038H3.30775C2.83208 15.9038 2.41192 15.7215 2.04725 15.3568C1.68242 14.992 1.5 14.5718 1.5 14.0963V12.4808C1.5 12.377 1.51092 12.2648 1.53275 12.1443C1.55458 12.0238 1.58725 11.9116 1.63075 11.8078L4.49625 5.0463C4.63975 4.7258 4.88008 4.4553 5.21725 4.2348C5.55442 4.0143 5.90508 3.90405 6.26925 3.90405ZM17.673 15.9038V3.90405H21.5V15.9038H17.673Z" />
</g>
</svg>
