<svg width="24" height="24" viewBox="0 0 24 24" fill="currentColor" xmlns="http://www.w3.org/2000/svg">
<mask id="mask0_1381_13977" style="mask-type:alpha" maskUnits="userSpaceOnUse" x="0" y="0" width="24" height="24">
<rect width="24" height="24" fill="#D9D9D9"/>
</mask>
<g mask="url(#mask0_1381_13977)">
<path d="M17.7308 20.5001H7.827V8.50005L14.4615 1.90405L15.3075 2.75005C15.4115 2.85389 15.4978 2.99139 15.5663 3.16255C15.6349 3.33372 15.6693 3.49497 15.6693 3.6463V3.90005L14.6075 8.50005H20.6923C21.1679 8.50005 21.5881 8.68247 21.9527 9.0473C22.3176 9.41197 22.5 9.83214 22.5 10.3078V11.9231C22.5 12.0269 22.4891 12.1391 22.4673 12.2596C22.4454 12.3801 22.4128 12.4923 22.3693 12.5963L19.5038 19.3578C19.3603 19.6783 19.1199 19.9488 18.7828 20.1693C18.4456 20.3898 18.0949 20.5001 17.7308 20.5001ZM6.327 8.50005V20.5001H2.5V8.50005H6.327Z" />
</g>
</svg>
