<svg width="24" height="24" viewBox="0 0 24 24" fill="#fff" xmlns="http://www.w3.org/2000/svg">
<path d="M7.83333 2H5.33333C4.44928 2 3.60143 2.35119 2.97631 2.97631C2.35119 3.60143 2 4.44928 2 5.33333L2 7.83333C2 8.71738 2.35119 9.56523 2.97631 10.1904C3.60143 10.8155 4.44928 11.1667 5.33333 11.1667H7.83333C8.71738 11.1667 9.56523 10.8155 10.1904 10.1904C10.8155 9.56523 11.1667 8.71738 11.1667 7.83333V5.33333C11.1667 4.44928 10.8155 3.60143 10.1904 2.97631C9.56523 2.35119 8.71738 2 7.83333 2V2ZM9.5 7.83333C9.5 8.27536 9.3244 8.69928 9.01184 9.01184C8.69928 9.3244 8.27536 9.5 7.83333 9.5H5.33333C4.8913 9.5 4.46738 9.3244 4.15482 9.01184C3.84226 8.69928 3.66667 8.27536 3.66667 7.83333V5.33333C3.66667 4.8913 3.84226 4.46738 4.15482 4.15482C4.46738 3.84226 4.8913 3.66667 5.33333 3.66667H7.83333C8.27536 3.66667 8.69928 3.84226 9.01184 4.15482C9.3244 4.46738 9.5 4.8913 9.5 5.33333V7.83333Z" />
<path d="M7.83333 12.834H5.33333C4.44928 12.834 3.60143 13.1852 2.97631 13.8103C2.35119 14.4354 2 15.2833 2 16.1673L2 18.6673C2 19.5514 2.35119 20.3992 2.97631 21.0243C3.60143 21.6495 4.44928 22.0007 5.33333 22.0007H7.83333C8.71738 22.0007 9.56523 21.6495 10.1904 21.0243C10.8155 20.3992 11.1667 19.5514 11.1667 18.6673V16.1673C11.1667 15.2833 10.8155 14.4354 10.1904 13.8103C9.56523 13.1852 8.71738 12.834 7.83333 12.834ZM9.5 18.6673C9.5 19.1094 9.3244 19.5333 9.01184 19.8458C8.69928 20.1584 8.27536 20.334 7.83333 20.334H5.33333C4.8913 20.334 4.46738 20.1584 4.15482 19.8458C3.84226 19.5333 3.66667 19.1094 3.66667 18.6673V16.1673C3.66667 15.7253 3.84226 15.3014 4.15482 14.9888C4.46738 14.6762 4.8913 14.5007 5.33333 14.5007H7.83333C8.27536 14.5007 8.69928 14.6762 9.01184 14.9888C9.3244 15.3014 9.5 15.7253 9.5 16.1673V18.6673Z" />
<path d="M18.6673 12.834H16.1673C15.2833 12.834 14.4354 13.1852 13.8103 13.8103C13.1852 14.4354 12.834 15.2833 12.834 16.1673V18.6673C12.834 19.5514 13.1852 20.3992 13.8103 21.0243C14.4354 21.6495 15.2833 22.0007 16.1673 22.0007H18.6673C19.5514 22.0007 20.3992 21.6495 21.0243 21.0243C21.6494 20.3992 22.0006 19.5514 22.0006 18.6673V16.1673C22.0006 15.2833 21.6494 14.4354 21.0243 13.8103C20.3992 13.1852 19.5514 12.834 18.6673 12.834ZM20.334 18.6673C20.334 19.1094 20.1584 19.5333 19.8458 19.8458C19.5333 20.1584 19.1093 20.334 18.6673 20.334H16.1673C15.7253 20.334 15.3014 20.1584 14.9888 19.8458C14.6762 19.5333 14.5006 19.1094 14.5006 18.6673V16.1673C14.5006 15.7253 14.6762 15.3014 14.9888 14.9888C15.3014 14.6762 15.7253 14.5007 16.1673 14.5007H18.6673C19.1093 14.5007 19.5333 14.6762 19.8458 14.9888C20.1584 15.3014 20.334 15.7253 20.334 16.1673V18.6673Z" />
<path d="M13.6673 7.83398H16.1673V10.334C16.1673 10.555 16.2551 10.767 16.4114 10.9232C16.5677 11.0795 16.7796 11.1673 17.0006 11.1673C17.2217 11.1673 17.4336 11.0795 17.5899 10.9232C17.7462 10.767 17.834 10.555 17.834 10.334V7.83398H20.334C20.555 7.83398 20.767 7.74618 20.9232 7.5899C21.0795 7.43362 21.1673 7.22166 21.1673 7.00065C21.1673 6.77963 21.0795 6.56767 20.9232 6.41139C20.767 6.25511 20.555 6.16732 20.334 6.16732H17.834V3.66732C17.834 3.4463 17.7462 3.23434 17.5899 3.07806C17.4336 2.92178 17.2217 2.83398 17.0006 2.83398C16.7796 2.83398 16.5677 2.92178 16.4114 3.07806C16.2551 3.23434 16.1673 3.4463 16.1673 3.66732V6.16732H13.6673C13.4463 6.16732 13.2343 6.25511 13.0781 6.41139C12.9218 6.56767 12.834 6.77963 12.834 7.00065C12.834 7.22166 12.9218 7.43362 13.0781 7.5899C13.2343 7.74618 13.4463 7.83398 13.6673 7.83398Z" />
</svg>
