<svg width="24" height="24" viewBox="0 0 24 24" fill="#CFCFCF" xmlns="http://www.w3.org/2000/svg">
<g clip-path="url(#clip0_1862_2016)">
<path d="M19 20H5C3.6744 19.9984 2.40356 19.4711 1.46622 18.5338C0.528882 17.5964 0.00158786 16.3256 0 15L0 9C0.00158786 7.6744 0.528882 6.40356 1.46622 5.46622C2.40356 4.52888 3.6744 4.00159 5 4H7.09852C7.66172 4 8.18765 3.71853 8.50005 3.24993V3.24993C8.8124 2.7814 9.3382 2.49994 9.9013 2.49985L12 2.49951H14.0985C14.6617 2.49951 15.1876 2.78098 15.5 3.24959V3.24959C15.8124 3.71811 16.3382 3.99957 16.9013 3.99966L19 4C20.3256 4.00159 21.5964 4.52888 22.5338 5.46622C23.4711 6.40356 23.9984 7.6744 24 9V15C23.9984 16.3256 23.4711 17.5964 22.5338 18.5338C21.5964 19.4711 20.3256 19.9984 19 20ZM5 6C4.20435 6 3.44129 6.31607 2.87868 6.87868C2.31607 7.44129 2 8.20435 2 9V15C2 15.7956 2.31607 16.5587 2.87868 17.1213C3.44129 17.6839 4.20435 18 5 18H19C19.7956 18 20.5587 17.6839 21.1213 17.1213C21.6839 16.5587 22 15.7956 22 15V9C22 8.20435 21.6839 7.44129 21.1213 6.87868C20.5587 6.31607 19.7956 6 19 6H16.4016C15.8383 6 15.3124 5.71846 15 5.24976V5.24976C14.6876 4.78106 14.1617 4.49951 13.5984 4.49951H10.4015C9.83828 4.49951 9.31236 4.78098 8.99996 5.24957V5.24957C8.68761 5.7181 8.16179 5.99956 7.59869 5.99964L5 6Z" />
<path fill-rule="evenodd" clip-rule="evenodd" d="M12 9.74976C10.7574 9.74976 9.75 10.7571 9.75 11.9998C9.75 13.2424 10.7574 14.2498 12 14.2498C13.2426 14.2498 14.25 13.2424 14.25 11.9998C14.25 10.7571 13.2426 9.74976 12 9.74976ZM8.25 11.9998C8.25 9.92869 9.92893 8.24976 12 8.24976C14.0711 8.24976 15.75 9.92869 15.75 11.9998C15.75 14.0708 14.0711 15.7498 12 15.7498C9.92893 15.7498 8.25 14.0708 8.25 11.9998Z" />
</g>
</svg>
