<svg width="16" height="16" viewBox="0 0 16 16" fill="white" xmlns="http://www.w3.org/2000/svg">
<path d="M14.7299 4.5668C14.5549 4.4208 14.3424 4.32691 14.1167 4.29584C13.8909 4.26477 13.661 4.29777 13.4531 4.39108L10.5648 5.67481L8.87277 2.62903C8.76688 2.43839 8.61192 2.27954 8.42397 2.16893C8.23602 2.05833 8.02191 2.00001 7.80383 2C7.58576 1.99999 7.37164 2.05831 7.18369 2.1689C6.99573 2.27949 6.84077 2.43833 6.73486 2.62897L5.04278 5.67481L2.15392 4.39078C1.94588 4.29835 1.71616 4.26582 1.49064 4.29687C1.26511 4.32791 1.05273 4.4213 0.877405 4.56651C0.702079 4.71172 0.570768 4.90299 0.498258 5.11879C0.425748 5.33458 0.414916 5.56634 0.466982 5.78796L2.02268 12.4116C2.06093 12.5719 2.13108 12.7228 2.22893 12.8554C2.32678 12.9879 2.45034 13.0994 2.59222 13.1832C2.73411 13.267 2.89142 13.3213 3.05477 13.343C3.21812 13.3647 3.38416 13.3532 3.54297 13.3093C6.33042 12.5398 9.2742 12.5395 12.0618 13.3085C12.2206 13.3528 12.3866 13.3646 12.5501 13.3431C12.7135 13.3217 12.8709 13.2674 13.0129 13.1837C13.1548 13.0999 13.2784 12.9883 13.3761 12.8555C13.4739 12.7228 13.5438 12.5717 13.5817 12.4113L15.1401 5.78855C15.1931 5.56692 15.1827 5.33486 15.1102 5.11884C15.0377 4.90281 14.9059 4.71153 14.7299 4.5668Z" />
</svg>
