<svg width="16" height="16" viewBox="0 0 16 16" fill="none" xmlns="http://www.w3.org/2000/svg">
<path d="M14.4497 4.70985C14.282 4.56993 14.0784 4.47995 13.862 4.45018C13.6457 4.4204 13.4253 4.45203 13.2261 4.54145L10.4582 5.77169L8.83661 2.85282C8.73513 2.67012 8.58663 2.51789 8.40651 2.41189C8.22639 2.3059 8.0212 2.25001 7.81221 2.25C7.60322 2.24999 7.39803 2.30588 7.2179 2.41186C7.03778 2.51784 6.88927 2.67007 6.78778 2.85276L5.16621 5.77169L2.39771 4.54116C2.19834 4.45258 1.97819 4.42141 1.76206 4.45117C1.54594 4.48092 1.3424 4.57041 1.17438 4.70957C1.00636 4.84873 0.880523 5.03203 0.811034 5.23884C0.741545 5.44564 0.731165 5.66774 0.781062 5.88012L2.27194 12.2278C2.3086 12.3814 2.37582 12.526 2.46959 12.6531C2.56337 12.7801 2.68178 12.887 2.81775 12.9673C2.95373 13.0475 3.10448 13.0996 3.26103 13.1204C3.41757 13.1411 3.57669 13.1302 3.72889 13.0881C6.40019 12.3507 9.22132 12.3504 11.8928 13.0873C12.0449 13.1298 12.2041 13.1411 12.3607 13.1205C12.5173 13.1 12.6682 13.048 12.8042 12.9677C12.9402 12.8874 13.0586 12.7804 13.1523 12.6532C13.246 12.526 13.313 12.3812 13.3493 12.2275L14.8428 5.8807C14.8936 5.6683 14.8837 5.44591 14.8142 5.23889C14.7446 5.03186 14.6183 4.84855 14.4497 4.70985ZM3.64094 11.9062L3.64082 11.9057L3.64099 11.9063L3.64094 11.9062ZM12.036 11.6695C9.26534 10.948 6.35606 10.9482 3.58555 11.6703L2.25792 6.01797L4.79101 7.14378C5.05837 7.26408 5.36124 7.27925 5.63929 7.18627C5.91734 7.0933 6.15016 6.899 6.29139 6.64207L7.81219 3.90453L9.33311 6.64219C9.47431 6.89912 9.70713 7.09342 9.98518 7.18638C10.2632 7.27934 10.5661 7.26413 10.8334 7.14378L13.3658 6.01826L12.036 11.6695Z" fill="white"/>
</svg>
