<svg width="25" height="24" viewBox="0 0 25 24" fill="#424242" xmlns="http://www.w3.org/2000/svg">
<path d="M15.0692 2.80925L12.8652 5.6626L13.8295 7.0204L16.3089 3.77348L18.7884 7.0204L22.606 8.31916L20.1659 11.8022L20.2446 15.5805L16.3089 14.4785V16.1118L19.8313 17.0957C20.0937 17.135 20.238 17.1547 20.2643 17.1547C20.6841 17.1547 21.0514 16.9973 21.3663 16.6824C21.6811 16.3676 21.832 15.9806 21.8189 15.5214L21.7401 12.2942L23.9047 9.22437C24.0097 9.08006 24.0851 8.92919 24.131 8.77177C24.177 8.61434 24.1999 8.45691 24.1999 8.29949C24.1999 7.9584 24.1015 7.64682 23.9047 7.36477C23.708 7.08271 23.439 6.88921 23.0979 6.78426L19.7526 5.6626L17.5487 2.80925C17.3912 2.59934 17.2043 2.4452 16.9878 2.34681C16.7714 2.24841 16.5451 2.19922 16.3089 2.19922C16.0728 2.19922 15.8465 2.24841 15.63 2.34681C15.4136 2.4452 15.2266 2.59934 15.0692 2.80925Z" />
<path d="M5.77393 6.87277L8.48327 3.36514C8.67679 3.10711 8.9066 2.91762 9.1727 2.79666C9.43879 2.67571 9.71698 2.61523 10.0073 2.61523C10.2976 2.61523 10.5757 2.67571 10.8418 2.79666C11.1079 2.91762 11.3377 3.10711 11.5313 3.36514L14.2406 6.87277L18.353 8.25163C18.7723 8.38065 19.1029 8.61852 19.3448 8.96525C19.5867 9.31198 19.7077 9.695 19.7077 10.1143C19.7077 10.3078 19.6795 10.5014 19.623 10.6949C19.5666 10.8884 19.4738 11.0739 19.3448 11.2513L16.6839 15.025L16.7806 18.9922C16.7967 19.5567 16.6113 20.0324 16.2242 20.4195C15.8372 20.8065 15.3856 21 14.8696 21C14.8373 21 14.6599 20.9759 14.3374 20.9275L10.0073 19.7179L5.67716 20.9275C5.59653 20.9597 5.50783 20.9799 5.41107 20.9879C5.31431 20.996 5.22561 21 5.14497 21C4.62891 21 4.17735 20.8065 3.7903 20.4195C3.40325 20.0324 3.21779 19.5567 3.23392 18.9922L3.33068 15.0008L0.693913 11.2513C0.564897 11.0739 0.472166 10.8884 0.415722 10.6949C0.359277 10.5014 0.331055 10.3078 0.331055 10.1143C0.331055 9.71113 0.447976 9.33617 0.681818 8.98944C0.915659 8.64271 1.24223 8.39677 1.66153 8.25163L5.77393 6.87277ZM6.95926 8.54192L2.2663 10.0901L5.26592 14.4202L5.16916 19.0406L10.0073 17.7101L14.8454 19.0648L14.7486 14.4202L17.7482 10.1385L13.0553 8.54192L10.0073 4.55048L6.95926 8.54192Z" />
</svg>
