<svg width="16" height="16" viewBox="0 0 16 16" fill="none" xmlns="http://www.w3.org/2000/svg">
<g clip-path="url(#clip0_2452_5719)">
<path d="M8.00044 2.99976C7.81099 2.99976 7.62931 3.07501 7.49535 3.20897C7.36139 3.34293 7.28613 3.52461 7.28613 3.71406V9.42847C7.28613 9.61792 7.36139 9.7996 7.49535 9.93356C7.62931 10.0675 7.81099 10.1428 8.00044 10.1428C8.18988 10.1428 8.37157 10.0675 8.50553 9.93356C8.63949 9.7996 8.71474 9.61792 8.71474 9.42847V3.71406C8.71474 3.52461 8.63949 3.34293 8.50553 3.20897C8.37157 3.07501 8.18988 2.99976 8.00044 2.99976Z" fill="#FE9E2A"/>
<path d="M8.71474 12.2854C8.71474 11.8909 8.39494 11.571 8.00044 11.571C7.60594 11.571 7.28613 11.8909 7.28613 12.2854C7.28613 12.6799 7.60594 12.9997 8.00044 12.9997C8.39494 12.9997 8.71474 12.6799 8.71474 12.2854Z" fill="#FE9E2A"/>
<path d="M8 0C6.41775 0 4.87103 0.469192 3.55544 1.34824C2.23985 2.22729 1.21447 3.47672 0.608967 4.93853C0.00346629 6.40034 -0.15496 8.00887 0.153721 9.56072C0.462403 11.1126 1.22433 12.538 2.34315 13.6569C3.46197 14.7757 4.88743 15.5376 6.43928 15.8463C7.99113 16.155 9.59966 15.9965 11.0615 15.391C12.5233 14.7855 13.7727 13.7602 14.6518 12.4446C15.5308 11.129 16 9.58225 16 8C15.9977 5.87897 15.1541 3.84547 13.6543 2.34568C12.1545 0.845885 10.121 0.00229405 8 0V0ZM8 14.6667C6.68146 14.6667 5.39253 14.2757 4.2962 13.5431C3.19987 12.8106 2.34539 11.7694 1.84081 10.5512C1.33622 9.33305 1.2042 7.9926 1.46143 6.6994C1.71867 5.40619 2.35361 4.2183 3.28596 3.28595C4.21831 2.3536 5.40619 1.71867 6.6994 1.46143C7.99261 1.2042 9.33305 1.33622 10.5512 1.8408C11.7694 2.34539 12.8106 3.19987 13.5431 4.2962C14.2757 5.39253 14.6667 6.68146 14.6667 8C14.6647 9.76751 13.9617 11.4621 12.7119 12.7119C11.4621 13.9617 9.76752 14.6647 8 14.6667Z" fill="#FE9E2A"/>
</g>
<defs>
<clipPath id="clip0_2452_5719">
<rect width="16" height="16" rx="8" fill="white"/>
</clipPath>
</defs>
</svg>
