<svg width="16" height="16" viewBox="0 0 16 16" fill="white" xmlns="http://www.w3.org/2000/svg">
<path d="M14.7798 4.77795C15.0082 4.81175 15.2115 4.9393 15.3346 5.12756C15.4577 5.31582 15.4966 5.54547 15.4373 5.76704L13.7224 12.1671C13.6356 12.491 13.3426 12.7321 12.9999 12.7499L11.8859 12.8168C10.6605 12.8903 9.43381 12.6621 8.3188 12.1533L8.11488 12.0621C7.56903 11.8154 7.06533 11.4794 6.61399 11.0845C5.74935 10.323 4.63251 9.92331 3.48672 9.97252L3.37254 10.3986L2.82451 12.4439L2.73423 12.849C2.67258 13.0791 2.53027 13.2693 2.32496 13.3879C2.12194 13.4979 1.88377 13.5345 1.65368 13.4729C1.42358 13.4112 1.23336 13.2689 1.11483 13.0636C1.00482 12.8606 0.968165 12.6224 1.02982 12.3923L1.49336 10.6623L2.00074 8.87104L3.3617 3.79188C3.39242 3.67722 3.41864 3.56136 3.44485 3.44549C3.49073 3.24272 3.53661 3.03995 3.60664 2.84365C3.68762 2.6096 3.79874 2.36535 3.99613 2.20817C4.04392 2.16617 4.09795 2.13497 4.1605 2.10607C4.46905 1.97589 4.83883 1.99498 5.17861 2.01252C5.24709 2.01606 5.31435 2.01953 5.37965 2.02171C6.1923 2.05678 7.0054 2.19245 7.78258 2.42809C8.55748 2.67226 9.30726 3.01017 9.99783 3.43269C10.9383 4.0135 11.9869 4.39497 13.0802 4.54177L14.7798 4.77795Z" />
</svg>
