<svg width="20" height="20" viewBox="0 0 20 20" fill="#000" xmlns="http://www.w3.org/2000/svg">
<g clip-path="url(#clip0_2537_11825)">
<path d="M18.3803 4.35803L12.2353 1.43053C10.8826 0.622561 9.19904 0.608225 7.83279 1.39303L1.61865 4.35803C1.59533 4.36971 1.57115 4.38221 1.54865 4.39553C0.0739614 5.23873 -0.437992 7.11776 0.405211 8.59244C0.691032 9.09237 1.11146 9.50198 1.61865 9.77471L3.33283 10.5914V14.6747C3.33384 16.5006 4.52193 18.1137 6.26533 18.6564C7.47857 19.0074 8.73658 19.1792 9.99951 19.1664C11.2622 19.1805 12.5202 19.0101 13.7337 18.6606C15.4771 18.118 16.6652 16.5048 16.6662 14.6789V10.5897L18.3329 9.79303V16.6663C18.3329 17.1266 18.706 17.4997 19.1662 17.4997C19.6264 17.4997 19.9995 17.1266 19.9995 16.6663V6.66635C20.0051 5.6878 19.2324 4.78381 18.3803 4.35803ZM14.9995 14.6789C14.9999 15.771 14.2913 16.7371 13.2495 17.0647C12.193 17.3666 11.0982 17.5131 9.99947 17.4997C8.90076 17.5131 7.80595 17.3666 6.74947 17.0647C5.70763 16.7371 4.99904 15.771 4.99947 14.6789V11.3856L7.76365 12.7022C8.44568 13.1072 9.22462 13.3201 10.0178 13.3181C10.7728 13.3234 11.5151 13.1235 12.1653 12.7397L14.9995 11.3855V14.6789ZM17.6661 8.27053L11.3811 11.2705C10.5048 11.7808 9.41861 11.7663 8.55615 11.233L2.40697 8.30803C1.72154 7.93842 1.46552 7.08315 1.83513 6.39776C1.96013 6.16596 2.14755 5.97381 2.37615 5.84303L8.62197 2.85971C9.49857 2.35057 10.5842 2.36498 11.447 2.89721L17.592 5.82471C18.0439 6.07565 18.3266 6.54951 18.3328 7.06639C18.3336 7.556 18.0815 8.01131 17.6661 8.27053Z" />
</g>
</svg>
