<svg width="20" height="20" viewBox="0 0 20 20" fill="#000" xmlns="http://www.w3.org/2000/svg">
<path d="M17.4993 10.3532V9.1665C17.4993 7.17738 16.7091 5.26973 15.3026 3.8632C13.896 2.45668 11.9884 1.6665 9.99927 1.6665C8.01014 1.6665 6.10249 2.45668 4.69597 3.8632C3.28944 5.26973 2.49927 7.17738 2.49927 9.1665V10.3532C1.62523 10.738 0.909934 11.4115 0.473118 12.2607C0.0363026 13.11 -0.0955154 14.0835 0.0997317 15.0184C0.294979 15.9532 0.80544 16.7926 1.54566 17.396C2.28588 17.9995 3.21092 18.3303 4.16593 18.3332C4.60796 18.3332 5.03188 18.1576 5.34444 17.845C5.65701 17.5325 5.8326 17.1085 5.8326 16.6665V11.6665C5.8326 11.2245 5.65701 10.8006 5.34444 10.488C5.03188 10.1754 4.60796 9.99984 4.16593 9.99984V9.1665C4.16593 7.61941 4.78052 6.13568 5.87448 5.04171C6.96844 3.94775 8.45217 3.33317 9.99927 3.33317C11.5464 3.33317 13.0301 3.94775 14.1241 5.04171C15.218 6.13568 15.8326 7.61941 15.8326 9.1665V9.99984C15.3906 9.99984 14.9667 10.1754 14.6541 10.488C14.3415 10.8006 14.1659 11.2245 14.1659 11.6665V16.6665H11.6659C11.4449 16.6665 11.233 16.7543 11.0767 16.9106C10.9204 17.0669 10.8326 17.2788 10.8326 17.4998C10.8326 17.7208 10.9204 17.9328 11.0767 18.0891C11.233 18.2454 11.4449 18.3332 11.6659 18.3332H15.8326C16.7876 18.3303 17.7127 17.9995 18.4529 17.396C19.1931 16.7926 19.7036 15.9532 19.8988 15.0184C20.094 14.0835 19.9622 13.11 19.5254 12.2607C19.0886 11.4115 18.3733 10.738 17.4993 10.3532ZM4.16593 16.6665C3.50289 16.6665 2.86701 16.4031 2.39817 15.9343C1.92933 15.4654 1.66593 14.8295 1.66593 14.1665C1.66593 13.5035 1.92933 12.8676 2.39817 12.3987C2.86701 11.9299 3.50289 11.6665 4.16593 11.6665V16.6665ZM15.8326 16.6665V11.6665C16.4956 11.6665 17.1315 11.9299 17.6004 12.3987C18.0692 12.8676 18.3326 13.5035 18.3326 14.1665C18.3326 14.8295 18.0692 15.4654 17.6004 15.9343C17.1315 16.4031 16.4956 16.6665 15.8326 16.6665Z"/>
</svg>
