<svg width="20" height="20" viewBox="0 0 20 20" fill="#212121"  xmlns="http://www.w3.org/2000/svg">
<path d="M15.8327 7.02V5.83333C15.8327 4.28624 15.2181 2.80251 14.1241 1.70854C13.0302 0.614582 11.5464 0 9.99935 0C8.45225 0 6.96852 0.614582 5.87456 1.70854C4.7806 2.80251 4.16602 4.28624 4.16602 5.83333V7.02C3.42382 7.34392 2.79209 7.8771 2.3481 8.55434C1.9041 9.23158 1.66708 10.0235 1.66602 10.8333V15.8333C1.66734 16.938 2.10675 17.997 2.88787 18.7782C3.66898 19.5593 4.72802 19.9987 5.83268 20H14.166C15.2707 19.9987 16.3297 19.5593 17.1108 18.7782C17.8919 17.997 18.3314 16.938 18.3327 15.8333V10.8333C18.3316 10.0235 18.0946 9.23158 17.6506 8.55434C17.2066 7.8771 16.5749 7.34392 15.8327 7.02ZM5.83268 5.83333C5.83268 4.72826 6.27167 3.66846 7.05307 2.88705C7.83447 2.10565 8.89428 1.66667 9.99935 1.66667C11.1044 1.66667 12.1642 2.10565 12.9456 2.88705C13.727 3.66846 14.166 4.72826 14.166 5.83333V6.66667H5.83268V5.83333ZM16.666 15.8333C16.666 16.4964 16.4026 17.1323 15.9338 17.6011C15.4649 18.0699 14.8291 18.3333 14.166 18.3333H5.83268C5.16964 18.3333 4.53376 18.0699 4.06492 17.6011C3.59607 17.1323 3.33268 16.4964 3.33268 15.8333V10.8333C3.33268 10.1703 3.59607 9.53441 4.06492 9.06557C4.53376 8.59672 5.16964 8.33333 5.83268 8.33333H14.166C14.8291 8.33333 15.4649 8.59672 15.9338 9.06557C16.4026 9.53441 16.666 10.1703 16.666 10.8333V15.8333Z" />
<path d="M9.99935 11.6665C9.77834 11.6665 9.56638 11.7543 9.41009 11.9106C9.25381 12.0669 9.16602 12.2788 9.16602 12.4998V14.1665C9.16602 14.3875 9.25381 14.5995 9.41009 14.7558C9.56638 14.912 9.77834 14.9998 9.99935 14.9998C10.2204 14.9998 10.4323 14.912 10.5886 14.7558C10.7449 14.5995 10.8327 14.3875 10.8327 14.1665V12.4998C10.8327 12.2788 10.7449 12.0669 10.5886 11.9106C10.4323 11.7543 10.2204 11.6665 9.99935 11.6665Z" />
</svg>
