<svg width="24" height="24" viewBox="0 0 24 24" fill="#FBBC00" xmlns="http://www.w3.org/2000/svg">
<g clip-path="url(#clip0_2457_6125)">
<path d="M20 7.9999C20.0028 6.70476 19.6912 5.4283 19.0918 4.28019C18.4924 3.13207 17.6233 2.14665 16.559 1.40858C15.4947 0.670504 14.2672 0.201857 12.9818 0.0429034C11.6965 -0.116051 10.3918 0.0394411 9.17976 0.496018C7.96777 0.952595 6.88474 1.6966 6.02374 2.66412C5.16275 3.63163 4.54952 4.79372 4.23676 6.05054C3.92401 7.30735 3.92106 8.62131 4.22819 9.87951C4.53531 11.1377 5.14333 12.3025 5.99998 13.2739V21.4999C5.99997 21.9709 6.13299 22.4322 6.38371 22.8309C6.63444 23.2295 6.99266 23.5493 7.41714 23.7533C7.84162 23.9572 8.31509 24.0372 8.78301 23.9839C9.25093 23.9306 9.69427 23.7462 10.062 23.4519L11.688 22.1519C11.7766 22.0812 11.8866 22.0426 12 22.0426C12.1134 22.0426 12.2234 22.0812 12.312 22.1519L13.938 23.4519C14.3057 23.7462 14.749 23.9306 15.217 23.9839C15.6849 24.0372 16.1583 23.9572 16.5828 23.7533C17.0073 23.5493 17.3655 23.2295 17.6162 22.8309C17.867 22.4322 18 21.9709 18 21.4999V13.2739C19.2883 11.8191 19.9997 9.94314 20 7.9999ZM12 1.9999C13.1867 1.9999 14.3467 2.3518 15.3334 3.01109C16.3201 3.67038 17.0891 4.60745 17.5433 5.7038C17.9974 6.80016 18.1162 8.00656 17.8847 9.17045C17.6532 10.3343 17.0817 11.4034 16.2426 12.2425C15.4035 13.0817 14.3344 13.6531 13.1705 13.8846C12.0066 14.1161 10.8002 13.9973 9.70388 13.5432C8.60752 13.0891 7.67045 12.32 7.01116 11.3333C6.35187 10.3466 5.99998 9.18659 5.99998 7.9999C6.00157 6.40909 6.63422 4.88389 7.75909 3.75902C8.88397 2.63414 10.4092 2.00149 12 1.9999ZM15.717 21.9479C15.6324 21.9898 15.5375 22.0065 15.4436 21.9958C15.3498 21.9852 15.2611 21.9477 15.188 21.8879L13.562 20.5879C13.1194 20.2314 12.5683 20.037 12 20.037C11.4317 20.037 10.8805 20.2314 10.438 20.5879L8.81298 21.8879C8.73961 21.9468 8.6511 21.9838 8.55763 21.9947C8.46417 22.0055 8.36954 21.9898 8.28462 21.9492C8.19971 21.9087 8.12795 21.8451 8.07759 21.7656C8.02724 21.6861 8.00034 21.594 7.99998 21.4999V14.9179C9.21395 15.6265 10.5944 15.9999 12 15.9999C13.4056 15.9999 14.786 15.6265 16 14.9179V21.4999C16.0011 21.5939 15.975 21.6863 15.9247 21.7658C15.8745 21.8453 15.8024 21.9085 15.717 21.9479Z" />
</g>
</svg>
