<svg width="24" height="24" viewBox="0 0 24 24" fill="#374957" xmlns="http://www.w3.org/2000/svg">
<path d="M20.9722 13.3817L19.3891 7.68573C18.925 6.01704 17.9165 4.55133 16.5239 3.5216C15.1312 2.49187 13.4343 1.95721 11.7028 2.00261C9.97142 2.048 8.30485 2.67085 6.96805 3.77214C5.63125 4.87343 4.70093 6.38997 4.32497 8.08069L3.09927 13.5926C2.96389 14.2016 2.96702 14.8333 3.10843 15.4409C3.24985 16.0486 3.52594 16.6168 3.91633 17.1034C4.30672 17.5901 4.80143 17.9829 5.36394 18.2528C5.92645 18.5227 6.5424 18.6628 7.16631 18.6628H8.09453C8.28577 19.6046 8.79673 20.4513 9.54082 21.0595C10.2849 21.6677 11.2164 21.9999 12.1774 21.9999C13.1384 21.9999 14.0699 21.6677 14.814 21.0595C15.5581 20.4513 16.069 19.6046 16.2603 18.6628H16.9585C17.6008 18.6629 18.2344 18.5144 18.8098 18.2291C19.3852 17.9437 19.8868 17.5292 20.2755 17.0179C20.6642 16.5066 20.9294 15.9123 21.0504 15.2816C21.1714 14.6508 21.1441 14.0006 20.9722 13.3817ZM12.1774 20.3293C11.6622 20.3272 11.1603 20.1659 10.7403 19.8676C10.3203 19.5693 10.0027 19.1485 9.831 18.6628H14.5238C14.3521 19.1485 14.0345 19.5693 13.6145 19.8676C13.1945 20.1659 12.6926 20.3272 12.1774 20.3293ZM18.9483 16.0089C18.7161 16.317 18.4153 16.5666 18.0697 16.738C17.7242 16.9094 17.3434 16.9979 16.9577 16.9963H7.16631C6.792 16.9963 6.42249 16.9121 6.08505 16.7502C5.7476 16.5882 5.45084 16.3525 5.21667 16.0605C4.98249 15.7685 4.81688 15.4277 4.73205 15.0631C4.64723 14.6985 4.64536 14.3196 4.72659 13.9542L5.95145 8.44148C6.24671 7.11347 6.97742 5.92227 8.02742 5.05724C9.07743 4.19221 10.3865 3.703 11.7464 3.66737C13.1064 3.63175 14.4392 4.05175 15.5331 4.86062C16.627 5.66948 17.419 6.82079 17.7834 8.13152L19.3666 13.8275C19.4712 14.1986 19.4878 14.589 19.4152 14.9677C19.3426 15.3463 19.1827 15.7029 18.9483 16.0089Z" />
</svg>
