<svg width="24" height="24" viewBox="0 0 24 24" fill="#424242" xmlns="http://www.w3.org/2000/svg">
<circle cx="18.5" cy="4.5" r="3.5" fill="#EA271D"/>
<path d="M12.1813 20.3318C11.6613 20.3318 11.1613 20.1718 10.7413 19.8718C10.3213 19.5718 10.0013 19.1518 9.83128 18.6718H14.5213C14.3513 19.1618 14.0313 19.5818 13.6113 19.8718C13.1913 20.1618 12.6913 20.3318 12.1713 20.3318H12.1813ZM19.3713 13.8318C19.4713 14.2018 19.4913 14.5918 19.4213 14.9718C19.3513 15.3518 19.1913 15.7118 18.9513 16.0118C18.7213 16.3218 18.4213 16.5718 18.0713 16.7418C17.7213 16.9118 17.3413 17.0018 16.9613 17.0018H7.17128C6.80128 17.0018 6.43128 16.9218 6.09128 16.7518C5.75128 16.5918 5.46128 16.3518 5.22128 16.0618C4.99128 15.7718 4.82128 15.4318 4.74128 15.0618C4.66128 14.7018 4.65128 14.3218 4.74128 13.9518L5.96128 8.44176C6.26128 7.11176 6.99128 5.92176 8.04128 5.06176C9.09128 4.19176 10.4013 3.71176 11.7613 3.67176C12.5313 3.65176 13.3013 3.78176 14.0113 4.04176C14.0113 4.04176 14.2713 2.59176 14.5313 2.46176C13.6313 2.13176 12.6713 1.98176 11.7013 2.00176C9.97128 2.05176 8.30128 2.67176 6.97128 3.77176C5.63128 4.87176 4.70128 6.39176 4.33128 8.08176L3.10128 13.5918C2.96128 14.2018 2.97128 14.8318 3.10128 15.4418C3.24128 16.0518 3.52128 16.6218 3.91128 17.1018C4.30128 17.5918 4.80128 17.9818 5.36128 18.2518C5.92128 18.5218 6.54128 18.6618 7.16128 18.6618H8.09128C8.28128 19.6018 8.79128 20.4518 9.54128 21.0618C10.2813 21.6718 11.2213 22.0018 12.1813 22.0018C13.1413 22.0018 14.0713 21.6718 14.8213 21.0618C15.5613 20.4518 16.0813 19.6118 16.2713 18.6618H16.9713C17.6113 18.6618 18.2513 18.5118 18.8213 18.2318C19.4013 17.9418 19.9013 17.5318 20.2913 17.0218C20.6813 16.5118 20.9413 15.9118 21.0613 15.2818C21.1813 14.6518 21.1513 14.0018 20.9813 13.3818L19.7213 8.85176V8.82176C19.7213 8.82176 18.9613 9.09176 18.0113 8.96176" />
</svg>
