<svg width="20" height="20" viewBox="0 0 20 20" fill="#000" xmlns="http://www.w3.org/2000/svg">
<g clip-path="url(#clip0_2592_8889)">
<path d="M19.0442 0.956689C18.4776 0.39102 17.7098 0.0733032 16.9092 0.0733032C16.1086 0.0733032 15.3407 0.39102 14.7742 0.956689L1.22085 14.51C0.832722 14.896 0.524981 15.355 0.315428 15.8607C0.105874 16.3663 -0.00133165 16.9085 1.24844e-05 17.4559V19.1667C1.24844e-05 19.3877 0.0878099 19.5997 0.24409 19.7559C0.40037 19.9122 0.612332 20 0.833346 20H2.54418C3.09148 20.0016 3.63365 19.8945 4.13931 19.6851C4.64496 19.4757 5.10406 19.1681 5.49001 18.78L19.0442 5.22586C19.6096 4.65935 19.9271 3.89166 19.9271 3.09127C19.9271 2.29088 19.6096 1.52319 19.0442 0.956689ZM4.31168 17.6017C3.84168 18.0686 3.20665 18.3314 2.54418 18.3334H1.66668V17.4559C1.66584 17.1274 1.73014 16.8021 1.85588 16.4987C1.98161 16.1953 2.16628 15.9199 2.39918 15.6884L12.685 5.40252L14.6017 7.31919L4.31168 17.6017ZM17.865 4.04752L15.7767 6.13669L13.86 4.22419L15.9492 2.13502C16.075 2.00945 16.2244 1.90989 16.3887 1.84203C16.553 1.77417 16.7291 1.73935 16.9069 1.73954C17.0847 1.73973 17.2607 1.77494 17.4249 1.84316C17.5891 1.91137 17.7382 2.01126 17.8638 2.13711C17.9893 2.26296 18.0889 2.41231 18.1568 2.57663C18.2246 2.74096 18.2594 2.91704 18.2592 3.09483C18.2591 3.27261 18.2238 3.44862 18.1556 3.6128C18.0874 3.77698 17.9875 3.92611 17.8617 4.05169L17.865 4.04752Z" />
</g>
</svg>
