<svg width="24" height="24" viewBox="0 0 24 24" fill="#374957" xmlns="http://www.w3.org/2000/svg">
<path d="M12.5 12C13.4889 12 14.4556 11.7068 15.2779 11.1573C16.1001 10.6079 16.741 9.82705 17.1194 8.91342C17.4978 7.99979 17.5969 6.99446 17.4039 6.02455C17.211 5.05465 16.7348 4.16373 16.0355 3.46447C15.3363 2.76521 14.4454 2.289 13.4755 2.09608C12.5055 1.90315 11.5002 2.00217 10.5866 2.3806C9.67295 2.75904 8.89206 3.3999 8.34265 4.22215C7.79324 5.0444 7.5 6.0111 7.5 7C7.50132 8.32568 8.02853 9.59668 8.96593 10.5341C9.90332 11.4715 11.1743 11.9987 12.5 12ZM12.5 3.66667C13.1593 3.66667 13.8037 3.86217 14.3519 4.22844C14.9001 4.59471 15.3273 5.1153 15.5796 5.72439C15.8319 6.33348 15.8979 7.0037 15.7693 7.6503C15.6407 8.29691 15.3232 8.89085 14.857 9.35702C14.3908 9.8232 13.7969 10.1407 13.1503 10.2693C12.5037 10.3979 11.8335 10.3319 11.2244 10.0796C10.6153 9.82731 10.0947 9.40007 9.72843 8.8519C9.36216 8.30374 9.16667 7.65927 9.16667 7C9.16667 6.11595 9.51786 5.2681 10.143 4.64298C10.7681 4.01786 11.6159 3.66667 12.5 3.66667Z" />
<path d="M12.5 13.6667C10.5116 13.6689 8.60518 14.4598 7.19914 15.8658C5.79309 17.2719 5.00221 19.1782 5 21.1667C5 21.3877 5.0878 21.5997 5.24408 21.7559C5.40036 21.9122 5.61232 22 5.83333 22C6.05435 22 6.26631 21.9122 6.42259 21.7559C6.57887 21.5997 6.66667 21.3877 6.66667 21.1667C6.66667 19.6196 7.28125 18.1359 8.37521 17.0419C9.46917 15.9479 10.9529 15.3334 12.5 15.3334C14.0471 15.3334 15.5308 15.9479 16.6248 17.0419C17.7188 18.1359 18.3333 19.6196 18.3333 21.1667C18.3333 21.3877 18.4211 21.5997 18.5774 21.7559C18.7337 21.9122 18.9457 22 19.1667 22C19.3877 22 19.5996 21.9122 19.7559 21.7559C19.9122 21.5997 20 21.3877 20 21.1667C19.9978 19.1782 19.2069 17.2719 17.8009 15.8658C16.3948 14.4598 14.4884 13.6689 12.5 13.6667Z" />
</svg>
