<svg width="24" height="24" viewBox="0 0 24 24"  xmlns="http://www.w3.org/2000/svg">
<path d="M20.8006 3.6952C18.8222 1.71687 15.8681 2.19936 11.9981 5.11186C8.12889 2.19936 5.17556 1.71603 3.19556 3.6952C1.21556 5.67436 1.69972 8.62769 4.61222 12.4977C1.69972 16.3668 1.21639 19.321 3.19556 21.3002C3.56664 21.685 4.01255 21.9897 4.50585 22.1956C4.99914 22.4016 5.52937 22.5044 6.06389 22.4977C7.70639 22.4977 9.68972 21.621 11.9981 19.8843C14.3056 21.621 16.2889 22.4977 17.9322 22.4977C18.4667 22.5044 18.997 22.4016 19.4903 22.1956C19.9836 21.9897 20.4295 21.685 20.8006 21.3002C22.7797 19.321 22.3006 16.3677 19.3839 12.4977C22.2964 8.62769 22.7797 5.67436 20.8006 3.6952ZM17.9022 4.1877C18.2207 4.17811 18.5378 4.2337 18.834 4.35106C19.1302 4.46843 19.3993 4.64509 19.6247 4.87019C21.0797 6.32603 20.0047 8.79769 18.3014 11.1527C17.6031 10.3294 16.8164 9.47352 15.9197 8.57602C15.0231 7.67852 14.1647 6.89186 13.3414 6.19269C14.9231 5.04853 16.5581 4.1877 17.9022 4.1877ZM17.2572 12.4977C16.4147 13.5144 15.5222 14.4652 14.7439 15.2477C13.9656 16.0302 13.0147 16.9143 11.9981 17.7568C10.9814 16.9143 10.0306 16.0218 9.25222 15.2477C8.47389 14.4735 7.58139 13.5144 6.73889 12.4977C7.58139 11.481 8.47389 10.5294 9.25222 9.75186C10.0306 8.97436 10.9814 8.08102 11.9981 7.23769C13.0147 8.07936 13.9656 8.97352 14.7481 9.75186C15.5306 10.5302 16.4147 11.481 17.2572 12.4977ZM4.37139 4.87103C4.59661 4.64553 4.86565 4.46856 5.1619 4.35103C5.45814 4.23351 5.77533 4.17792 6.09389 4.1877C7.43806 4.1877 9.07306 5.04853 10.6547 6.19269C9.83139 6.89186 8.97472 7.67852 8.07639 8.57602C7.17806 9.47352 6.39306 10.326 5.69389 11.1527C3.99139 8.79769 2.91472 6.32603 4.37139 4.87103ZM4.37139 20.121C2.91639 18.666 3.99139 16.1935 5.69389 13.8394C6.39306 14.6627 7.17972 15.5185 8.07639 16.416C8.97306 17.3135 9.82639 18.1018 10.6506 18.8002C8.29639 20.5052 5.82472 21.581 4.37139 20.1243V20.121ZM19.6214 20.121C18.1672 21.5743 15.6964 20.5018 13.3422 18.8002C14.1639 18.1018 15.0206 17.311 15.9164 16.416C16.8122 15.521 17.5997 14.666 18.2981 13.8394C20.0047 16.1977 21.0814 18.6693 19.6247 20.1243L19.6214 20.121Z" />
<path d="M11.6667 13.8333C12.5871 13.8333 13.3333 13.0871 13.3333 12.1667C13.3333 11.2462 12.5871 10.5 11.6667 10.5C10.7462 10.5 10 11.2462 10 12.1667C10 13.0871 10.7462 13.8333 11.6667 13.8333Z" />
</svg>