<svg width="16" height="16" viewBox="0 0 16 16" fill="#868686" xmlns="http://www.w3.org/2000/svg">
<path d="M8 16C6.41775 16 4.87103 15.5308 3.55544 14.6518C2.23985 13.7727 1.21447 12.5233 0.608967 11.0615C0.00346629 9.59966 -0.15496 7.99113 0.153721 6.43928C0.462403 4.88743 1.22433 3.46197 2.34315 2.34315C3.46197 1.22433 4.88743 0.462403 6.43928 0.153721C7.99113 -0.15496 9.59966 0.00346629 11.0615 0.608967C12.5233 1.21447 13.7727 2.23985 14.6518 3.55544C15.5308 4.87103 16 6.41775 16 8C15.9977 10.121 15.1541 12.1545 13.6543 13.6543C12.1545 15.1541 10.121 15.9977 8 16V16ZM8 1.33334C6.68146 1.33334 5.39253 1.72433 4.2962 2.45687C3.19987 3.18942 2.34539 4.23061 1.84081 5.44878C1.33622 6.66695 1.2042 8.0074 1.46144 9.30061C1.71867 10.5938 2.35361 11.7817 3.28596 12.714C4.21831 13.6464 5.4062 14.2813 6.6994 14.5386C7.99261 14.7958 9.33305 14.6638 10.5512 14.1592C11.7694 13.6546 12.8106 12.8001 13.5431 11.7038C14.2757 10.6075 14.6667 9.31855 14.6667 8C14.6647 6.23249 13.9617 4.53792 12.7119 3.2881C11.4621 2.03828 9.76752 1.33528 8 1.33334V1.33334Z" />
<path d="M8.66633 9.99977H7.333V9.50443C7.32316 9.03405 7.43938 8.5696 7.66962 8.1593C7.89986 7.74899 8.23572 7.40779 8.64233 7.1711C8.88865 7.03544 9.08577 6.82537 9.2055 6.57093C9.32524 6.31649 9.36146 6.0307 9.309 5.75443C9.25705 5.49124 9.12783 5.2495 8.93783 5.06009C8.74784 4.87069 8.5057 4.74222 8.24234 4.6911C8.05015 4.65553 7.85249 4.66264 7.66336 4.71194C7.47423 4.76124 7.29825 4.85152 7.14788 4.97638C6.99752 5.10124 6.87644 5.25763 6.79322 5.43448C6.71001 5.61133 6.66669 5.80432 6.66634 5.99977H5.33301C5.33317 5.52944 5.45773 5.06752 5.69404 4.66087C5.93036 4.25422 6.27002 3.9173 6.67857 3.68429C7.08712 3.45128 7.55004 3.33048 8.02035 3.33413C8.49067 3.33777 8.95165 3.46575 9.35654 3.70506C9.76143 3.94438 10.0958 4.28652 10.3258 4.69679C10.5558 5.10706 10.6732 5.57086 10.666 6.04113C10.6589 6.51141 10.5275 6.97143 10.2852 7.37454C10.0429 7.77765 9.69829 8.1095 9.28633 8.33643C9.0895 8.4595 8.92855 8.63225 8.81971 8.8373C8.71087 9.04234 8.65797 9.27244 8.66633 9.50443V9.99977Z" />
<path d="M8.66635 11.3331H7.33301V12.6665H8.66635V11.3331Z" />
</svg>
