<svg width="24" height="24" viewBox="0 0 24 24" fill="none" xmlns="http://www.w3.org/2000/svg">
<path fill-rule="evenodd" clip-rule="evenodd" d="M1 3C1 2.44772 1.44772 2 2 2H22C22.5523 2 23 2.44772 23 3C23 3.55228 22.5523 4 22 4H2C1.44772 4 1 3.55228 1 3Z" />
<path fill-rule="evenodd" clip-rule="evenodd" d="M1 9C1 8.44772 1.44772 8 2 8H18C18.5523 8 19 8.44772 19 9C19 9.55228 18.5523 10 18 10H2C1.44772 10 1 9.55228 1 9Z" />
<path fill-rule="evenodd" clip-rule="evenodd" d="M1 15C1 14.4477 1.44772 14 2 14H10C10.5523 14 11 14.4477 11 15C11 15.5523 10.5523 16 10 16H2C1.44772 16 1 15.5523 1 15Z" />
<path fill-rule="evenodd" clip-rule="evenodd" d="M23 23.9998C23.2652 23.9998 23.5195 23.8944 23.707 23.707C23.8945 23.5194 23.9998 23.2651 23.9998 23C23.9998 22.7348 23.8945 22.4805 23.707 22.293L21.3 19.886C21.755 19.1732 21.9978 18.3456 22 17.5C22 16.61 21.7361 15.7399 21.2416 14.9999C20.7472 14.2599 20.0444 13.6831 19.2221 13.3425C18.6764 13.1165 18.0944 13.0012 17.5095 13H17.4905C17.2003 13.0006 16.9095 13.0293 16.6221 13.0865C15.7492 13.2601 14.9474 13.6887 14.318 14.318C13.6887 14.9473 13.2601 15.7492 13.0865 16.6221C12.9128 17.495 13.0019 18.3998 13.3425 19.2221C13.6831 20.0443 14.2599 20.7471 14.9999 21.2416C15.74 21.7361 16.61 22 17.5 22C18.3456 21.9977 19.1732 21.7549 19.886 21.3L22.293 23.707C22.4805 23.8944 22.7349 23.9998 23 23.9998ZM18.8889 19.5787C18.4778 19.8534 17.9945 20 17.5 20C16.837 20 16.2011 19.7366 15.7322 19.2677C15.2634 18.7989 15 18.163 15 17.5C15 17.0055 15.1466 16.5222 15.4213 16.1111C15.696 15.6999 16.0865 15.3795 16.5433 15.1903C17.0001 15.0011 17.5028 14.9516 17.9877 15.048C18.4727 15.1445 18.9181 15.3826 19.2678 15.7322C19.6174 16.0819 19.8555 16.5273 19.952 17.0123C20.0484 17.4972 19.9989 17.9999 19.8097 18.4567C19.6205 18.9135 19.3001 19.304 18.8889 19.5787Z" />
</svg>
