<svg width="24" height="24" viewBox="0 0 24 24" xmlns="http://www.w3.org/2000/svg">
<path d="M21.0695 5.88626L14.9463 1.75395C14.2239 1.26269 13.3705 1 12.497 1C11.6234 1 10.77 1.26269 10.0477 1.75395L3.92445 5.88626C3.3315 6.28705 2.84597 6.82722 2.51044 7.45939C2.17491 8.09156 1.99964 8.7964 2 9.51209V17.6263C2.00139 18.7858 2.46264 19.8975 3.28257 20.7174C4.10251 21.5374 5.21418 21.9986 6.37374 22H18.6202C19.7798 21.9986 20.8915 21.5374 21.7114 20.7174C22.5313 19.8975 22.9926 18.7858 22.994 17.6263V9.51209C22.9943 8.7964 22.819 8.09156 22.4835 7.45939C22.148 6.82722 21.6625 6.28705 21.0695 5.88626ZM21.2445 17.6263C21.2445 18.3223 20.968 18.9897 20.4758 19.4819C19.9837 19.974 19.3162 20.2505 18.6202 20.2505H6.37374C5.67775 20.2505 5.01026 19.974 4.51812 19.4819C4.02598 18.9897 3.7495 18.3223 3.7495 17.6263V9.51209C3.74947 9.08252 3.8549 8.65951 4.05653 8.2802C4.25816 7.90089 4.54982 7.57687 4.90591 7.3366L11.0292 3.20429C11.4621 2.91013 11.9735 2.75285 12.497 2.75285C13.0204 2.75285 13.5318 2.91013 13.9648 3.20429L20.088 7.3366C20.4441 7.57687 20.7358 7.90089 20.9374 8.2802C21.1391 8.65951 21.2445 9.08252 21.2445 9.51209V17.6263ZM12.497 7.13453C11.458 7.1344 10.4423 7.44265 9.57868 8.02023C8.71502 8.59781 8.04222 9.41873 7.64551 10.379C7.24879 11.3393 7.14601 12.3957 7.35018 13.4144C7.55436 14.4331 8.0563 15.3683 8.79242 16.1016L10.388 17.6621C10.9533 18.2096 11.7095 18.5158 12.4965 18.5158C13.2836 18.5158 14.0397 18.2096 14.6051 17.6621L16.2085 16.0946C16.9427 15.3606 17.4426 14.4253 17.6452 13.4071C17.8478 12.3889 17.7438 11.3335 17.3465 10.3744C16.9492 9.41531 16.2764 8.59556 15.4132 8.01886C14.55 7.44216 13.5351 7.13441 12.497 7.13453ZM14.9778 14.8507L13.3813 16.4121C13.1441 16.6419 12.8268 16.7703 12.4965 16.7703C12.1663 16.7703 11.849 16.6419 11.6117 16.4121L10.0223 14.8577C9.53329 14.3686 9.20017 13.7456 9.06502 13.0673C8.92987 12.3891 8.99876 11.686 9.26298 11.0468C9.5272 10.4077 9.97491 9.86117 10.5496 9.47633C11.1242 9.09149 11.8 8.88558 12.4916 8.8846C13.1832 8.88363 13.8596 9.08763 14.4353 9.47085C15.0111 9.85406 15.4603 10.3993 15.7263 11.0377C15.9924 11.6761 16.0632 12.379 15.93 13.0577C15.7968 13.7363 15.4654 14.3603 14.9778 14.8507ZM13.3717 12.3778C13.3717 12.5508 13.3204 12.7199 13.2243 12.8638C13.1282 13.0076 12.9916 13.1197 12.8317 13.1859C12.6719 13.2521 12.496 13.2695 12.3263 13.2357C12.1566 13.202 12.0008 13.1186 11.8784 12.9963C11.7561 12.874 11.6728 12.7181 11.639 12.5484C11.6053 12.3787 11.6226 12.2029 11.6888 12.043C11.755 11.8832 11.8671 11.7466 12.011 11.6504C12.1548 11.5543 12.324 11.503 12.497 11.503C12.729 11.503 12.9515 11.5952 13.1155 11.7592C13.2796 11.9233 13.3717 12.1458 13.3717 12.3778Z" />
</svg>
