<svg width="24" height="24" viewBox="0 0 24 24" xmlns="http://www.w3.org/2000/svg">
<path d="M21.1116 15.6667C20.8318 14.8417 20.3007 14.1248 19.593 13.6167C18.8852 13.1086 18.0362 12.8347 17.165 12.8334H13.8316V11.9301C15.0678 11.7211 16.1804 11.0554 16.9488 10.0648C17.7173 9.07428 18.0856 7.83118 17.9808 6.58187C17.8759 5.33256 17.3056 4.16823 16.3828 3.3196C15.46 2.47098 14.252 2 12.9983 2C11.7446 2 10.5367 2.47098 9.61383 3.3196C8.69101 4.16823 8.12066 5.33256 8.01582 6.58187C7.91098 7.83118 8.27929 9.07428 9.04777 10.0648C9.81625 11.0554 10.9288 11.7211 12.165 11.9301V12.8334H8.83164C7.96038 12.8347 7.11138 13.1086 6.40362 13.6167C5.69586 14.1248 5.16484 14.8417 4.88497 15.6667C4.17005 16.0116 3.60167 16.6003 3.28209 17.3269C2.96252 18.0535 2.91272 18.8703 3.14165 19.6304C3.37059 20.3904 3.86324 21.0438 4.53096 21.473C5.19869 21.9022 5.99766 22.079 6.78413 21.9717C7.57061 21.8643 8.29297 21.4798 8.82124 20.8874C9.34952 20.2949 9.64904 19.5334 9.66592 18.7398C9.68279 17.9462 9.41592 17.1727 8.91331 16.5583C8.4107 15.9439 7.70534 15.5291 6.92414 15.3884C7.15841 15.1106 7.45044 14.8872 7.77988 14.7338C8.10931 14.5804 8.46823 14.5006 8.83164 14.5001H12.165V15.4392C11.3794 15.6421 10.6948 16.1244 10.2395 16.7959C9.78413 17.4674 9.58931 18.2819 9.69154 19.0867C9.79377 19.8916 10.186 20.6315 10.7948 21.1678C11.4035 21.7042 12.187 22.0001 12.9983 22.0001C13.8096 22.0001 14.5931 21.7042 15.2018 21.1678C15.8106 20.6315 16.2028 19.8916 16.3051 19.0867C16.4073 18.2819 16.2125 17.4674 15.7571 16.7959C15.3018 16.1244 14.6172 15.6421 13.8316 15.4392V14.5001H17.165C17.5282 14.5003 17.887 14.5797 18.2164 14.7326C18.5458 14.8856 18.838 15.1085 19.0725 15.3859C18.2913 15.5266 17.5859 15.9414 17.0833 16.5558C16.5807 17.1702 16.3138 17.9437 16.3307 18.7373C16.3476 19.5309 16.6471 20.2924 17.1754 20.8849C17.7036 21.4773 18.426 21.8618 19.2125 21.9692C19.999 22.0765 20.7979 21.8997 21.4656 21.4705C22.1334 21.0413 22.626 20.3879 22.855 19.6279C23.0839 18.8678 23.0341 18.051 22.7145 17.3244C22.3949 16.5978 21.8266 16.0091 21.1116 15.6642V15.6667ZM9.66497 7.00007C9.66497 6.3408 9.86047 5.69633 10.2267 5.14817C10.593 4.6 11.1136 4.17276 11.7227 3.92047C12.3318 3.66818 13.002 3.60216 13.6486 3.73078C14.2952 3.8594 14.8892 4.17687 15.3553 4.64304C15.8215 5.10922 16.139 5.70316 16.2676 6.34977C16.3962 6.99637 16.3302 7.66659 16.0779 8.27568C15.8256 8.88476 15.3984 9.40536 14.8502 9.77163C14.302 10.1379 13.6576 10.3334 12.9983 10.3334C12.1143 10.3334 11.2664 9.98221 10.6413 9.35709C10.0162 8.73197 9.66497 7.88412 9.66497 7.00007ZM7.9983 18.6667C7.9983 18.9964 7.90056 19.3186 7.71742 19.5927C7.53429 19.8668 7.27399 20.0804 6.96944 20.2065C6.6649 20.3327 6.32979 20.3657 6.00649 20.3014C5.68319 20.2371 5.38621 20.0783 5.15313 19.8452C4.92004 19.6122 4.7613 19.3152 4.697 18.9919C4.63269 18.6686 4.66569 18.3335 4.79184 18.0289C4.91798 17.7244 5.13161 17.4641 5.40569 17.281C5.67977 17.0978 6.002 17.0001 6.33164 17.0001C6.77367 17.0001 7.19759 17.1757 7.51015 17.4882C7.82271 17.8008 7.9983 18.2247 7.9983 18.6667ZM14.665 18.6667C14.665 18.9964 14.5672 19.3186 14.3841 19.5927C14.201 19.8668 13.9407 20.0804 13.6361 20.2065C13.3316 20.3327 12.9965 20.3657 12.6732 20.3014C12.3499 20.2371 12.0529 20.0783 11.8198 19.8452C11.5867 19.6122 11.428 19.3152 11.3637 18.9919C11.2994 18.6686 11.3324 18.3335 11.4585 18.0289C11.5847 17.7244 11.7983 17.4641 12.0724 17.281C12.3464 17.0978 12.6687 17.0001 12.9983 17.0001C13.4403 17.0001 13.8643 17.1757 14.1768 17.4882C14.4894 17.8008 14.665 18.2247 14.665 18.6667ZM19.665 20.3334C19.3353 20.3334 19.0131 20.2357 18.739 20.0525C18.4649 19.8694 18.2513 19.6091 18.1252 19.3045C17.999 19 17.966 18.6649 18.0303 18.3416C18.0946 18.0183 18.2534 17.7213 18.4865 17.4882C18.7195 17.2551 19.0165 17.0964 19.3398 17.0321C19.6631 16.9678 19.9982 17.0008 20.3028 17.1269C20.6073 17.2531 20.8676 17.4667 21.0508 17.7408C21.2339 18.0149 21.3316 18.3371 21.3316 18.6667C21.3316 19.1088 21.156 19.5327 20.8435 19.8452C20.5309 20.1578 20.107 20.3334 19.665 20.3334Z" />
</svg>
