<svg width="20" height="20" viewBox="0 0 20 20" fill="currentColor" xmlns="http://www.w3.org/2000/svg">
<mask id="mask0_129_4969" style="mask-type:alpha" maskUnits="userSpaceOnUse" x="-2" y="-2" width="24" height="24">
<rect x="-2" y="-2" width="24" height="24" />
</mask>
<g mask="url(#mask0_129_4969)">
<path d="M6.92378 14.1471C6.62965 14.4411 6.15321 14.4418 5.85818 14.1488C5.56187 13.8545 5.56082 13.3755 5.85583 13.0799L8.92954 10L5.85861 6.94418C5.56237 6.64939 5.56259 6.16983 5.85911 5.87532C6.15362 5.5828 6.62923 5.58353 6.92285 5.87694L10 8.952L13.0532 5.87972C13.346 5.58507 13.8222 5.58351 14.1169 5.87624C14.4129 6.17025 14.4131 6.64898 14.1174 6.94325L11.0455 10L14.1202 13.0808C14.4147 13.3759 14.4136 13.854 14.1178 14.1478C13.8226 14.4411 13.3455 14.4395 13.0522 14.1444L10 11.073L6.92378 14.1471Z" />
</g>
</svg>
