<svg width="20" height="20" viewBox="0 0 20 20" fill="#334155" xmlns="http://www.w3.org/2000/svg">
<mask id="mask0_129_4969" style="mask-type:alpha" maskUnits="userSpaceOnUse" x="0" y="0" width="20" height="20">
<rect width="20" height="20" fill="#D9D9D9"/>
</mask>
<g mask="url(#mask0_129_4969)">
<path d="M6.59375 14.4688C6.30035 14.7622 5.82465 14.7622 5.53125 14.4688C5.23785 14.1753 5.23785 13.6997 5.53125 13.4062L8.9375 10L5.53125 6.59375C5.23785 6.30035 5.23785 5.82465 5.53125 5.53125C5.82465 5.23785 6.30035 5.23785 6.59375 5.53125L10 8.9375L13.4062 5.53125C13.6997 5.23785 14.1753 5.23785 14.4688 5.53125C14.7622 5.82465 14.7622 6.30035 14.4688 6.59375L11.0625 10L14.4688 13.4062C14.7622 13.6997 14.7622 14.1753 14.4688 14.4688C14.1753 14.7622 13.6997 14.7622 13.4062 14.4688L10 11.0625L6.59375 14.4688Z" />
</g>
</svg>
