<svg width="24" height="24" viewBox="0 0 24 24" fill="currentColor" xmlns="http://www.w3.org/2000/svg">
<mask id="mask0_129_2847" style="mask-type:alpha" maskUnits="userSpaceOnUse" x="0" y="0" width="24" height="24">
<rect width="24" height="24" />
</mask>
<g mask="url(#mask0_129_2847)">
<path d="M6.92682 18.1269C6.63583 18.4179 6.16405 18.4179 5.87307 18.1269C5.58208 17.8359 5.58208 17.3641 5.87307 17.0731L10.9462 12L5.87307 6.92688C5.58208 6.63589 5.58208 6.16411 5.87307 5.87313C6.16405 5.58214 6.63583 5.58214 6.92682 5.87313L11.9999 10.9463L17.0731 5.87313C17.3641 5.58214 17.8358 5.58214 18.1268 5.87313C18.4178 6.16411 18.4178 6.63589 18.1268 6.92688L13.0537 12L18.1268 17.0731C18.4178 17.3641 18.4178 17.8359 18.1268 18.1269C17.8358 18.4179 17.3641 18.4179 17.0731 18.1269L11.9999 13.0538L6.92682 18.1269Z" />
</g>
</svg>
