<svg width="30" height="30" viewBox="0 0 30 30" fill="none" xmlns="http://www.w3.org/2000/svg">
<rect x="1.5" y="1.5" width="27" height="27" rx="13.5" />
<mask id="mask0_773_7076" style="mask-type:alpha" maskUnits="userSpaceOnUse" x="3" y="3" width="24" height="24">
<rect x="3" y="3" width="24" height="24" fill="#FFC957"/>
</mask>
<g mask="url(#mask0_773_7076)">
<path d="M8.71599 21L7.4339 13.6255C7.40252 13.6314 7.36722 13.6368 7.32799 13.6417C7.28876 13.6466 7.25345 13.649 7.22207 13.649C6.87811 13.649 6.58844 13.5302 6.35306 13.2926C6.11769 13.0549 6 12.7663 6 12.4269C6 12.0823 6.11769 11.7895 6.35306 11.5483C6.58844 11.3073 6.87834 11.1867 7.22277 11.1867C7.56705 11.1867 7.8597 11.3073 8.10072 11.5483C8.3419 11.7895 8.46249 12.0823 8.46249 12.4269C8.46249 12.5145 8.4552 12.5959 8.4406 12.671C8.42617 12.746 8.40326 12.8167 8.37187 12.8831L11.3503 14.1468L14.22 10.2307C14.0656 10.1232 13.941 9.98178 13.8462 9.8065C13.7515 9.63123 13.7041 9.44246 13.7041 9.24019C13.7041 8.89576 13.8246 8.60295 14.0656 8.36177C14.3066 8.12059 14.5993 8 14.9438 8C15.2881 8 15.5809 8.12043 15.8224 8.3613C16.0638 8.60201 16.1844 8.89443 16.1844 9.23854C16.1844 9.44489 16.1371 9.63499 16.0423 9.80886C15.9475 9.98256 15.8229 10.1232 15.6685 10.2307L18.5382 14.1468L21.5166 12.8831C21.4925 12.8189 21.4714 12.7482 21.4533 12.671C21.4351 12.594 21.426 12.5126 21.426 12.4269C21.426 12.0823 21.5437 11.7895 21.7791 11.5483C22.0144 11.3073 22.3044 11.1867 22.6488 11.1867C22.9931 11.1867 23.2858 11.3073 23.527 11.5483C23.768 11.7895 23.8885 12.0823 23.8885 12.4269C23.8885 12.7654 23.7678 13.0537 23.5263 13.2919C23.2848 13.53 22.9915 13.649 22.6464 13.649C22.6188 13.649 22.5877 13.6451 22.5532 13.6372C22.5189 13.6294 22.485 13.6255 22.4515 13.6255L21.1725 21H8.71599Z" fill="white"/>
</g>
</svg>
