<svg width="20" height="20" viewBox="0 0 20 20" fill="#334155" xmlns="http://www.w3.org/2000/svg">
<mask id="mask0_129_5314" style="mask-type:alpha" maskUnits="userSpaceOnUse" x="0" y="0" width="20" height="20">
<rect width="20" height="20" fill="#D9D9D9"/>
</mask>
<g mask="url(#mask0_129_5314)">
<path d="M9.99967 13.3335C11.0413 13.3335 11.9268 12.9689 12.6559 12.2397C13.3851 11.5106 13.7497 10.6252 13.7497 9.5835C13.7497 8.54183 13.3851 7.65641 12.6559 6.92725C11.9268 6.19808 11.0413 5.8335 9.99967 5.8335C8.95801 5.8335 8.07259 6.19808 7.34342 6.92725C6.61426 7.65641 6.24967 8.54183 6.24967 9.5835C6.24967 10.6252 6.61426 11.5106 7.34342 12.2397C8.07259 12.9689 8.95801 13.3335 9.99967 13.3335ZM9.99967 11.8335C9.37467 11.8335 8.84342 11.6147 8.40592 11.1772C7.96842 10.7397 7.74967 10.2085 7.74967 9.5835C7.74967 8.9585 7.96842 8.42725 8.40592 7.98975C8.84342 7.55225 9.37467 7.3335 9.99967 7.3335C10.6247 7.3335 11.1559 7.55225 11.5934 7.98975C12.0309 8.42725 12.2497 8.9585 12.2497 9.5835C12.2497 10.2085 12.0309 10.7397 11.5934 11.1772C11.1559 11.6147 10.6247 11.8335 9.99967 11.8335ZM9.99967 15.8335C7.9719 15.8335 6.12467 15.2675 4.45801 14.1356C2.79134 13.0036 1.58301 11.4863 0.833008 9.5835C1.58301 7.68072 2.79134 6.16336 4.45801 5.03141C6.12467 3.89947 7.9719 3.3335 9.99967 3.3335C12.0275 3.3335 13.8747 3.89947 15.5413 5.03141C17.208 6.16336 18.4163 7.68072 19.1663 9.5835C18.4163 11.4863 17.208 13.0036 15.5413 14.1356C13.8747 15.2675 12.0275 15.8335 9.99967 15.8335ZM9.99967 14.1668C11.5691 14.1668 13.0101 13.7536 14.3226 12.9272C15.6351 12.1009 16.6386 10.9863 17.333 9.5835C16.6386 8.18072 15.6351 7.06613 14.3226 6.23975C13.0101 5.41336 11.5691 5.00016 9.99967 5.00016C8.43023 5.00016 6.98926 5.41336 5.67676 6.23975C4.36426 7.06613 3.36079 8.18072 2.66634 9.5835C3.36079 10.9863 4.36426 12.1009 5.67676 12.9272C6.98926 13.7536 8.43023 14.1668 9.99967 14.1668Z" />
</g>
</svg>
