<svg width="24" height="24" viewBox="0 0 24 24" fill="currentColor" xmlns="http://www.w3.org/2000/svg">
<mask id="mask0_415_4151" style="mask-type:alpha" maskUnits="userSpaceOnUse" x="0" y="0" width="24" height="24">
<rect width="24" height="24" />
</mask>
<g mask="url(#mask0_415_4151)">
<path d="M11.0287 17.5C10.6145 17.5 10.2787 17.1642 10.2787 16.75C10.2787 16.3358 10.6145 16 11.0287 16H12.9615C13.3757 16 13.7115 16.3358 13.7115 16.75C13.7115 17.1642 13.3757 17.5 12.9615 17.5H11.0287ZM7.154 12.75C6.73979 12.75 6.404 12.4142 6.404 12C6.404 11.5858 6.73979 11.25 7.154 11.25H16.8365C17.2507 11.25 17.5865 11.5858 17.5865 12C17.5865 12.4142 17.2507 12.75 16.8365 12.75H7.154ZM4.25 8C3.83579 8 3.5 7.66421 3.5 7.25C3.5 6.83579 3.83579 6.5 4.25 6.5H19.75C20.1642 6.5 20.5 6.83579 20.5 7.25C20.5 7.66421 20.1642 8 19.75 8H4.25Z" />
</g>
</svg>
