<svg width="24" height="24" viewBox="0 0 24 24"  xmlns="http://www.w3.org/2000/svg">
<mask id="mask0_129_2816" style="mask-type:alpha" maskUnits="userSpaceOnUse" x="0" y="0" width="24" height="24">
<rect width="24" height="24" />
</mask>
<g mask="url(#mask0_129_2816)">
<path d="M4.24987 17.6345C3.83573 17.6345 3.5 17.2988 3.5 16.8846C3.5 16.4705 3.83573 16.1348 4.24987 16.1348H19.7501C20.1643 16.1348 20.5 16.4705 20.5 16.8846C20.5 17.2988 20.1643 17.6345 19.7501 17.6345H4.24987ZM4.25 12.75C3.83579 12.75 3.5 12.4142 3.5 12C3.5 11.5858 3.83579 11.25 4.25 11.25H19.75C20.1642 11.25 20.5 11.5858 20.5 12C20.5 12.4142 20.1642 12.75 19.75 12.75H4.25ZM4.24987 7.86526C3.83573 7.86526 3.5 7.52953 3.5 7.11538C3.5 6.70124 3.83573 6.36551 4.24987 6.36551H19.7501C20.1643 6.36551 20.5 6.70124 20.5 7.11538C20.5 7.52953 20.1643 7.86526 19.7501 7.86526H4.24987Z" />
</g>
</svg>
