<svg width="24" height="24" viewBox="0 0 24 24" fill="currentColor" xmlns="http://www.w3.org/2000/svg">
<mask id="mask0_129_2777" style="mask-type:alpha" maskUnits="userSpaceOnUse" x="0" y="0" width="24" height="24">
<rect width="24" height="24" />
</mask>
<g mask="url(#mask0_129_2777)">
<path d="M11.25 12.75H6.25C5.83579 12.75 5.5 12.4142 5.5 12C5.5 11.5858 5.83579 11.25 6.25 11.25H11.25V6.25C11.25 5.83579 11.5858 5.5 12 5.5C12.4142 5.5 12.75 5.83579 12.75 6.25V11.25H17.75C18.1642 11.25 18.5 11.5858 18.5 12C18.5 12.4142 18.1642 12.75 17.75 12.75H12.75V17.75C12.75 18.1642 12.4142 18.5 12 18.5C11.5858 18.5 11.25 18.1642 11.25 17.75V12.75Z" />
</g>
</svg>
