<svg width="24" height="24" viewBox="0 0 24 24" fill="#334155" xmlns="http://www.w3.org/2000/svg">
<mask id="mask0_129_2760" style="mask-type:alpha" maskUnits="userSpaceOnUse" x="0" y="0" width="24" height="24">
<rect width="24" height="24" fill="#D9D9D9"/>
</mask>
<g mask="url(#mask0_129_2760)">
<path d="M4.175 18.225C3.475 17.325 2.9375 16.3458 2.5625 15.2875C2.1875 14.2292 2 13.1333 2 12C2 10.8667 2.1875 9.77083 2.5625 8.7125C2.9375 7.65417 3.475 6.675 4.175 5.775C5.14167 6.525 5.9 7.44583 6.45 8.5375C7 9.62917 7.275 10.7833 7.275 12C7.275 13.2167 7 14.3708 6.45 15.4625C5.9 16.5542 5.14167 17.475 4.175 18.225ZM12 22C10.8 22 9.65417 21.8 8.5625 21.4C7.47083 21 6.475 20.4167 5.575 19.65C6.725 18.7 7.625 17.5625 8.275 16.2375C8.925 14.9125 9.25 13.5 9.25 12C9.25 10.5 8.925 9.0875 8.275 7.7625C7.625 6.4375 6.725 5.3 5.575 4.35C6.475 3.58333 7.47083 3 8.5625 2.6C9.65417 2.2 10.8 2 12 2C13.2 2 14.3458 2.2 15.4375 2.6C16.5292 3 17.525 3.58333 18.425 4.35C17.275 5.3 16.375 6.4375 15.725 7.7625C15.075 9.0875 14.75 10.5 14.75 12C14.75 13.5 15.075 14.9125 15.725 16.2375C16.375 17.5625 17.275 18.7 18.425 19.65C17.525 20.4167 16.5292 21 15.4375 21.4C14.3458 21.8 13.2 22 12 22ZM19.825 18.225C18.8583 17.475 18.1 16.5542 17.55 15.4625C17 14.3708 16.725 13.2167 16.725 12C16.725 10.7833 17 9.62917 17.55 8.5375C18.1 7.44583 18.8583 6.525 19.825 5.775C20.525 6.675 21.0625 7.65417 21.4375 8.7125C21.8125 9.77083 22 10.8667 22 12C22 13.1333 21.8125 14.2292 21.4375 15.2875C21.0625 16.3458 20.525 17.325 19.825 18.225Z" />
</g>
</svg>
