<svg width="24" height="24" viewBox="0 0 24 24"  xmlns="http://www.w3.org/2000/svg">
<mask id="mask0_129_2760" style="mask-type:alpha" maskUnits="userSpaceOnUse" x="0" y="0" width="24" height="24">
<rect width="24" height="24" />
</mask>
<g mask="url(#mask0_129_2760)">
<path d="M4.68475 18.0712C3.97825 17.2096 3.4375 16.2601 3.0625 15.2228C2.6875 14.1853 2.5 13.111 2.5 12C2.5 10.889 2.6875 9.81475 3.0625 8.77725C3.4375 7.73992 3.97825 6.79042 4.68475 5.92875C5.63858 6.64675 6.37925 7.54025 6.90675 8.60925C7.43425 9.67808 7.698 10.8082 7.698 11.9995C7.698 13.1908 7.43425 14.3212 6.90675 15.3905C6.37925 16.4597 5.63858 17.3532 4.68475 18.0712ZM12.0003 21.5C10.8321 21.5 9.71658 21.2984 8.65375 20.8953C7.59108 20.4919 6.62892 19.9069 5.76725 19.1402C6.84042 18.2544 7.67792 17.1939 8.27975 15.9587C8.88175 14.7234 9.18275 13.4038 9.18275 12C9.18275 10.5962 8.88175 9.27658 8.27975 8.04125C7.67792 6.80608 6.84042 5.74558 5.76725 4.85975C6.62892 4.09308 7.591 3.50808 8.6535 3.10475C9.71617 2.70158 10.8316 2.5 11.9998 2.5C13.1679 2.5 14.2834 2.70158 15.3462 3.10475C16.4089 3.50808 17.3711 4.09308 18.2327 4.85975C17.1596 5.74558 16.3221 6.80608 15.7203 8.04125C15.1182 9.27658 14.8173 10.5962 14.8173 12C14.8173 13.4038 15.1182 14.7234 15.7203 15.9587C16.3221 17.1939 17.1596 18.2544 18.2327 19.1402C17.3711 19.9069 16.409 20.4919 15.3465 20.8953C14.2838 21.2984 13.1684 21.5 12.0003 21.5ZM19.3153 18.0712C18.3614 17.3532 17.6207 16.4598 17.0932 15.3907C16.5657 14.3219 16.302 13.1918 16.302 12.0005C16.302 10.8092 16.5657 9.67883 17.0932 8.6095C17.6207 7.54033 18.3614 6.64675 19.3153 5.92875C20.0217 6.79042 20.5625 7.73992 20.9375 8.77725C21.3125 9.81475 21.5 10.889 21.5 12C21.5 13.111 21.3125 14.1853 20.9375 15.2228C20.5625 16.2601 20.0217 17.2096 19.3153 18.0712Z" />
</g>
</svg>
