<svg width="24" height="24" viewBox="0 0 24 24"  xmlns="http://www.w3.org/2000/svg">
<mask id="mask0_158_1752" style="mask-type:alpha" maskUnits="userSpaceOnUse" x="0" y="0" width="24" height="24">
<rect width="24" height="24" />
</mask>
<g mask="url(#mask0_158_1752)">
<path d="M2.54053 11.2347C2.60453 10.3526 2.77628 9.51791 3.05578 8.73075C3.33528 7.94358 3.72119 7.21025 4.21353 6.53075C4.81603 7.15008 5.31478 7.87158 5.70978 8.69525C6.10461 9.51891 6.34753 10.3654 6.43853 11.2347H2.54053ZM17.5615 11.2347C17.6525 10.3654 17.8865 9.52791 18.2635 8.72225C18.6404 7.91641 19.148 7.20066 19.7865 6.575C20.2789 7.24416 20.6648 7.97333 20.9443 8.7625C21.2238 9.55166 21.3955 10.3757 21.4595 11.2347H17.5615ZM4.21353 17.425C3.72119 16.7558 3.33853 16.0324 3.06553 15.2547C2.79236 14.4772 2.61736 13.6474 2.54053 12.7652H6.43853C6.34753 13.6346 6.10461 14.4721 5.70978 15.2777C5.31478 16.0836 4.81603 16.7993 4.21353 17.425ZM19.7865 17.425C19.148 16.7993 18.6404 16.0836 18.2635 15.2777C17.8865 14.4721 17.6525 13.6346 17.5615 12.7652H21.4595C21.3955 13.6242 21.2238 14.4483 20.9443 15.2375C20.6648 16.0267 20.2789 16.7558 19.7865 17.425ZM7.96353 11.2347C7.86219 10.0987 7.56928 9.04166 7.08478 8.0635C6.60011 7.08533 5.95711 6.20075 5.15578 5.40975C5.94294 4.59041 6.85544 3.93266 7.89328 3.4365C8.93111 2.94033 10.0449 2.64166 11.2348 2.5405V11.2347H7.96353ZM12.7653 11.2347V2.5405C13.9551 2.64166 15.0689 2.94033 16.1068 3.4365C17.1446 3.93266 18.0571 4.59041 18.8443 5.40975C18.0263 6.17125 17.3791 7.0485 16.9028 8.0415C16.4266 9.03433 16.1379 10.0987 16.0365 11.2347H12.7653ZM11.2348 21.4595C10.0219 21.3583 8.90236 21.0538 7.87603 20.546C6.84969 20.0383 5.94294 19.3749 5.15578 18.5557C5.97378 17.7877 6.62094 16.9162 7.09728 15.9412C7.57344 14.9662 7.86219 13.9076 7.96353 12.7652H11.2348V21.4595ZM12.7653 21.4595V12.7652H16.0365C16.1379 13.9076 16.4266 14.9737 16.9028 15.9635C17.3791 16.9532 18.0263 17.8287 18.8443 18.5902C18.0571 19.4096 17.1446 20.0673 16.1068 20.5635C15.0689 21.0597 13.9551 21.3583 12.7653 21.4595Z" />
</g>
</svg>
