<svg width="24" height="24" viewBox="0 0 24 24" fill="#334155" xmlns="http://www.w3.org/2000/svg">
<mask id="mask0_158_1752" style="mask-type:alpha" maskUnits="userSpaceOnUse" x="0" y="0" width="24" height="24">
<rect width="24" height="24" fill="#D9D9D9"/>
</mask>
<g mask="url(#mask0_158_1752)">
<path d="M2.0498 10.975C2.13314 10.125 2.30814 9.32082 2.5748 8.56249C2.84147 7.80415 3.20814 7.09165 3.6748 6.42499C4.25814 7.02499 4.74564 7.72082 5.1373 8.51249C5.52897 9.30415 5.78314 10.125 5.8998 10.975H2.0498ZM18.0998 10.975C18.2165 10.125 18.4665 9.30832 18.8498 8.52499C19.2331 7.74165 19.7248 7.04999 20.3248 6.44999C20.7915 7.09999 21.1581 7.80832 21.4248 8.57499C21.6915 9.34165 21.8665 10.1417 21.9498 10.975H18.0998ZM3.6748 17.55C3.20814 16.9 2.84147 16.1958 2.5748 15.4375C2.30814 14.6792 2.13314 13.875 2.0498 13.025H5.8998C5.78314 13.875 5.52897 14.6917 5.1373 15.475C4.74564 16.2583 4.25814 16.95 3.6748 17.55ZM20.3248 17.55C19.7248 16.95 19.2331 16.2583 18.8498 15.475C18.4665 14.6917 18.2165 13.875 18.0998 13.025H21.9498C21.8665 13.8583 21.6915 14.6583 21.4248 15.425C21.1581 16.1917 20.7915 16.9 20.3248 17.55ZM7.9248 10.975C7.79147 9.77499 7.46647 8.66665 6.9498 7.64999C6.43314 6.63332 5.75814 5.71665 4.9248 4.89999C5.7248 4.09999 6.6373 3.45832 7.6623 2.97499C8.6873 2.49165 9.79147 2.18332 10.9748 2.04999V10.975H7.9248ZM13.0248 10.975V2.04999C14.2081 2.18332 15.3123 2.49165 16.3373 2.97499C17.3623 3.45832 18.2748 4.09999 19.0748 4.89999C18.2248 5.69999 17.5456 6.61249 17.0373 7.63749C16.529 8.66249 16.2081 9.77499 16.0748 10.975H13.0248ZM10.9748 21.95C9.77481 21.8167 8.66647 21.5042 7.6498 21.0125C6.63314 20.5208 5.7248 19.875 4.9248 19.075C5.7748 18.275 6.45397 17.3667 6.9623 16.35C7.47064 15.3333 7.79147 14.225 7.9248 13.025H10.9748V21.95ZM13.0248 21.95V13.025H16.0748C16.2081 14.225 16.529 15.3375 17.0373 16.3625C17.5456 17.3875 18.2248 18.3 19.0748 19.1C18.2748 19.9 17.3623 20.5417 16.3373 21.025C15.3123 21.5083 14.2081 21.8167 13.0248 21.95Z" />
</g>
</svg>
