<svg width="24" height="24" viewBox="0 0 24 24"  xmlns="http://www.w3.org/2000/svg">
<mask id="mask0_129_2761" style="mask-type:alpha" maskUnits="userSpaceOnUse" x="0" y="0" width="24" height="24">
<rect width="24" height="24" />
</mask>
<g mask="url(#mask0_129_2761)">
<path d="M7.475 20.5C6.09933 20.5 4.92625 20.0148 3.95575 19.0443C2.98525 18.0738 2.5 16.9007 2.5 15.525C2.5 14.2007 2.95192 13.0609 3.85575 12.1058C4.75958 11.1506 5.87367 10.6372 7.198 10.5655C7.26217 10.5655 7.32633 10.5703 7.3905 10.5798C7.4545 10.5894 7.51858 10.6007 7.58275 10.6135L4.64376 4.71524C4.31249 4.05042 4.79602 3.26926 5.5388 3.26926H9.1897C9.56848 3.26926 9.91475 3.48327 10.0841 3.82206L12 7.65401L13.9159 3.82206C14.0852 3.48327 14.4315 3.26926 14.8103 3.26926H18.4603C19.2033 3.26926 19.6868 4.05085 19.3551 4.7157L16.4423 10.554C16.4999 10.5412 16.5592 10.5315 16.6202 10.525C16.6811 10.5187 16.7436 10.5155 16.8077 10.5155C18.1283 10.5975 19.2404 11.1161 20.1443 12.0713C21.0481 13.0263 21.5 14.1692 21.5 15.5C21.5 16.8923 21.0148 18.0738 20.0443 19.0443C19.0737 20.0148 17.8923 20.5 16.5 20.5C16.3308 20.5 16.1574 20.4926 15.9798 20.4778C15.8023 20.4631 15.6321 20.4327 15.4693 20.3865C16.3218 19.9147 16.9567 19.2333 17.374 18.3423C17.7913 17.4513 18 16.5038 18 15.5C18 13.8243 17.4189 12.4054 16.2568 11.2433C15.0946 10.0811 13.6757 9.50001 12 9.50001C10.3243 9.50001 8.90542 10.0811 7.74325 11.2433C6.58108 12.4054 6 13.8243 6 15.5C6 16.5243 6.19008 17.4981 6.57025 18.4213C6.95042 19.3443 7.59883 19.9993 8.5155 20.3865C8.34617 20.4327 8.17433 20.4631 8 20.4778C7.82567 20.4926 7.65067 20.5 7.475 20.5ZM12 20C10.75 20 9.6875 19.5625 8.8125 18.6875C7.9375 17.8125 7.5 16.75 7.5 15.5C7.5 14.25 7.9375 13.1875 8.8125 12.3125C9.6875 11.4375 10.75 11 12 11C13.25 11 14.3125 11.4375 15.1875 12.3125C16.0625 13.1875 16.5 14.25 16.5 15.5C16.5 16.75 16.0625 17.8125 15.1875 18.6875C14.3125 19.5625 13.25 20 12 20ZM10.3847 17.7233C10.3563 17.8161 10.4634 17.8909 10.5407 17.8322L11.9396 16.7709C11.9753 16.7438 12.0247 16.7438 12.0604 16.7709L13.7057 18.0193L13.0845 15.986C13.072 15.9449 13.087 15.9004 13.122 15.8754L14.5155 14.8794C14.5947 14.8228 14.5546 14.698 14.4574 14.698H12.7416C12.6975 14.698 12.6585 14.6691 12.6458 14.6268L12.0958 12.799C12.0672 12.704 11.9328 12.704 11.9042 12.799L11.3542 14.6268C11.3415 14.6691 11.3025 14.698 11.2584 14.698H9.54262C9.44535 14.698 9.40534 14.8228 9.48447 14.8794L10.878 15.8754C10.913 15.9004 10.928 15.9449 10.9155 15.986L10.3847 17.7233Z" />
</g>
</svg>
