<svg width="24" height="24" viewBox="0 0 24 24" fill="#334155" xmlns="http://www.w3.org/2000/svg">
<mask id="mask0_129_2761" style="mask-type:alpha" maskUnits="userSpaceOnUse" x="0" y="0" width="24" height="24">
<rect width="24" height="24" fill="#D9D9D9"/>
</mask>
<g mask="url(#mask0_129_2761)">
<path d="M7.475 21C5.95833 21 4.66667 20.4667 3.6 19.4C2.53333 18.3333 2 17.0417 2 15.525C2 14.0917 2.47917 12.8542 3.4375 11.8125C4.39583 10.7708 5.59167 10.1917 7.025 10.075L3.72081 3.4461C3.38943 2.78128 3.87295 2 4.61579 2H9.38197C9.76074 2 10.107 2.214 10.2764 2.55279L12 6L13.7236 2.55279C13.893 2.214 14.2393 2 14.618 2H19.3842C20.1271 2 20.6106 2.78127 20.2792 3.4461L17 10.025C18.4167 10.1583 19.6042 10.7458 20.5625 11.7875C21.5208 12.8292 22 14.0667 22 15.5C22 17.0333 21.4667 18.3333 20.4 19.4C19.3333 20.4667 18.0333 21 16.5 21C16.35 21 16.1958 20.9958 16.0375 20.9875C15.8792 20.9792 15.725 20.9583 15.575 20.925C16.4917 20.325 17.2083 19.5458 17.725 18.5875C18.2417 17.6292 18.5 16.6 18.5 15.5C18.5 13.6833 17.8708 12.1458 16.6125 10.8875C15.3542 9.62917 13.8167 9 12 9C10.1833 9 8.64583 9.62917 7.3875 10.8875C6.12917 12.1458 5.5 13.6833 5.5 15.5C5.5 16.6333 5.73333 17.7 6.2 18.7C6.66667 19.7 7.4 20.4417 8.4 20.925C8.25 20.9583 8.09583 20.9792 7.9375 20.9875C7.77917 20.9958 7.625 21 7.475 21ZM12 20C10.75 20 9.6875 19.5625 8.8125 18.6875C7.9375 17.8125 7.5 16.75 7.5 15.5C7.5 14.25 7.9375 13.1875 8.8125 12.3125C9.6875 11.4375 10.75 11 12 11C13.25 11 14.3125 11.4375 15.1875 12.3125C16.0625 13.1875 16.5 14.25 16.5 15.5C16.5 16.75 16.0625 17.8125 15.1875 18.6875C14.3125 19.5625 13.25 20 12 20ZM10.3322 17.6578C10.2751 17.8434 10.4892 17.9933 10.6441 17.8761L11.8793 16.9413C11.9507 16.8873 12.0493 16.8873 12.1207 16.9413L13.3559 17.8761C13.5108 17.9933 13.7249 17.8434 13.6678 17.6578L13.1923 16.1126C13.167 16.0304 13.1971 15.9412 13.267 15.8912L14.4937 15.0126C14.6518 14.8994 14.5717 14.65 14.3773 14.65H12.8735C12.7853 14.65 12.7076 14.5922 12.6821 14.5078L12.1915 12.8838C12.1342 12.6942 11.8658 12.6942 11.8085 12.8838L11.3179 14.5078C11.2924 14.5922 11.2147 14.65 11.1265 14.65H9.62272C9.42829 14.65 9.34819 14.8994 9.50627 15.0126L10.733 15.8912C10.8029 15.9412 10.833 16.0304 10.8077 16.1126L10.3322 17.6578Z" />
</g>
</svg>
