<svg width="24" height="24" viewBox="0 0 24 24"  xmlns="http://www.w3.org/2000/svg">
<mask id="mask0_129_2758" style="mask-type:alpha" maskUnits="userSpaceOnUse" x="0" y="0" width="24" height="24">
<rect width="24" height="24" />
</mask>
<g mask="url(#mask0_129_2758)">
<path d="M4.019 19.1269C3.72738 19.4185 3.25512 19.4202 2.96139 19.1307C2.6646 18.8382 2.66285 18.36 2.9575 18.0653L6.72485 14.298C7.22868 13.7942 7.56843 13.1792 7.7441 12.4532C7.91977 11.7271 8.0076 10.6145 8.0076 9.11549C8.0076 8.18816 8.21469 7.27683 8.62885 6.38149C9.04285 5.48616 9.6306 4.65774 10.3921 3.89624C11.8063 2.48208 13.3598 1.67499 15.0526 1.47499C16.7453 1.27499 18.1379 1.73208 19.2306 2.84624C20.3344 3.95291 20.7864 5.35166 20.5864 7.04249C20.3864 8.73333 19.5844 10.2807 18.1806 11.6845C17.4191 12.4462 16.5925 13.0308 15.7009 13.4385C14.8092 13.8462 13.896 14.05 12.9614 14.05C11.4729 14.05 10.3697 14.1368 9.65185 14.3105C8.93385 14.4842 8.3146 14.8313 7.7941 15.352L4.019 19.1269ZM10.3769 11.65C11.1602 12.4167 12.2185 12.6984 13.5519 12.4952C14.8852 12.2921 16.0769 11.6655 17.1269 10.6155C18.1935 9.54883 18.831 8.35299 19.0394 7.02799C19.2477 5.70299 18.9602 4.66549 18.1769 3.91549C17.3897 3.12183 16.3454 2.82658 15.0441 3.02974C13.7428 3.23291 12.5537 3.86783 11.4769 4.93449C10.4269 5.97816 9.78935 7.16249 9.56435 8.48749C9.33935 9.81249 9.61018 10.8667 10.3769 11.65ZM18.0769 22.5C17.1144 22.5 16.2904 22.1572 15.6049 21.4717C14.9195 20.7864 14.5769 19.9625 14.5769 19C14.5769 18.0375 14.9195 17.2136 15.6049 16.5282C16.2904 15.8427 17.1144 15.5 18.0769 15.5C19.0394 15.5 19.8633 15.8427 20.5486 16.5282C21.2341 17.2136 21.5769 18.0375 21.5769 19C21.5769 19.9625 21.2341 20.7864 20.5486 21.4717C19.8633 22.1572 19.0394 22.5 18.0769 22.5Z" />
</g>
</svg>
