<svg width="24" height="24" viewBox="0 0 24 24" fill="#334155" xmlns="http://www.w3.org/2000/svg">
<mask id="mask0_129_2850" style="mask-type:alpha" maskUnits="userSpaceOnUse" x="0" y="0" width="24" height="24">
<rect width="24" height="24" fill="#D9D9D9"/>
</mask>
<g mask="url(#mask0_129_2850)">
<path d="M21.6 9.2L13 4.225V2.05C15.05 2.25 16.85 3.00417 18.4 4.3125C19.95 5.62084 21.0167 7.25 21.6 9.2ZM6.75 13.9V3.5C7.4 3.11667 8.08333 2.8 8.8 2.55C9.51667 2.3 10.2583 2.13334 11.025 2.05V11.425L6.75 13.9ZM2.9 16.125C2.6 15.4917 2.375 14.8292 2.225 14.1375C2.075 13.4458 2 12.7333 2 12C2 10.7167 2.23333 9.4875 2.7 8.3125C3.16667 7.1375 3.85 6.08334 4.75 5.15V15.025L2.9 16.125ZM7.3 20.8C6.6 20.4667 5.96667 20.05 5.4 19.55C4.83333 19.05 4.33333 18.4833 3.9 17.85L12.025 13.15L16.3 15.625L7.3 20.8ZM12.025 22C11.6417 22 11.25 21.9792 10.85 21.9375C10.45 21.8958 10.0667 21.825 9.7 21.725L18.3 16.775L20.15 17.8C19.2 19.1 18.0125 20.125 16.5875 20.875C15.1625 21.625 13.6417 22 12.025 22ZM21.125 16.1L13 11.425V6.5L22 11.725C22 12.4917 21.9333 13.2417 21.8 13.975C21.6667 14.7083 21.4417 15.4167 21.125 16.1Z" />
</g>
</svg>
