<svg width="24" height="24" viewBox="0 0 24 24"  xmlns="http://www.w3.org/2000/svg">
<mask id="mask0_129_2850" style="mask-type:alpha" maskUnits="userSpaceOnUse" x="0" y="0" width="24" height="24">
<rect width="24" height="24" />
</mask>
<g mask="url(#mask0_129_2850)">
<path d="M21.206 9.652L12.7502 4.7155V2.53075C14.8002 2.68591 16.5922 3.41925 18.1262 4.73075C19.6602 6.04225 20.6868 7.68266 21.206 9.652ZM6.81747 14.15V4.05775C7.47397 3.62958 8.16531 3.28883 8.89147 3.0355C9.61781 2.78233 10.4092 2.61408 11.2657 2.53075V11.5692L6.81747 14.15ZM3.42922 16.0962C3.11639 15.4692 2.88172 14.8115 2.72522 14.123C2.56889 13.4347 2.49072 12.727 2.49072 12C2.49072 10.7295 2.72881 9.51958 3.20497 8.37025C3.68131 7.22091 4.38547 6.19241 5.31747 5.28475V14.9962L3.42922 16.0962ZM7.72322 20.4635C6.98489 20.1108 6.31956 19.6781 5.72722 19.1652C5.13489 18.6524 4.61881 18.0602 4.17897 17.3885L12.0157 12.8615L16.4732 15.4422L7.72322 20.4635ZM12.0157 21.5C11.5939 21.5 11.1717 21.4759 10.7492 21.4277C10.3267 21.3797 9.91939 21.2897 9.52722 21.1577L17.9732 16.3037L19.8522 17.3577C18.9534 18.6449 17.8171 19.6571 16.4435 20.3942C15.0698 21.1314 13.5939 21.5 12.0157 21.5ZM20.5772 16.0712L12.7502 11.5692V6.423L21.4905 11.5327C21.5098 12.3251 21.4496 13.1039 21.3097 13.8692C21.1701 14.6346 20.9259 15.3686 20.5772 16.0712Z" />
</g>
</svg>
