<svg width="10" height="10" viewBox="0 0 10 10" fill="#374957" xmlns="http://www.w3.org/2000/svg">
<path fill-rule="evenodd" clip-rule="evenodd" d="M0 3.34242V7.78081C0 8.36937 0.233807 8.93383 0.649985 9.35001C1.06616 9.76619 1.63062 10 2.21919 10H6.65756C6.95184 10 7.23407 9.8831 7.44216 9.67501C7.65025 9.46692 7.76716 9.18469 7.76716 8.8904C7.76716 8.59612 7.65025 8.31389 7.44216 8.1058C7.23407 7.89771 6.95184 7.78081 6.65756 7.78081H3.81589C4.08644 7.50939 4.93339 6.65805 5.90548 5.6809C7.42912 4.14935 9.26021 2.30874 9.66123 1.90772C9.76721 1.80536 9.85174 1.68292 9.9099 1.54755C9.96805 1.41217 9.99866 1.26657 9.99994 1.11924C10.0012 0.971906 9.97314 0.825795 9.91735 0.68943C9.86156 0.553065 9.77917 0.429176 9.67499 0.324993C9.5708 0.22081 9.44692 0.138419 9.31055 0.0826278C9.17419 0.0268363 9.02807 -0.00123838 8.88074 4.18947e-05C8.73341 0.00132216 8.58781 0.0319317 8.45244 0.0900846C8.31706 0.148237 8.19463 0.232769 8.09227 0.338747C7.43539 0.995627 2.91823 5.53609 2.21919 6.23958V3.34242C2.21919 3.04814 2.10228 2.76591 1.8942 2.55782C1.68611 2.34973 1.40388 2.23283 1.10959 2.23283C0.815311 2.23283 0.533082 2.34973 0.324993 2.55782C0.116904 2.76591 0 3.04814 0 3.34242Z" />
</svg>