<svg width="20" height="20" viewBox="0 0 20 20" fill="currentColor" xmlns="http://www.w3.org/2000/svg">
<mask id="mask0_2053_16759" style="mask-type:alpha" maskUnits="userSpaceOnUse" x="0" y="0" width="20" height="20">
<rect x="20" width="20" height="20" transform="rotate(90 20 0)" fill="#D9D9D9"/>
</mask>
<g mask="url(#mask0_2053_16759)">
<path d="M5.72745 9.70948C5.48476 9.46679 5.48476 9.07331 5.72745 8.83062L9.99948 4.55859L14.2715 8.83062C14.5142 9.07331 14.5142 9.46679 14.2715 9.70949C14.0291 9.95189 13.6362 9.95222 13.3934 9.71023L9.99948 6.32776L6.60558 9.71023C6.36277 9.95222 5.96986 9.95189 5.72745 9.70948ZM5.72745 15.0012C5.48476 14.7585 5.48476 14.365 5.72745 14.1223L9.99948 9.85026L14.2715 14.1223C14.5142 14.365 14.5142 14.7585 14.2715 15.0012C14.0291 15.2436 13.6362 15.2439 13.3934 15.0019L9.99948 11.6194L6.60558 15.0019C6.36277 15.2439 5.96986 15.2436 5.72745 15.0012Z" />
</g>
</svg>
