<svg width="24" height="24" viewBox="0 0 24 24" fill="#334155" xmlns="http://www.w3.org/2000/svg">
<mask id="mask0_407_5712" style="mask-type:alpha" maskUnits="userSpaceOnUse" x="0" y="0" width="24" height="24">
<rect width="24" height="24" fill="#D9D9D9"/>
</mask>
<g mask="url(#mask0_407_5712)">
<path d="M10.0557 12L5.99673 7.92732C5.70634 7.63595 5.70674 7.16446 5.99762 6.87357C6.28885 6.58234 6.76103 6.58234 7.05226 6.87357L12.1787 12L7.05226 17.1264C6.76103 17.4177 6.28885 17.4177 5.99762 17.1264C5.70674 16.8356 5.70634 16.3641 5.99673 16.0727L10.0557 12ZM16.4057 12L12.3467 7.92732C12.0563 7.63595 12.0567 7.16446 12.3476 6.87357C12.6389 6.58234 13.111 6.58234 13.4023 6.87357L18.5287 12L13.4023 17.1264C13.111 17.4177 12.6389 17.4177 12.3476 17.1264C12.0567 16.8356 12.0563 16.3641 12.3467 16.0727L16.4057 12Z" />
</g>
</svg>
