<svg width="24" height="24" viewBox="0 0 24 24"  xmlns="http://www.w3.org/2000/svg">
<mask id="mask0_129_2814" style="mask-type:alpha" maskUnits="userSpaceOnUse" x="0" y="0" width="24" height="24">
<rect width="24" height="24" />
</mask>
<g mask="url(#mask0_129_2814)">
<path d="M9.63357 12.4236C9.86693 12.1894 9.86693 11.8106 9.63357 11.5765L5.99673 7.92732C5.70634 7.63595 5.70674 7.16446 5.99762 6.87357C6.28885 6.58234 6.76103 6.58234 7.05226 6.87357L10.7645 10.5858C11.5455 11.3668 11.5455 12.6332 10.7645 13.4142L7.05226 17.1264C6.76103 17.4177 6.28885 17.4177 5.99762 17.1264C5.70674 16.8356 5.70634 16.3641 5.99673 16.0727L9.63357 12.4236ZM15.9836 12.4236C16.2169 12.1894 16.2169 11.8106 15.9836 11.5765L12.3467 7.92732C12.0563 7.63595 12.0567 7.16446 12.3476 6.87357C12.6389 6.58234 13.111 6.58234 13.4023 6.87357L17.1145 10.5858C17.8955 11.3668 17.8955 12.6332 17.1145 13.4142L13.4023 17.1264C13.111 17.4177 12.6389 17.4177 12.3476 17.1264C12.0567 16.8356 12.0563 16.3641 12.3467 16.0727L15.9836 12.4236Z" />
</g>
</svg>
