<svg width="24" height="24" viewBox="0 0 24 24" fill="#334155" xmlns="http://www.w3.org/2000/svg">
<mask id="mask0_129_2830" style="mask-type:alpha" maskUnits="userSpaceOnUse" x="0" y="0" width="24" height="24">
<rect width="24" height="24" fill="#D9D9D9"/>
</mask>
<g mask="url(#mask0_129_2830)">
<path d="M11.701 17.299C11.3138 17.6862 10.6862 17.6862 10.299 17.299L6.41421 13.4142C5.63317 12.6332 5.63316 11.3668 6.41421 10.5858L10.299 6.70095C10.6862 6.31383 11.3138 6.31383 11.701 6.70095C12.0873 7.08733 12.0882 7.71352 11.7029 8.10095L8.17567 11.6474C7.98169 11.8425 7.98169 12.1575 8.17567 12.3526L11.7029 15.8991C12.0882 16.2865 12.0873 16.9127 11.701 17.299ZM18.301 17.299C17.9138 17.6862 17.2862 17.6862 16.899 17.299L13.0142 13.4142C12.2332 12.6332 12.2332 11.3668 13.0142 10.5858L16.899 6.70095C17.2862 6.31383 17.9138 6.31383 18.301 6.70095C18.6873 7.08733 18.6882 7.71352 18.3029 8.10095L14.7757 11.6474C14.5817 11.8425 14.5817 12.1575 14.7757 12.3526L18.3029 15.8991C18.6882 16.2865 18.6873 16.9127 18.301 17.299Z" />
</g>
</svg>
