<svg width="24" height="24" viewBox="0 0 24 24" fill="#334155" xmlns="http://www.w3.org/2000/svg">
<mask id="mask0_129_2830" style="mask-type:alpha" maskUnits="userSpaceOnUse" x="0" y="0" width="24" height="24">
<rect width="24" height="24" fill="#D9D9D9"/>
</mask>
<g mask="url(#mask0_129_2830)">
<path d="M11.6523 17.1264C11.361 17.4177 10.8889 17.4177 10.5976 17.1264L5.47119 12L10.5976 6.87357C10.8889 6.58234 11.361 6.58234 11.6523 6.87357C11.9431 7.16446 11.9435 7.63595 11.6532 7.92732L7.59419 12L11.6532 16.0727C11.9435 16.3641 11.9431 16.8356 11.6523 17.1264ZM18.0023 17.1264C17.711 17.4177 17.2389 17.4177 16.9476 17.1264L11.8212 12L16.9476 6.87357C17.2389 6.58234 17.711 6.58234 18.0023 6.87357C18.2931 7.16446 18.2935 7.63595 18.0032 7.92732L13.9442 12L18.0032 16.0727C18.2935 16.3641 18.2931 16.8356 18.0023 17.1264Z" />
</g>
</svg>
