<svg width="24" height="24" viewBox="0 0 24 24" fill="#334155" xmlns="http://www.w3.org/2000/svg">
<mask id="mask0_129_2814" style="mask-type:alpha" maskUnits="userSpaceOnUse" x="0" y="0" width="24" height="24">
<rect width="24" height="24" fill="#D9D9D9"/>
</mask>
<g mask="url(#mask0_129_2814)">
<path d="M9.22433 12.3526C9.41831 12.1575 9.41831 11.8425 9.22433 11.6474L5.69714 8.10095C5.31181 7.71352 5.31267 7.08733 5.69905 6.70095C6.08617 6.31383 6.71383 6.31383 7.10095 6.70095L10.9858 10.5858C11.7668 11.3668 11.7668 12.6332 10.9858 13.4142L7.10095 17.299C6.71383 17.6862 6.08617 17.6862 5.69905 17.299C5.31267 16.9127 5.31181 16.2865 5.69714 15.8991L9.22433 12.3526ZM15.8243 12.3526C16.0183 12.1575 16.0183 11.8425 15.8243 11.6474L12.2971 8.10095C11.9118 7.71352 11.9127 7.08733 12.299 6.70095C12.6862 6.31383 13.3138 6.31383 13.701 6.70095L17.5858 10.5858C18.3668 11.3668 18.3668 12.6332 17.5858 13.4142L13.701 17.299C13.3138 17.6862 12.6862 17.6862 12.299 17.299C11.9127 16.9127 11.9118 16.2865 12.2971 15.8991L15.8243 12.3526Z" />
</g>
</svg>
