<svg width="24" height="24" viewBox="0 0 24 24" fill="#334155" xmlns="http://www.w3.org/2000/svg">
<mask id="mask0_158_2506" style="mask-type:alpha" maskUnits="userSpaceOnUse" x="0" y="0" width="24" height="24">
<rect width="24" height="24" fill="#D9D9D9"/>
</mask>
<g mask="url(#mask0_158_2506)">
<path d="M12 4C11.4477 4 11 4.44772 11 5V16.175L6.11253 11.2875C5.72003 10.895 5.08281 10.8979 4.69381 11.2938V11.2938C4.30964 11.6848 4.31241 12.3124 4.70003 12.7L11.2929 19.2929C11.6834 19.6834 12.3166 19.6834 12.7071 19.2929L19.3 12.7C19.6876 12.3124 19.6904 11.6848 19.3062 11.2938V11.2938C18.9172 10.8979 18.28 10.895 17.8875 11.2875L13 16.175V5C13 4.44772 12.5523 4 12 4V4Z" />
</g>
</svg>
