<svg width="24" height="24" viewBox="0 0 24 24"  xmlns="http://www.w3.org/2000/svg">
<mask id="mask0_158_2506" style="mask-type:alpha" maskUnits="userSpaceOnUse" x="0" y="0" width="24" height="24">
<rect width="24" height="24" />
</mask>
<g mask="url(#mask0_158_2506)">
<path d="M12 4.5C11.5858 4.5 11.25 4.83579 11.25 5.25V16.627L6.08839 11.4654C5.79375 11.1707 5.31551 11.1725 5.02303 11.4693C4.73355 11.763 4.73528 12.2353 5.02689 12.5269L11.5757 19.0757C11.8101 19.3101 12.1899 19.3101 12.4243 19.0757L18.9731 12.5269C19.2647 12.2353 19.2664 11.763 18.977 11.4693C18.6845 11.1725 18.2063 11.1707 17.9116 11.4654L12.75 16.627V5.25C12.75 4.83579 12.4142 4.5 12 4.5Z" />
</g>
</svg>
