<svg width="24" height="24" viewBox="0 0 24 24"  xmlns="http://www.w3.org/2000/svg">
<path d="M17.9586 22.924C17.3757 23.5157 16.4212 23.5158 15.8381 22.9242L7.51425 14.48C6.86856 13.8228 6 12.9333 6 12.006C6 11.0787 6.86856 10.1892 7.51425 9.532L15.849 1.07581C16.4321 0.484185 17.3866 0.484175 17.9697 1.07579V1.07579C18.5411 1.65546 18.5411 2.58653 17.9697 3.16619L9.60489 11.652C9.51237 11.7458 9.46039 11.8729 9.46039 12.0055C9.46039 12.1381 9.51237 12.2652 9.60489 12.359L17.9584 20.8343C18.5296 21.4137 18.5297 22.3444 17.9586 22.924V22.924Z" />
</svg>
