<svg width="24" height="24" viewBox="0 0 24 24"  xmlns="http://www.w3.org/2000/svg">
<mask id="mask0_407_5802" style="mask-type:alpha" maskUnits="userSpaceOnUse" x="0" y="0" width="24" height="24">
<rect width="24" height="24" />
</mask>
<g mask="url(#mask0_407_5802)">
<path d="M7.373 12.75L12.5346 17.9116C12.8293 18.2063 12.8275 18.6845 12.5307 18.977C12.237 19.2664 11.7647 19.2647 11.4731 18.9731L4.92426 12.4243C4.68995 12.1899 4.68995 11.8101 4.92426 11.5757L11.4731 5.02689C11.7647 4.73528 12.237 4.73355 12.5307 5.02303C12.8275 5.31551 12.8293 5.79375 12.5346 6.08839L7.373 11.25H18.75C19.1642 11.25 19.5 11.5858 19.5 12C19.5 12.4142 19.1642 12.75 18.75 12.75H7.373Z" />
</g>
</svg>
