<svg width="24" height="24" viewBox="0 0 24 24"  xmlns="http://www.w3.org/2000/svg">
<mask id="mask0_158_2510" style="mask-type:alpha" maskUnits="userSpaceOnUse" x="0" y="0" width="24" height="24">
<rect width="24" height="24" />
</mask>
<g mask="url(#mask0_158_2510)">
<path d="M16.627 12.75H5.25C4.83579 12.75 4.5 12.4142 4.5 12C4.5 11.5858 4.83579 11.25 5.25 11.25H16.627L11.4654 6.08839C11.1708 5.79375 11.1725 5.31551 11.4693 5.02303C11.763 4.73355 12.2353 4.73528 12.5269 5.02689L19.0757 11.5757C19.3101 11.8101 19.3101 12.1899 19.0757 12.4243L12.5269 18.9731C12.2353 19.2647 11.763 19.2664 11.4693 18.977C11.1725 18.6845 11.1708 18.2063 11.4654 17.9116L16.627 12.75Z" />
</g>
</svg>
