<svg width="24" height="24" viewBox="0 0 24 24"  xmlns="http://www.w3.org/2000/svg">
<mask id="mask0_158_2504" style="mask-type:alpha" maskUnits="userSpaceOnUse" x="0" y="0" width="24" height="24">
<rect width="24" height="24" />
</mask>
<g mask="url(#mask0_158_2504)">
<path d="M12 19.5C11.5858 19.5 11.25 19.1642 11.25 18.75V7.373L6.08839 12.5346C5.79375 12.8293 5.31551 12.8275 5.02303 12.5307C4.73355 12.237 4.73528 11.7647 5.02689 11.4731L11.5757 4.92426C11.8101 4.68995 12.1899 4.68995 12.4243 4.92426L18.9731 11.4731C19.2647 11.7647 19.2664 12.237 18.977 12.5307C18.6845 12.8275 18.2063 12.8293 17.9116 12.5346L12.75 7.373V18.75C12.75 19.1642 12.4142 19.5 12 19.5Z" />
</g>
</svg>
