<svg width="24" height="24" viewBox="0 0 24 24" fill="currentColor" xmlns="http://www.w3.org/2000/svg">
<mask id="mask0_1706_23030" style="mask-type:alpha" maskUnits="userSpaceOnUse" x="0" y="0" width="24" height="24">
<rect width="24" height="24" fill="#D9D9D9"/>
</mask>
<g mask="url(#mask0_1706_23030)">
<path d="M11.9999 21.6537L6.88137 16.5351C6.5858 16.2396 6.5858 15.7603 6.88137 15.4648C7.17651 15.1696 7.65487 15.1691 7.95062 15.4637L11.9999 19.4962L16.0493 15.4637C16.345 15.1691 16.8234 15.1696 17.1185 15.4648C17.4141 15.7603 17.4141 16.2396 17.1185 16.5351L11.9999 21.6537ZM7.95817 8.52844C7.66545 8.81992 7.19308 8.82282 6.89681 8.53495C6.594 8.24073 6.59051 7.75562 6.88906 7.45707L11.9999 2.34619L17.1108 7.45707C17.4094 7.75562 17.4059 8.24073 17.1031 8.53495C16.8068 8.82282 16.3344 8.81992 16.0417 8.52844L11.9999 4.50369L7.95817 8.52844Z" />
</g>
</svg>
