<svg width="24" height="24" viewBox="0 0 24 24" fill="none" xmlns="http://www.w3.org/2000/svg">
<path d="M22.5027 11H1.49725C1.10016 11 0.719326 11.158 0.438536 11.4393C0.157746 11.7206 0 12.1022 0 12.5C0 12.8978 0.157746 13.2794 0.438536 13.5607C0.719326 13.842 1.10016 14 1.49725 14H22.5027C22.8998 14 23.2807 13.842 23.5615 13.5607C23.8423 13.2794 24 12.8978 24 12.5C24 12.1022 23.8423 11.7206 23.5615 11.4393C23.2807 11.158 22.8998 11 22.5027 11Z" />
<path fill-rule="evenodd" clip-rule="evenodd" d="M23.9561 6C23.9561 6.53043 23.7458 7.03914 23.3714 7.41421C22.997 7.78929 22.4892 8 21.9597 8C21.4303 8 20.9225 7.78929 20.5481 7.41421C20.1737 7.03914 19.9634 6.53043 19.9634 6C19.9634 5.46957 19.7531 4.96086 19.3787 4.58579C19.0043 4.21071 18.4965 4 17.9671 4H13.9744V9H9.9817V4H5.98902C5.45956 4 4.95178 4.21071 4.57739 4.58579C4.20301 4.96086 3.99268 5.46957 3.99268 6C3.99268 6.53043 3.78235 7.03914 3.40796 7.41421C3.03358 7.78929 2.5258 8 1.99634 8C1.46688 8 0.959101 7.78929 0.584715 7.41421C0.210328 7.03914 0 6.53043 0 6C0 4.4087 0.630984 2.88258 1.75414 1.75736C2.8773 0.632141 4.40063 0 5.98902 0H17.9671C19.5554 0 21.0788 0.632141 22.2019 1.75736C23.3251 2.88258 23.9561 4.4087 23.9561 6ZM9.9817 20V16H13.9744V20H15.9707C16.5002 20 17.008 20.2107 17.3823 20.5858C17.7567 20.9609 17.9671 21.4696 17.9671 22C17.9671 22.5304 17.7567 23.0391 17.3823 23.4142C17.008 23.7893 16.5002 24 15.9707 24H7.98536C7.4559 24 6.94812 23.7893 6.57373 23.4142C6.19935 23.0391 5.98902 22.5304 5.98902 22C5.98902 21.4696 6.19935 20.9609 6.57373 20.5858C6.94812 20.2107 7.4559 20 7.98536 20H9.9817Z"/>
</svg>
