<svg width="24" height="24" viewBox="0 0 24 24" xmlns="http://www.w3.org/2000/svg">
<path fill-rule="evenodd" clip-rule="evenodd" d="M5.5 0H18.5C19.9582 0.00158691 21.3562 0.581543 22.3873 1.61267C23.4184 2.6438 23.9984 4.04175 24 5.5V18.5C23.9984 19.9583 23.4184 21.3562 22.3873 22.3873C21.3562 23.4185 19.9582 23.9984 18.5 24H5.5C4.04181 23.9984 2.64377 23.4185 1.61267 22.3873C0.581573 21.3562 0.00158691 19.9583 0 18.5V5.5C0.00158691 4.04175 0.581573 2.6438 1.61267 1.61267C2.64377 0.581543 4.04181 0.00158691 5.5 0Z" fill="#FFE460"/>
<path fill-rule="evenodd" clip-rule="evenodd" d="M21.5118 8.17851C21.8244 7.86595 22 7.44203 22 7C22 5.67392 21.4732 4.40215 20.5355 3.46447C19.5979 2.52678 18.3261 2 17 2H7C5.67392 2 4.40215 2.52678 3.46447 3.46447C2.52678 4.40215 2 5.67392 2 7C2 7.44203 2.1756 7.86595 2.48816 8.17851C2.80072 8.49107 3.22464 8.66667 3.66667 8.66667C4.10869 8.66667 4.53262 8.49107 4.84518 8.17851C5.15774 7.86595 5.33333 7.44203 5.33333 7C5.33333 6.55797 5.50893 6.13405 5.82149 5.82149C6.13405 5.50893 6.55797 5.33333 7 5.33333H10.3333V8.66666L10.3333 15.3333H12H13.6666V9.5L13.6667 5.33333H17C17.442 5.33333 17.866 5.50893 18.1785 5.82149C18.4911 6.13405 18.6667 6.55797 18.6667 7C18.6667 7.44203 18.8423 7.86595 19.1548 8.17851C19.4674 8.49107 19.8913 8.66667 20.3333 8.66667C20.7754 8.66667 21.1993 8.49107 21.5118 8.17851ZM10.3333 15.3333L10.3333 18.6667H8.66667C8.22464 18.6667 7.80072 18.8423 7.48816 19.1548C7.1756 19.4674 7 19.8913 7 20.3333C7 20.7754 7.1756 21.1993 7.48816 21.5118C7.80072 21.8244 8.22464 22 8.66667 22H15.3333C15.7754 22 16.1993 21.8244 16.5118 21.5118C16.8244 21.1993 17 20.7754 17 20.3333C17 19.8913 16.8244 19.4674 16.5118 19.1548C16.1993 18.8423 15.7754 18.6667 15.3333 18.6667H13.6667L13.6666 15.3333H12H10.3333Z" />
</svg>
