<svg width="24" height="24" viewBox="0 0 24 24" xmlns="http://www.w3.org/2000/svg">
<g clip-path="url(#clip0_604_2)">
<path d="M9.00002 17.0007L13.83 17.0007L13.83 18.5867C13.8301 18.9822 13.9474 19.3688 14.1672 19.6976C14.387 20.0264 14.6993 20.2827 15.0647 20.434C15.4301 20.5854 15.8322 20.625 16.2201 20.5478C16.608 20.4707 16.9643 20.2803 17.244 20.0007L23.124 14.1217C23.6864 13.5591 24.0024 12.7962 24.0024 12.0007C24.0024 11.2052 23.6864 10.4423 23.124 9.87968L17.244 4.00069C16.9643 3.72107 16.608 3.53066 16.2201 3.45353C15.8322 3.37639 15.4301 3.416 15.0647 3.56734C14.6993 3.71868 14.387 3.97496 14.1672 4.30377C13.9474 4.63259 13.8301 5.01919 13.83 5.41469L13.83 7.00069L8.00002 7.00069C6.40921 6.9991 4.88401 6.36645 3.75913 5.24157C2.63426 4.1167 2.00161 2.5915 2.00002 1.00069C2.00002 0.735478 1.89466 0.481124 1.70713 0.293588C1.51959 0.106052 1.26524 0.000695713 1.00002 0.000695689C0.734804 0.000695666 0.480449 0.106052 0.292912 0.293588C0.105376 0.481124 1.98549e-05 0.735478 1.98318e-05 1.00069L1.92198e-05 8.00068C0.00266586 10.3868 0.951727 12.6745 2.63898 14.3617C4.32623 16.049 6.61388 16.998 9.00002 17.0007V17.0007Z" />
</g>
<defs>
<clipPath id="clip0_604_2">
<rect width="24" height="24" fill="white" transform="translate(24 24) rotate(-180)"/>
</clipPath>
</defs>
</svg>
