<svg width="538" height="44" viewBox="0 0 538 44" fill="none" xmlns="http://www.w3.org/2000/svg">
<path d="M45.2344 15.8281C45.2344 17.8398 44.9414 19.6953 44.3555 21.3945C43.7695 23.0742 42.8223 24.5293 41.5137 25.7598C40.2246 26.9707 38.5449 27.918 36.4746 28.6016C34.4043 29.2852 31.8848 29.627 28.916 29.627H10.8691V42.3418H0V2.08789H28.916C31.8848 2.08789 34.4043 2.42969 36.4746 3.11328C38.5449 3.77734 40.2246 4.72461 41.5137 5.95508C42.8223 7.16602 43.7695 8.61133 44.3555 10.291C44.9414 11.9707 45.2344 13.8164 45.2344 15.8281ZM34.248 16.0039C34.248 15.0664 34.1113 14.2656 33.8379 13.6016C33.584 12.918 33.1543 12.3613 32.5488 11.9316C31.9434 11.502 31.1523 11.1895 30.1758 10.9941C29.1992 10.7793 27.998 10.6719 26.5723 10.6719H10.8691V21.043H26.5723C27.998 21.043 29.1992 20.9648 30.1758 20.8086C31.1523 20.6328 31.9434 20.3496 32.5488 19.959C33.1543 19.5488 33.584 19.0215 33.8379 18.377C34.1113 17.7324 34.248 16.9414 34.248 16.0039Z" fill="#ADEF2B"/>
<path d="M51.5578 42.3418V2.08789H62.427V33.5234H91.8117V42.3418H51.5578Z" fill="#ADEF2B"/>
<path d="M134.373 42.3418V38.3867C132.986 39.1484 131.492 39.8223 129.891 40.4082C128.309 40.9941 126.658 41.4922 124.939 41.9023C123.221 42.3125 121.443 42.6152 119.607 42.8105C117.791 43.0254 115.955 43.1328 114.1 43.1328C111.932 43.1328 109.832 42.9277 107.801 42.5176C105.789 42.1074 104.002 41.4434 102.439 40.5254C100.877 39.6074 99.6172 38.4062 98.6602 36.9219C97.7227 35.4375 97.2539 33.6211 97.2539 31.4727C97.2539 28.7578 97.9961 26.502 99.4805 24.7051C100.965 22.8887 103.23 21.4043 106.277 20.252C109.324 19.0996 113.172 18.2109 117.82 17.5859C122.488 16.9609 128.006 16.4727 134.373 16.1211V15.2715C134.373 14.6074 134.197 13.9531 133.846 13.3086C133.494 12.6445 132.85 12.0684 131.912 11.5801C130.994 11.0723 129.725 10.6621 128.104 10.3496C126.502 10.0371 124.451 9.88086 121.951 9.88086C119.979 9.88086 118.025 9.98828 116.092 10.2031C114.178 10.3984 112.322 10.6719 110.525 11.0234C108.748 11.375 107.059 11.7852 105.457 12.2539C103.855 12.7227 102.4 13.2109 101.092 13.7188V4.05078C102.459 3.69922 103.992 3.35742 105.691 3.02539C107.391 2.69336 109.158 2.41016 110.994 2.17578C112.83 1.92188 114.686 1.72656 116.561 1.58984C118.436 1.43359 120.232 1.35547 121.951 1.35547C125.33 1.35547 128.445 1.63867 131.297 2.20508C134.148 2.75195 136.6 3.61133 138.65 4.7832C140.721 5.95508 142.332 7.43945 143.484 9.23633C144.656 11.0332 145.242 13.1719 145.242 15.6523V42.3418H134.373ZM134.373 23.9727C130.193 24.1289 126.639 24.3535 123.709 24.6465C120.799 24.9395 118.377 25.2812 116.443 25.6719C114.51 26.0625 112.986 26.4824 111.873 26.9316C110.779 27.3809 109.959 27.8398 109.412 28.3086C108.865 28.7773 108.523 29.2461 108.387 29.7148C108.27 30.1836 108.211 30.6133 108.211 31.0039C108.211 31.4727 108.338 31.9316 108.592 32.3809C108.846 32.8105 109.285 33.1914 109.91 33.5234C110.555 33.8555 111.404 34.1191 112.459 34.3145C113.514 34.5098 114.842 34.6074 116.443 34.6074C118.221 34.6074 119.959 34.4707 121.658 34.1973C123.357 33.9238 124.969 33.5527 126.492 33.084C128.016 32.5957 129.441 32.0293 130.77 31.3848C132.117 30.7207 133.318 30.0176 134.373 29.2754V23.9727Z" fill="#ADEF2B"/>
<path d="M202.777 26.873C202.777 29.4902 202.132 31.8242 200.843 33.875C199.554 35.9258 197.718 37.6641 195.335 39.0898C192.972 40.4961 190.101 41.5703 186.722 42.3125C183.363 43.0547 179.593 43.4258 175.413 43.4258C173.577 43.4258 171.644 43.3477 169.613 43.1914C167.601 43.0547 165.628 42.8496 163.695 42.5762C161.78 42.3223 159.984 42.0293 158.304 41.6973C156.624 41.3457 155.208 40.9648 154.056 40.5547V31.0039C155.306 31.5312 156.693 32.0293 158.216 32.498C159.759 32.9668 161.429 33.3867 163.226 33.7578C165.023 34.1094 166.946 34.3926 168.997 34.6074C171.068 34.8027 173.255 34.9004 175.56 34.9004C177.728 34.9004 179.632 34.7734 181.273 34.5195C182.933 34.2656 184.368 33.9238 185.579 33.4941C186.79 33.0645 187.796 32.5762 188.597 32.0293C189.398 31.4629 190.042 30.8867 190.53 30.3008C191.019 29.6953 191.361 29.0996 191.556 28.5137C191.771 27.9277 191.878 27.3809 191.878 26.873V23.3281C189.886 24.793 187.513 26.0039 184.759 26.9609C182.005 27.8984 178.87 28.3672 175.355 28.3672C171.273 28.3672 167.864 27.9766 165.13 27.1953C162.415 26.3945 160.238 25.252 158.597 23.7676C156.956 22.2637 155.784 20.4375 155.081 18.2891C154.398 16.1406 154.056 13.7188 154.056 11.0234V2.08789H164.984V9.93945C164.984 11.5215 165.189 12.9277 165.599 14.1582C166.029 15.3887 166.693 16.4238 167.591 17.2637C168.509 18.084 169.691 18.709 171.136 19.1387C172.581 19.5684 174.329 19.7832 176.38 19.7832C178.118 19.7832 179.759 19.5684 181.302 19.1387C182.864 18.709 184.3 18.1426 185.609 17.4395C186.917 16.7363 188.099 15.9355 189.154 15.0371C190.208 14.1387 191.116 13.2207 191.878 12.2832V2.08789H202.777V26.873Z" fill="#ADEF2B"/>
<path d="M210.271 0.271484H219.821L239.685 43.543H230.134L210.271 0.271484Z" fill="#ADEF2B"/>
<path d="M298.361 42.3418V14.0703L283.419 42.3418H272.989L258.048 14.0703V42.3418H247.179V2.08789H261.945L278.204 32.5566L294.464 2.08789H309.171V42.3418H298.361Z" fill="#ADEF2B"/>
<path d="M354.4 42.3418V38.3867C353.013 39.1484 351.519 39.8223 349.917 40.4082C348.335 40.9941 346.685 41.4922 344.966 41.9023C343.247 42.3125 341.47 42.6152 339.634 42.8105C337.818 43.0254 335.982 43.1328 334.126 43.1328C331.958 43.1328 329.859 42.9277 327.827 42.5176C325.816 42.1074 324.029 41.4434 322.466 40.5254C320.904 39.6074 319.644 38.4062 318.687 36.9219C317.749 35.4375 317.28 33.6211 317.28 31.4727C317.28 28.7578 318.023 26.502 319.507 24.7051C320.991 22.8887 323.257 21.4043 326.304 20.252C329.351 19.0996 333.198 18.2109 337.847 17.5859C342.515 16.9609 348.032 16.4727 354.4 16.1211V15.2715C354.4 14.6074 354.224 13.9531 353.872 13.3086C353.521 12.6445 352.876 12.0684 351.939 11.5801C351.021 11.0723 349.751 10.6621 348.13 10.3496C346.529 10.0371 344.478 9.88086 341.978 9.88086C340.005 9.88086 338.052 9.98828 336.118 10.2031C334.204 10.3984 332.349 10.6719 330.552 11.0234C328.775 11.375 327.085 11.7852 325.484 12.2539C323.882 12.7227 322.427 13.2109 321.118 13.7188V4.05078C322.486 3.69922 324.019 3.35742 325.718 3.02539C327.417 2.69336 329.185 2.41016 331.021 2.17578C332.857 1.92188 334.712 1.72656 336.587 1.58984C338.462 1.43359 340.259 1.35547 341.978 1.35547C345.357 1.35547 348.472 1.63867 351.323 2.20508C354.175 2.75195 356.626 3.61133 358.677 4.7832C360.747 5.95508 362.359 7.43945 363.511 9.23633C364.683 11.0332 365.269 13.1719 365.269 15.6523V42.3418H354.4ZM354.4 23.9727C350.22 24.1289 346.665 24.3535 343.736 24.6465C340.825 24.9395 338.404 25.2812 336.47 25.6719C334.536 26.0625 333.013 26.4824 331.9 26.9316C330.806 27.3809 329.986 27.8398 329.439 28.3086C328.892 28.7773 328.55 29.2461 328.413 29.7148C328.296 30.1836 328.237 30.6133 328.237 31.0039C328.237 31.4727 328.364 31.9316 328.618 32.3809C328.872 32.8105 329.312 33.1914 329.937 33.5234C330.581 33.8555 331.431 34.1191 332.486 34.3145C333.54 34.5098 334.868 34.6074 336.47 34.6074C338.247 34.6074 339.986 34.4707 341.685 34.1973C343.384 33.9238 344.995 33.5527 346.519 33.084C348.042 32.5957 349.468 32.0293 350.796 31.3848C352.144 30.7207 353.345 30.0176 354.4 29.2754V23.9727Z" fill="#ADEF2B"/>
<path d="M414.423 42.3418C414.228 40.1543 413.7 38.2402 412.841 36.5996C411.982 34.9395 410.898 33.5137 409.589 32.3223C408.3 31.1309 406.835 30.1445 405.195 29.3633C403.573 28.582 401.904 27.9668 400.185 27.5176C398.466 27.0488 396.747 26.7266 395.029 26.5508C393.329 26.3555 391.747 26.2578 390.282 26.2578H387.06V42.3418H376.191V2.08789H387.06V17.6152H389.286C390.79 17.6152 392.362 17.498 394.003 17.2637C395.644 17.0293 397.265 16.6582 398.866 16.1504C400.487 15.6426 402.04 14.9883 403.525 14.1875C405.009 13.3867 406.337 12.4102 407.509 11.2578C408.681 10.1055 409.657 8.77734 410.439 7.27344C411.22 5.75 411.708 4.02148 411.904 2.08789H422.978C422.782 4.2168 422.353 6.14062 421.689 7.85938C421.044 9.57812 420.234 11.1211 419.257 12.4883C418.3 13.8359 417.226 15.0176 416.034 16.0332C414.843 17.0488 413.622 17.9277 412.372 18.6699C411.122 19.3926 409.872 19.998 408.622 20.4863C407.392 20.9551 406.239 21.3164 405.165 21.5703C406.532 21.7852 407.948 22.127 409.413 22.5957C410.898 23.0449 412.362 23.6504 413.808 24.4121C415.253 25.1543 416.63 26.0723 417.939 27.166C419.267 28.2598 420.458 29.5391 421.513 31.0039C422.568 32.4688 423.446 34.1387 424.15 36.0137C424.853 37.8887 425.302 39.998 425.497 42.3418H414.423Z" fill="#ADEF2B"/>
<path d="M478.226 40.3496C474.925 41.4434 471.624 42.2246 468.323 42.6934C465.042 43.1816 461.683 43.4258 458.245 43.4258C453.851 43.4258 449.935 42.957 446.497 42.0195C443.079 41.0625 440.198 39.6855 437.855 37.8887C435.511 36.0918 433.724 33.8945 432.493 31.2969C431.263 28.6992 430.648 25.7598 430.648 22.4785C430.648 19.4316 431.263 16.6094 432.493 14.0117C433.743 11.3945 435.501 9.12891 437.767 7.21484C440.052 5.28125 442.806 3.77734 446.029 2.70312C449.251 1.60938 452.845 1.0625 456.81 1.0625C460.462 1.0625 463.802 1.56055 466.829 2.55664C469.876 3.5332 472.484 4.98828 474.652 6.92188C476.839 8.85547 478.529 11.2383 479.72 14.0703C480.931 16.9023 481.536 20.1641 481.536 23.8555V26.5508H441.868C442.22 27.8203 442.796 28.9824 443.597 30.0371C444.417 31.0918 445.521 31.9902 446.907 32.7324C448.294 33.4746 449.993 34.0508 452.005 34.4609C454.036 34.8711 456.458 35.0762 459.271 35.0762C461.263 35.0762 463.216 34.959 465.13 34.7246C467.044 34.4707 468.831 34.1484 470.491 33.7578C472.152 33.3477 473.646 32.8984 474.974 32.4102C476.321 31.9219 477.405 31.4336 478.226 30.9453V40.3496ZM470.726 18.582C470.628 17.5859 470.325 16.5605 469.818 15.5059C469.329 14.4316 468.548 13.4648 467.474 12.6055C466.4 11.7461 464.993 11.043 463.255 10.4961C461.517 9.92969 459.349 9.64648 456.751 9.64648C454.31 9.64648 452.2 9.94922 450.423 10.5547C448.646 11.1602 447.152 11.9121 445.941 12.8105C444.749 13.709 443.821 14.6758 443.157 15.7109C442.493 16.7461 442.064 17.7031 441.868 18.582H470.726Z" fill="#ADEF2B"/>
<path d="M500.779 42.3418H489.909V2.08789H517.155C520.085 2.08789 522.566 2.39062 524.597 2.99609C526.648 3.60156 528.308 4.46094 529.577 5.57422C530.866 6.6875 531.794 8.03516 532.361 9.61719C532.946 11.1797 533.239 12.9277 533.239 14.8613C533.239 16.5605 532.995 18.0449 532.507 19.3145C532.038 20.584 531.394 21.6777 530.573 22.5957C529.773 23.4941 528.835 24.2559 527.761 24.8809C526.687 25.5059 525.554 26.0234 524.362 26.4336L537.546 42.3418H524.831L512.644 27.5176H500.779V42.3418ZM522.253 14.8027C522.253 14.0215 522.146 13.3574 521.931 12.8105C521.736 12.2637 521.384 11.8242 520.876 11.4922C520.368 11.1406 519.685 10.8867 518.825 10.7305C517.986 10.5742 516.931 10.4961 515.661 10.4961H500.779V19.1094H515.661C516.931 19.1094 517.986 19.0312 518.825 18.875C519.685 18.7188 520.368 18.4746 520.876 18.1426C521.384 17.791 521.736 17.3418 521.931 16.7949C522.146 16.248 522.253 15.584 522.253 14.8027Z" fill="#ADEF2B"/>
</svg>
