<svg width="538" height="44" viewBox="0 0 538 44" fill="none" xmlns="http://www.w3.org/2000/svg">
<path d="M45.2344 15.5566C45.2344 17.5684 44.9414 19.4238 44.3555 21.123C43.7695 22.8027 42.8223 24.2578 41.5137 25.4883C40.2246 26.6992 38.5449 27.6465 36.4746 28.3301C34.4043 29.0137 31.8848 29.3555 28.916 29.3555H10.8691V42.0703H0V1.81641H28.916C31.8848 1.81641 34.4043 2.1582 36.4746 2.8418C38.5449 3.50586 40.2246 4.45312 41.5137 5.68359C42.8223 6.89453 43.7695 8.33984 44.3555 10.0195C44.9414 11.6992 45.2344 13.5449 45.2344 15.5566ZM34.248 15.7324C34.248 14.7949 34.1113 13.9941 33.8379 13.3301C33.584 12.6465 33.1543 12.0898 32.5488 11.6602C31.9434 11.2305 31.1523 10.918 30.1758 10.7227C29.1992 10.5078 27.998 10.4004 26.5723 10.4004H10.8691V20.7715H26.5723C27.998 20.7715 29.1992 20.6934 30.1758 20.5371C31.1523 20.3613 31.9434 20.0781 32.5488 19.6875C33.1543 19.2773 33.584 18.75 33.8379 18.1055C34.1113 17.4609 34.248 16.6699 34.248 15.7324Z" fill="white"/>
<path d="M51.5578 42.0703V1.81641H62.427V33.252H91.8117V42.0703H51.5578Z" fill="white"/>
<path d="M134.373 42.0703V38.1152C132.986 38.877 131.492 39.5508 129.891 40.1367C128.309 40.7227 126.658 41.2207 124.939 41.6309C123.221 42.041 121.443 42.3438 119.607 42.5391C117.791 42.7539 115.955 42.8613 114.1 42.8613C111.932 42.8613 109.832 42.6562 107.801 42.2461C105.789 41.8359 104.002 41.1719 102.439 40.2539C100.877 39.3359 99.6172 38.1348 98.6602 36.6504C97.7227 35.166 97.2539 33.3496 97.2539 31.2012C97.2539 28.4863 97.9961 26.2305 99.4805 24.4336C100.965 22.6172 103.23 21.1328 106.277 19.9805C109.324 18.8281 113.172 17.9395 117.82 17.3145C122.488 16.6895 128.006 16.2012 134.373 15.8496V15C134.373 14.3359 134.197 13.6816 133.846 13.0371C133.494 12.373 132.85 11.7969 131.912 11.3086C130.994 10.8008 129.725 10.3906 128.104 10.0781C126.502 9.76562 124.451 9.60938 121.951 9.60938C119.979 9.60938 118.025 9.7168 116.092 9.93164C114.178 10.127 112.322 10.4004 110.525 10.752C108.748 11.1035 107.059 11.5137 105.457 11.9824C103.855 12.4512 102.4 12.9395 101.092 13.4473V3.7793C102.459 3.42773 103.992 3.08594 105.691 2.75391C107.391 2.42188 109.158 2.13867 110.994 1.9043C112.83 1.65039 114.686 1.45508 116.561 1.31836C118.436 1.16211 120.232 1.08398 121.951 1.08398C125.33 1.08398 128.445 1.36719 131.297 1.93359C134.148 2.48047 136.6 3.33984 138.65 4.51172C140.721 5.68359 142.332 7.16797 143.484 8.96484C144.656 10.7617 145.242 12.9004 145.242 15.3809V42.0703H134.373ZM134.373 23.7012C130.193 23.8574 126.639 24.082 123.709 24.375C120.799 24.668 118.377 25.0098 116.443 25.4004C114.51 25.791 112.986 26.2109 111.873 26.6602C110.779 27.1094 109.959 27.5684 109.412 28.0371C108.865 28.5059 108.523 28.9746 108.387 29.4434C108.27 29.9121 108.211 30.3418 108.211 30.7324C108.211 31.2012 108.338 31.6602 108.592 32.1094C108.846 32.5391 109.285 32.9199 109.91 33.252C110.555 33.584 111.404 33.8477 112.459 34.043C113.514 34.2383 114.842 34.3359 116.443 34.3359C118.221 34.3359 119.959 34.1992 121.658 33.9258C123.357 33.6523 124.969 33.2812 126.492 32.8125C128.016 32.3242 129.441 31.7578 130.77 31.1133C132.117 30.4492 133.318 29.7461 134.373 29.0039V23.7012Z" fill="white"/>
<path d="M202.777 26.6016C202.777 29.2188 202.132 31.5527 200.843 33.6035C199.554 35.6543 197.718 37.3926 195.335 38.8184C192.972 40.2246 190.101 41.2988 186.722 42.041C183.363 42.7832 179.593 43.1543 175.413 43.1543C173.577 43.1543 171.644 43.0762 169.613 42.9199C167.601 42.7832 165.628 42.5781 163.695 42.3047C161.78 42.0508 159.984 41.7578 158.304 41.4258C156.624 41.0742 155.208 40.6934 154.056 40.2832V30.7324C155.306 31.2598 156.693 31.7578 158.216 32.2266C159.759 32.6953 161.429 33.1152 163.226 33.4863C165.023 33.8379 166.946 34.1211 168.997 34.3359C171.068 34.5312 173.255 34.6289 175.56 34.6289C177.728 34.6289 179.632 34.502 181.273 34.248C182.933 33.9941 184.368 33.6523 185.579 33.2227C186.79 32.793 187.796 32.3047 188.597 31.7578C189.398 31.1914 190.042 30.6152 190.53 30.0293C191.019 29.4238 191.361 28.8281 191.556 28.2422C191.771 27.6562 191.878 27.1094 191.878 26.6016V23.0566C189.886 24.5215 187.513 25.7324 184.759 26.6895C182.005 27.627 178.87 28.0957 175.355 28.0957C171.273 28.0957 167.864 27.7051 165.13 26.9238C162.415 26.123 160.238 24.9805 158.597 23.4961C156.956 21.9922 155.784 20.166 155.081 18.0176C154.398 15.8691 154.056 13.4473 154.056 10.752V1.81641H164.984V9.66797C164.984 11.25 165.189 12.6562 165.599 13.8867C166.029 15.1172 166.693 16.1523 167.591 16.9922C168.509 17.8125 169.691 18.4375 171.136 18.8672C172.581 19.2969 174.329 19.5117 176.38 19.5117C178.118 19.5117 179.759 19.2969 181.302 18.8672C182.864 18.4375 184.3 17.8711 185.609 17.168C186.917 16.4648 188.099 15.6641 189.154 14.7656C190.208 13.8672 191.116 12.9492 191.878 12.0117V1.81641H202.777V26.6016Z" fill="white"/>
<path d="M210.271 0H219.821L239.685 43.2715H230.134L210.271 0Z" fill="white"/>
<path d="M298.361 42.0703V13.7988L283.419 42.0703H272.989L258.048 13.7988V42.0703H247.179V1.81641H261.945L278.204 32.2852L294.464 1.81641H309.171V42.0703H298.361Z" fill="white"/>
<path d="M354.4 42.0703V38.1152C353.013 38.877 351.519 39.5508 349.917 40.1367C348.335 40.7227 346.685 41.2207 344.966 41.6309C343.247 42.041 341.47 42.3438 339.634 42.5391C337.818 42.7539 335.982 42.8613 334.126 42.8613C331.958 42.8613 329.859 42.6562 327.827 42.2461C325.816 41.8359 324.029 41.1719 322.466 40.2539C320.904 39.3359 319.644 38.1348 318.687 36.6504C317.749 35.166 317.28 33.3496 317.28 31.2012C317.28 28.4863 318.023 26.2305 319.507 24.4336C320.991 22.6172 323.257 21.1328 326.304 19.9805C329.351 18.8281 333.198 17.9395 337.847 17.3145C342.515 16.6895 348.032 16.2012 354.4 15.8496V15C354.4 14.3359 354.224 13.6816 353.872 13.0371C353.521 12.373 352.876 11.7969 351.939 11.3086C351.021 10.8008 349.751 10.3906 348.13 10.0781C346.529 9.76562 344.478 9.60938 341.978 9.60938C340.005 9.60938 338.052 9.7168 336.118 9.93164C334.204 10.127 332.349 10.4004 330.552 10.752C328.775 11.1035 327.085 11.5137 325.484 11.9824C323.882 12.4512 322.427 12.9395 321.118 13.4473V3.7793C322.486 3.42773 324.019 3.08594 325.718 2.75391C327.417 2.42188 329.185 2.13867 331.021 1.9043C332.857 1.65039 334.712 1.45508 336.587 1.31836C338.462 1.16211 340.259 1.08398 341.978 1.08398C345.357 1.08398 348.472 1.36719 351.323 1.93359C354.175 2.48047 356.626 3.33984 358.677 4.51172C360.747 5.68359 362.359 7.16797 363.511 8.96484C364.683 10.7617 365.269 12.9004 365.269 15.3809V42.0703H354.4ZM354.4 23.7012C350.22 23.8574 346.665 24.082 343.736 24.375C340.825 24.668 338.404 25.0098 336.47 25.4004C334.536 25.791 333.013 26.2109 331.9 26.6602C330.806 27.1094 329.986 27.5684 329.439 28.0371C328.892 28.5059 328.55 28.9746 328.413 29.4434C328.296 29.9121 328.237 30.3418 328.237 30.7324C328.237 31.2012 328.364 31.6602 328.618 32.1094C328.872 32.5391 329.312 32.9199 329.937 33.252C330.581 33.584 331.431 33.8477 332.486 34.043C333.54 34.2383 334.868 34.3359 336.47 34.3359C338.247 34.3359 339.986 34.1992 341.685 33.9258C343.384 33.6523 344.995 33.2812 346.519 32.8125C348.042 32.3242 349.468 31.7578 350.796 31.1133C352.144 30.4492 353.345 29.7461 354.4 29.0039V23.7012Z" fill="white"/>
<path d="M414.423 42.0703C414.228 39.8828 413.7 37.9688 412.841 36.3281C411.982 34.668 410.898 33.2422 409.589 32.0508C408.3 30.8594 406.835 29.873 405.195 29.0918C403.573 28.3105 401.904 27.6953 400.185 27.2461C398.466 26.7773 396.747 26.4551 395.029 26.2793C393.329 26.084 391.747 25.9863 390.282 25.9863H387.06V42.0703H376.191V1.81641H387.06V17.3438H389.286C390.79 17.3438 392.362 17.2266 394.003 16.9922C395.644 16.7578 397.265 16.3867 398.866 15.8789C400.487 15.3711 402.04 14.7168 403.525 13.916C405.009 13.1152 406.337 12.1387 407.509 10.9863C408.681 9.83398 409.657 8.50586 410.439 7.00195C411.22 5.47852 411.708 3.75 411.904 1.81641H422.978C422.782 3.94531 422.353 5.86914 421.689 7.58789C421.044 9.30664 420.234 10.8496 419.257 12.2168C418.3 13.5645 417.226 14.7461 416.034 15.7617C414.843 16.7773 413.622 17.6562 412.372 18.3984C411.122 19.1211 409.872 19.7266 408.622 20.2148C407.392 20.6836 406.239 21.0449 405.165 21.2988C406.532 21.5137 407.948 21.8555 409.413 22.3242C410.898 22.7734 412.362 23.3789 413.808 24.1406C415.253 24.8828 416.63 25.8008 417.939 26.8945C419.267 27.9883 420.458 29.2676 421.513 30.7324C422.568 32.1973 423.446 33.8672 424.15 35.7422C424.853 37.6172 425.302 39.7266 425.497 42.0703H414.423Z" fill="white"/>
<path d="M478.226 40.0781C474.925 41.1719 471.624 41.9531 468.323 42.4219C465.042 42.9102 461.683 43.1543 458.245 43.1543C453.851 43.1543 449.935 42.6855 446.497 41.748C443.079 40.791 440.198 39.4141 437.855 37.6172C435.511 35.8203 433.724 33.623 432.493 31.0254C431.263 28.4277 430.648 25.4883 430.648 22.207C430.648 19.1602 431.263 16.3379 432.493 13.7402C433.743 11.123 435.501 8.85742 437.767 6.94336C440.052 5.00977 442.806 3.50586 446.029 2.43164C449.251 1.33789 452.845 0.791016 456.81 0.791016C460.462 0.791016 463.802 1.28906 466.829 2.28516C469.876 3.26172 472.484 4.7168 474.652 6.65039C476.839 8.58398 478.529 10.9668 479.72 13.7988C480.931 16.6309 481.536 19.8926 481.536 23.584V26.2793H441.868C442.22 27.5488 442.796 28.7109 443.597 29.7656C444.417 30.8203 445.521 31.7188 446.907 32.4609C448.294 33.2031 449.993 33.7793 452.005 34.1895C454.036 34.5996 456.458 34.8047 459.271 34.8047C461.263 34.8047 463.216 34.6875 465.13 34.4531C467.044 34.1992 468.831 33.877 470.491 33.4863C472.152 33.0762 473.646 32.627 474.974 32.1387C476.321 31.6504 477.405 31.1621 478.226 30.6738V40.0781ZM470.726 18.3105C470.628 17.3145 470.325 16.2891 469.818 15.2344C469.329 14.1602 468.548 13.1934 467.474 12.334C466.4 11.4746 464.993 10.7715 463.255 10.2246C461.517 9.6582 459.349 9.375 456.751 9.375C454.31 9.375 452.2 9.67773 450.423 10.2832C448.646 10.8887 447.152 11.6406 445.941 12.5391C444.749 13.4375 443.821 14.4043 443.157 15.4395C442.493 16.4746 442.064 17.4316 441.868 18.3105H470.726Z" fill="white"/>
<path d="M500.779 42.0703H489.909V1.81641H517.155C520.085 1.81641 522.566 2.11914 524.597 2.72461C526.648 3.33008 528.308 4.18945 529.577 5.30273C530.866 6.41602 531.794 7.76367 532.361 9.3457C532.946 10.9082 533.239 12.6562 533.239 14.5898C533.239 16.2891 532.995 17.7734 532.507 19.043C532.038 20.3125 531.394 21.4062 530.573 22.3242C529.773 23.2227 528.835 23.9844 527.761 24.6094C526.687 25.2344 525.554 25.752 524.362 26.1621L537.546 42.0703H524.831L512.644 27.2461H500.779V42.0703ZM522.253 14.5312C522.253 13.75 522.146 13.0859 521.931 12.5391C521.736 11.9922 521.384 11.5527 520.876 11.2207C520.368 10.8691 519.685 10.6152 518.825 10.459C517.986 10.3027 516.931 10.2246 515.661 10.2246H500.779V18.8379H515.661C516.931 18.8379 517.986 18.7598 518.825 18.6035C519.685 18.4473 520.368 18.2031 520.876 17.8711C521.384 17.5195 521.736 17.0703 521.931 16.5234C522.146 15.9766 522.253 15.3125 522.253 14.5312Z" fill="white"/>
</svg>
