<svg width="280" height="96" viewBox="0 0 280 96" fill="none" xmlns="http://www.w3.org/2000/svg">
<path d="M46.2004 14.4863C46.2004 16.498 45.9074 18.3535 45.3215 20.0527C44.7355 21.7324 43.7883 23.1875 42.4797 24.418C41.1906 25.6289 39.5109 26.5762 37.4406 27.2598C35.3703 27.9434 32.8508 28.2852 29.882 28.2852H11.8351V41H0.966003V0.746094H29.882C32.8508 0.746094 35.3703 1.08789 37.4406 1.77148C39.5109 2.43555 41.1906 3.38281 42.4797 4.61328C43.7883 5.82422 44.7355 7.26953 45.3215 8.94922C45.9074 10.6289 46.2004 12.4746 46.2004 14.4863ZM35.2141 14.6621C35.2141 13.7246 35.0773 12.9238 34.8039 12.2598C34.55 11.5762 34.1203 11.0195 33.5148 10.5898C32.9094 10.1602 32.1183 9.84766 31.1418 9.65234C30.1652 9.4375 28.9641 9.33008 27.5383 9.33008H11.8351V19.7012H27.5383C28.9641 19.7012 30.1652 19.623 31.1418 19.4668C32.1183 19.291 32.9094 19.0078 33.5148 18.6172C34.1203 18.207 34.55 17.6797 34.8039 17.0352C35.0773 16.3906 35.2141 15.5996 35.2141 14.6621Z" fill="#ADEF2B"/>
<path d="M52.5238 41V0.746094H63.393V32.1816H92.7777V41H52.5238Z" fill="#ADEF2B"/>
<path d="M135.339 41V37.0449C133.952 37.8066 132.458 38.4805 130.857 39.0664C129.275 39.6523 127.624 40.1504 125.905 40.5605C124.187 40.9707 122.409 41.2734 120.573 41.4688C118.757 41.6836 116.921 41.791 115.066 41.791C112.898 41.791 110.798 41.5859 108.767 41.1758C106.755 40.7656 104.968 40.1016 103.405 39.1836C101.843 38.2656 100.583 37.0645 99.6262 35.5801C98.6887 34.0957 98.2199 32.2793 98.2199 30.1309C98.2199 27.416 98.9621 25.1602 100.446 23.3633C101.931 21.5469 104.196 20.0625 107.243 18.9102C110.29 17.7578 114.138 16.8691 118.786 16.2441C123.454 15.6191 128.972 15.1309 135.339 14.7793V13.9297C135.339 13.2656 135.163 12.6113 134.812 11.9668C134.46 11.3027 133.816 10.7266 132.878 10.2383C131.96 9.73047 130.691 9.32031 129.07 9.00781C127.468 8.69531 125.417 8.53906 122.917 8.53906C120.945 8.53906 118.991 8.64648 117.058 8.86133C115.144 9.05664 113.288 9.33008 111.491 9.68164C109.714 10.0332 108.025 10.4434 106.423 10.9121C104.821 11.3809 103.366 11.8691 102.058 12.377V2.70898C103.425 2.35742 104.958 2.01562 106.657 1.68359C108.357 1.35156 110.124 1.06836 111.96 0.833984C113.796 0.580078 115.652 0.384766 117.527 0.248047C119.402 0.0917969 121.198 0.0136719 122.917 0.0136719C126.296 0.0136719 129.411 0.296875 132.263 0.863281C135.114 1.41016 137.566 2.26953 139.616 3.44141C141.687 4.61328 143.298 6.09766 144.45 7.89453C145.622 9.69141 146.208 11.8301 146.208 14.3105V41H135.339ZM135.339 22.6309C131.159 22.7871 127.605 23.0117 124.675 23.3047C121.765 23.5977 119.343 23.9395 117.409 24.3301C115.476 24.7207 113.952 25.1406 112.839 25.5898C111.745 26.0391 110.925 26.498 110.378 26.9668C109.831 27.4355 109.489 27.9043 109.353 28.373C109.236 28.8418 109.177 29.2715 109.177 29.6621C109.177 30.1309 109.304 30.5898 109.558 31.0391C109.812 31.4688 110.251 31.8496 110.876 32.1816C111.521 32.5137 112.37 32.7773 113.425 32.9727C114.48 33.168 115.808 33.2656 117.409 33.2656C119.187 33.2656 120.925 33.1289 122.624 32.8555C124.323 32.582 125.935 32.2109 127.458 31.7422C128.982 31.2539 130.407 30.6875 131.736 30.043C133.083 29.3789 134.284 28.6758 135.339 27.9336V22.6309Z" fill="#ADEF2B"/>
<path d="M203.743 25.5312C203.743 28.1484 203.098 30.4824 201.809 32.5332C200.52 34.584 198.684 36.3223 196.301 37.748C193.938 39.1543 191.067 40.2285 187.688 40.9707C184.329 41.7129 180.559 42.084 176.379 42.084C174.543 42.084 172.61 42.0059 170.579 41.8496C168.567 41.7129 166.594 41.5078 164.661 41.2344C162.746 40.9805 160.95 40.6875 159.27 40.3555C157.59 40.0039 156.174 39.623 155.022 39.2129V29.6621C156.272 30.1895 157.659 30.6875 159.182 31.1562C160.725 31.625 162.395 32.0449 164.192 32.416C165.989 32.7676 167.912 33.0508 169.963 33.2656C172.034 33.4609 174.221 33.5586 176.526 33.5586C178.694 33.5586 180.598 33.4316 182.239 33.1777C183.899 32.9238 185.334 32.582 186.545 32.1523C187.756 31.7227 188.762 31.2344 189.563 30.6875C190.364 30.1211 191.008 29.5449 191.496 28.959C191.985 28.3535 192.327 27.7578 192.522 27.1719C192.737 26.5859 192.844 26.0391 192.844 25.5312V21.9863C190.852 23.4512 188.479 24.6621 185.725 25.6191C182.971 26.5566 179.836 27.0254 176.321 27.0254C172.239 27.0254 168.83 26.6348 166.096 25.8535C163.381 25.0527 161.204 23.9102 159.563 22.4258C157.922 20.9219 156.75 19.0957 156.047 16.9473C155.364 14.7988 155.022 12.377 155.022 9.68164V0.746094H165.95V8.59766C165.95 10.1797 166.155 11.5859 166.565 12.8164C166.995 14.0469 167.659 15.082 168.557 15.9219C169.475 16.7422 170.657 17.3672 172.102 17.7969C173.547 18.2266 175.295 18.4414 177.346 18.4414C179.084 18.4414 180.725 18.2266 182.268 17.7969C183.83 17.3672 185.266 16.8008 186.575 16.0977C187.883 15.3945 189.065 14.5938 190.12 13.6953C191.174 12.7969 192.082 11.8789 192.844 10.9414V0.746094H203.743V25.5312Z" fill="#ADEF2B"/>
<path d="M52.1476 94V65.7285L37.2062 94H26.7766L11.8351 65.7285V94H0.966003V53.7461H15.7316L31.9914 84.2148L48.2512 53.7461H62.9582V94H52.1476Z" fill="#ADEF2B"/>
<path d="M104.887 94V90.0449C103.5 90.8066 102.006 91.4805 100.404 92.0664C98.8223 92.6523 97.1719 93.1504 95.4531 93.5605C93.7344 93.9707 91.957 94.2734 90.1211 94.4688C88.3047 94.6836 86.4687 94.791 84.6133 94.791C82.4453 94.791 80.3457 94.5859 78.3144 94.1758C76.3027 93.7656 74.5156 93.1016 72.9531 92.1836C71.3906 91.2656 70.1308 90.0645 69.1738 88.5801C68.2363 87.0957 67.7676 85.2793 67.7676 83.1309C67.7676 80.416 68.5098 78.1602 69.9941 76.3633C71.4785 74.5469 73.7441 73.0625 76.791 71.9102C79.8379 70.7578 83.6855 69.8691 88.334 69.2441C93.0019 68.6191 98.5195 68.1309 104.887 67.7793V66.9297C104.887 66.2656 104.711 65.6113 104.359 64.9668C104.008 64.3027 103.363 63.7266 102.426 63.2383C101.508 62.7305 100.238 62.3203 98.6172 62.0078C97.0156 61.6953 94.9648 61.5391 92.4648 61.5391C90.4922 61.5391 88.539 61.6465 86.6055 61.8613C84.6914 62.0566 82.8359 62.3301 81.039 62.6816C79.2617 63.0332 77.5723 63.4434 75.9707 63.9121C74.3691 64.3809 72.914 64.8691 71.6055 65.377V55.709C72.9726 55.3574 74.5058 55.0156 76.2051 54.6836C77.9043 54.3516 79.6719 54.0684 81.5078 53.834C83.3437 53.5801 85.1992 53.3848 87.0742 53.248C88.9492 53.0918 90.7461 53.0137 92.4648 53.0137C95.8437 53.0137 98.959 53.2969 101.811 53.8633C104.662 54.4102 107.113 55.2695 109.164 56.4414C111.234 57.6133 112.846 59.0977 113.998 60.8945C115.17 62.6914 115.756 64.8301 115.756 67.3105V94H104.887ZM104.887 75.6309C100.707 75.7871 97.1523 76.0117 94.2226 76.3047C91.3125 76.5977 88.8906 76.9395 86.957 77.3301C85.0234 77.7207 83.5 78.1406 82.3867 78.5898C81.293 79.0391 80.4726 79.498 79.9258 79.9668C79.3789 80.4355 79.0371 80.9043 78.9004 81.373C78.7832 81.8418 78.7246 82.2715 78.7246 82.6621C78.7246 83.1309 78.8515 83.5898 79.1055 84.0391C79.3594 84.4688 79.7988 84.8496 80.4238 85.1816C81.0683 85.5137 81.918 85.7773 82.9726 85.9727C84.0273 86.168 85.3555 86.2656 86.957 86.2656C88.7344 86.2656 90.4726 86.1289 92.1719 85.8555C93.8711 85.582 95.4824 85.2109 97.0058 84.7422C98.5293 84.2539 99.9551 83.6875 101.283 83.043C102.631 82.3789 103.832 81.6758 104.887 80.9336V75.6309Z" fill="#ADEF2B"/>
<path d="M161.01 94C160.815 91.8125 160.287 89.8984 159.428 88.2578C158.569 86.5977 157.485 85.1719 156.176 83.9805C154.887 82.7891 153.422 81.8027 151.782 81.0215C150.161 80.2402 148.491 79.625 146.772 79.1758C145.053 78.707 143.334 78.3848 141.616 78.209C139.916 78.0137 138.334 77.916 136.87 77.916H133.647V94H122.778V53.7461H133.647V69.2734H135.873C137.377 69.2734 138.95 69.1562 140.59 68.9219C142.231 68.6875 143.852 68.3164 145.454 67.8086C147.075 67.3008 148.627 66.6465 150.112 65.8457C151.596 65.0449 152.924 64.0684 154.096 62.916C155.268 61.7637 156.245 60.4355 157.026 58.9316C157.807 57.4082 158.295 55.6797 158.491 53.7461H169.565C169.37 55.875 168.94 57.7988 168.276 59.5176C167.631 61.2363 166.821 62.7793 165.844 64.1465C164.887 65.4941 163.813 66.6758 162.621 67.6914C161.43 68.707 160.209 69.5859 158.959 70.3281C157.709 71.0508 156.459 71.6562 155.209 72.1445C153.979 72.6133 152.827 72.9746 151.752 73.2285C153.12 73.4434 154.536 73.7852 156 74.2539C157.485 74.7031 158.95 75.3086 160.395 76.0703C161.84 76.8125 163.217 77.7305 164.526 78.8242C165.854 79.918 167.045 81.1973 168.1 82.6621C169.155 84.127 170.034 85.7969 170.737 87.6719C171.44 89.5469 171.889 91.6562 172.084 94H161.01Z" fill="#ADEF2B"/>
<path d="M221.513 92.0078C218.212 93.1016 214.911 93.8828 211.611 94.3516C208.329 94.8398 204.97 95.084 201.532 95.084C197.138 95.084 193.222 94.6152 189.784 93.6777C186.366 92.7207 183.486 91.3438 181.142 89.5469C178.798 87.75 177.011 85.5527 175.78 82.9551C174.55 80.3574 173.935 77.418 173.935 74.1367C173.935 71.0898 174.55 68.2676 175.78 65.6699C177.03 63.0527 178.788 60.7871 181.054 58.873C183.339 56.9395 186.093 55.4355 189.316 54.3613C192.538 53.2676 196.132 52.7207 200.097 52.7207C203.749 52.7207 207.089 53.2188 210.116 54.2148C213.163 55.1914 215.771 56.6465 217.939 58.5801C220.126 60.5137 221.816 62.8965 223.007 65.7285C224.218 68.5605 224.823 71.8223 224.823 75.5137V78.209H185.155C185.507 79.4785 186.083 80.6406 186.884 81.6953C187.704 82.75 188.808 83.6484 190.195 84.3906C191.581 85.1328 193.28 85.709 195.292 86.1191C197.323 86.5293 199.745 86.7344 202.558 86.7344C204.55 86.7344 206.503 86.6172 208.417 86.3828C210.331 86.1289 212.118 85.8066 213.779 85.416C215.439 85.0059 216.933 84.5566 218.261 84.0684C219.609 83.5801 220.693 83.0918 221.513 82.6035V92.0078ZM214.013 70.2402C213.915 69.2441 213.612 68.2188 213.105 67.1641C212.616 66.0898 211.835 65.123 210.761 64.2637C209.687 63.4043 208.28 62.7012 206.542 62.1543C204.804 61.5879 202.636 61.3047 200.038 61.3047C197.597 61.3047 195.487 61.6074 193.71 62.2129C191.933 62.8184 190.439 63.5703 189.228 64.4688C188.036 65.3672 187.109 66.334 186.445 67.3691C185.78 68.4043 185.351 69.3613 185.155 70.2402H214.013Z" fill="#ADEF2B"/>
<path d="M242.866 94H231.996V53.7461H259.243C262.172 53.7461 264.653 54.0488 266.684 54.6543C268.735 55.2598 270.395 56.1191 271.664 57.2324C272.953 58.3457 273.881 59.6934 274.448 61.2754C275.034 62.8379 275.327 64.5859 275.327 66.5195C275.327 68.2188 275.082 69.7031 274.594 70.9727C274.125 72.2422 273.481 73.3359 272.661 74.2539C271.86 75.1523 270.922 75.9141 269.848 76.5391C268.774 77.1641 267.641 77.6816 266.45 78.0918L279.633 94H266.918L254.731 79.1758H242.866V94ZM264.34 66.4609C264.34 65.6797 264.233 65.0156 264.018 64.4688C263.823 63.9219 263.471 63.4824 262.963 63.1504C262.455 62.7988 261.772 62.5449 260.912 62.3887C260.073 62.2324 259.018 62.1543 257.748 62.1543H242.866V70.7676H257.748C259.018 70.7676 260.073 70.6895 260.912 70.5332C261.772 70.377 262.455 70.1328 262.963 69.8008C263.471 69.4492 263.823 69 264.018 68.4531C264.233 67.9062 264.34 67.2422 264.34 66.4609Z" fill="#ADEF2B"/>
</svg>
