<svg width="24" height="24" viewBox="0 0 24 24" fill="currentColor" xmlns="http://www.w3.org/2000/svg">
<mask id="mask0_156_1715" style="mask-type:alpha" maskUnits="userSpaceOnUse" x="0" y="0" width="24" height="24">
<rect width="24" height="24" />
</mask>
<g mask="url(#mask0_156_1715)">
<path d="M6.25 13C6.25 13.4142 6.58579 13.75 7 13.75H13C13.4142 13.75 13.75 13.4142 13.75 13C13.75 12.5858 13.4142 12.25 13 12.25H7C6.58579 12.25 6.25 12.5858 6.25 13ZM6.25 10C6.25 10.4142 6.58579 10.75 7 10.75H17C17.4142 10.75 17.75 10.4142 17.75 10C17.75 9.58579 17.4142 9.25 17 9.25H7C6.58579 9.25 6.25 9.58579 6.25 10ZM6.25 7C6.25 7.41421 6.58579 7.75 7 7.75H17C17.4142 7.75 17.75 7.41421 17.75 7C17.75 6.58579 17.4142 6.25 17 6.25H7C6.58579 6.25 6.25 6.58579 6.25 7ZM4.20711 19.3314C3.57714 19.9614 2.5 19.5152 2.5 18.6243V4.30775C2.5 3.80258 2.675 3.375 3.025 3.025C3.375 2.675 3.80258 2.5 4.30775 2.5H19.6923C20.1974 2.5 20.625 2.675 20.975 3.025C21.325 3.375 21.5 3.80258 21.5 4.30775V15.6923C21.5 16.1974 21.325 16.625 20.975 16.975C20.625 17.325 20.1974 17.5 19.6923 17.5H6.86693C6.33649 17.5 5.82779 17.7107 5.45271 18.0858L4.20711 19.3314ZM4.81557 16.5781C5.18999 16.2077 5.69538 16 6.22202 16H19.6923C19.7693 16 19.8398 15.9679 19.9038 15.9038C19.9679 15.8398 20 15.7692 20 15.6923V4.30775C20 4.23075 19.9679 4.16025 19.9038 4.09625C19.8398 4.03208 19.7693 4 19.6923 4H4.30775C4.23075 4 4.16025 4.03208 4.09625 4.09625C4.03208 4.16025 4 4.23075 4 4.30775V17.1452C4 17.234 4.10717 17.2787 4.17032 17.2163L4.81557 16.5781Z" />
</g>
</svg>
