<svg width="24" height="24" viewBox="0 0 24 24" fill="currentColor" xmlns="http://www.w3.org/2000/svg">
<mask id="mask0_1381_13978" style="mask-type:alpha" maskUnits="userSpaceOnUse" x="0" y="0" width="24" height="24">
<rect width="24" height="24" fill="#D9D9D9"/>
</mask>
<g mask="url(#mask0_1381_13978)">
<path d="M7.89646 5.03281L6.99246 2.33081L8.10396 1.96731L9.00796 4.65381L7.89646 5.03281ZM11.404 3.84631V1.15381H12.5965V3.84631H11.404ZM16.104 5.03281L14.9925 4.65381L15.8965 1.96731L17.008 2.34631L16.104 5.03281ZM2.37146 22.7596L2.14821 21.2751L7.42321 20.4656C7.65704 20.4246 7.86421 20.3275 8.04471 20.1743C8.22537 20.021 8.35221 19.8302 8.42521 19.6021L9.26571 16.9521C9.36821 16.6546 9.36337 16.3654 9.25121 16.0846C9.13904 15.8039 8.94254 15.5956 8.66171 15.4596L7.77896 18.2328L6.35021 17.7771L8.61746 10.6346C8.67012 10.4641 8.68204 10.2916 8.65321 10.1173C8.62437 9.94298 8.55162 9.80581 8.43496 9.70581L4.83496 16.5251C4.59379 16.9699 4.25504 17.3253 3.81871 17.5913C3.38221 17.8575 2.91129 17.9906 2.40596 17.9906H1.60596V16.4906H2.40596C2.63429 16.4906 2.84787 16.433 3.04671 16.3178C3.24571 16.2026 3.39754 16.0403 3.50221 15.8308L7.91746 7.46156L8.93671 8.03656C9.46371 8.34173 9.82912 8.78181 10.033 9.35681C10.2368 9.93181 10.2464 10.5129 10.0617 11.1001L9.12321 14.0406C9.79254 14.3046 10.2753 14.7629 10.5715 15.4156C10.8676 16.0681 10.9086 16.7372 10.6945 17.4231L9.84446 20.0731C9.68029 20.5679 9.40179 20.9852 9.00896 21.3251C8.61596 21.6647 8.16179 21.8731 7.64646 21.9501L2.37146 22.7596ZM21.629 22.7693L16.354 21.9596C15.8386 21.8827 15.3845 21.6744 14.9915 21.3346C14.5986 20.9949 14.3201 20.5776 14.156 20.0828L13.306 17.4328C13.0918 16.7468 13.1328 16.0776 13.429 15.4251C13.7251 14.7726 14.2079 14.3142 14.8772 14.0501L13.9387 11.1096C13.754 10.5224 13.7636 9.94131 13.9675 9.36631C14.1713 8.79131 14.5367 8.35131 15.0637 8.04631L16.083 7.47131L20.4982 15.8406C20.6025 16.0499 20.754 16.2121 20.9525 16.3273C21.1508 16.4425 21.3648 16.5001 21.5945 16.5001H22.3945V18.0001H21.5945C21.0893 18.0001 20.6185 17.8671 20.182 17.6011C19.7455 17.3351 19.4066 16.9796 19.1655 16.5348L15.5655 9.71531C15.4488 9.81531 15.376 9.95256 15.3472 10.1271C15.3184 10.3014 15.3303 10.4738 15.383 10.6443L17.6502 17.7866L16.2215 18.2423L15.3387 15.4693C15.0579 15.6051 14.8614 15.8135 14.7492 16.0943C14.637 16.3751 14.6322 16.6642 14.7347 16.9616L15.5752 19.6116C15.6482 19.8397 15.775 20.0305 15.9557 20.1838C16.1362 20.3371 16.3434 20.4342 16.5772 20.4751L21.8522 21.2848L21.629 22.7693Z" />
</g>
</svg>
