<svg width="24" height="24" viewBox="0 0 24 24" fill="currentColor" xmlns="http://www.w3.org/2000/svg">
<mask id="mask0_129_2788" style="mask-type:alpha" maskUnits="userSpaceOnUse" x="0" y="0" width="24" height="24">
<rect width="24" height="24" />
</mask>
<g mask="url(#mask0_129_2788)">
<path d="M12.0002 21.5C10.8207 21.5 9.71559 21.2769 8.68492 20.8307C7.65409 20.3846 6.75534 19.7782 5.98867 19.0115C5.22201 18.2448 4.61559 17.3461 4.16942 16.3152C3.72326 15.2846 3.50017 14.1795 3.50017 13C3.50017 11.8205 3.72326 10.7154 4.16942 9.68474C4.61559 8.65391 5.22201 7.75516 5.98867 6.98849C6.75534 6.22182 7.65409 5.61541 8.68492 5.16924C9.71559 4.72307 10.8207 4.49999 12.0002 4.49999C13.1797 4.49999 14.2848 4.72307 15.3154 5.16924C16.3463 5.61541 17.245 6.22182 18.0117 6.98849C18.7783 7.75516 19.3848 8.65391 19.8309 9.68474C20.2771 10.7154 20.5002 11.8205 20.5002 13C20.5002 14.1795 20.2771 15.2846 19.8309 16.3152C19.3848 17.3461 18.7783 18.2448 18.0117 19.0115C17.245 19.7782 16.3463 20.3846 15.3154 20.8307C14.2848 21.2769 13.1797 21.5 12.0002 21.5ZM14.4462 16.5C14.7372 16.791 15.2091 16.791 15.5002 16.5C15.7912 16.2089 15.7912 15.737 15.5002 15.446L13.71 13.656C13.0954 13.0415 12.7502 12.208 12.7502 11.3389V8.74999C12.7502 8.33578 12.4144 7.99999 12.0002 7.99999C11.586 7.99999 11.2502 8.33578 11.2502 8.74999V10.6519V11.7617C11.2502 12.749 11.6424 13.696 12.3406 14.3942L14.4462 16.5ZM5.22705 3.41536C5.51804 3.12437 5.98983 3.12434 6.28086 3.4153C6.57194 3.70631 6.57197 4.1782 6.28092 4.46924L3.46942 7.28074C3.17838 7.57178 2.70649 7.57176 2.41548 7.28068C2.12452 6.98965 2.12455 6.51786 2.41555 6.22687L5.22705 3.41536ZM17.7195 3.4153C18.0105 3.12434 18.4823 3.12437 18.7733 3.41536L21.5848 6.22686C21.8758 6.51786 21.8758 6.98965 21.5849 7.28068C21.2938 7.57176 20.822 7.57178 20.5309 7.28074L17.7194 4.46924C17.4284 4.17819 17.4284 3.70631 17.7195 3.4153ZM12.0002 20C13.9438 20 15.5964 19.3192 16.9579 17.9577C18.3194 16.5962 19.0002 14.9437 19.0002 13C19.0002 11.0563 18.3194 9.40374 16.9579 8.04224C15.5964 6.68074 13.9438 5.99999 12.0002 5.99999C10.0565 5.99999 8.40392 6.68074 7.04242 8.04224C5.68092 9.40374 5.00017 11.0563 5.00017 13C5.00017 14.9437 5.68092 16.5962 7.04242 17.9577C8.40392 19.3192 10.0565 20 12.0002 20Z" />
</g>
</svg>
