<svg width="24" height="24" viewBox="0 0 24 24" fill="#334155" xmlns="http://www.w3.org/2000/svg">
<mask id="mask0_129_2774" style="mask-type:alpha" maskUnits="userSpaceOnUse" x="0" y="0" width="24" height="24">
<rect width="24" height="24" fill="#D9D9D9"/>
</mask>
<g mask="url(#mask0_129_2774)">
<path d="M7 21C6.45 21 5.97917 20.8042 5.5875 20.4125C5.19583 20.0208 5 19.55 5 19V6C4.44772 6 4 5.55228 4 5C4 4.44772 4.44772 4 5 4H9C9 3.44772 9.44772 3 10 3H14C14.5523 3 15 3.44772 15 4H19C19.5523 4 20 4.44772 20 5C20 5.55228 19.5523 6 19 6V19C19 19.55 18.8042 20.0208 18.4125 20.4125C18.0208 20.8042 17.55 21 17 21H7ZM17 6.5C17 6.22386 16.7761 6 16.5 6H7.5C7.22386 6 7 6.22386 7 6.5V18.5C7 18.7761 7.22386 19 7.5 19H16.5C16.7761 19 17 18.7761 17 18.5V6.5ZM9 16C9 16.5523 9.44772 17 10 17C10.5523 17 11 16.5523 11 16V9C11 8.44772 10.5523 8 10 8C9.44772 8 9 8.44772 9 9V16ZM13 16C13 16.5523 13.4477 17 14 17C14.5523 17 15 16.5523 15 16V9C15 8.44772 14.5523 8 14 8C13.4477 8 13 8.44772 13 9V16Z" />
</g>
</svg>
