<svg width="24" height="24" viewBox="0 0 24 24" fill="#334155" xmlns="http://www.w3.org/2000/svg">
<mask id="mask0_129_2833" style="mask-type:alpha" maskUnits="userSpaceOnUse" x="0" y="0" width="24" height="24">
<rect width="24" height="24" fill="#D9D9D9"/>
</mask>
<g mask="url(#mask0_129_2833)">
<path d="M16.1 13.3L14.65 11.85C14.8 11.0667 14.575 10.3333 13.975 9.64999C13.375 8.96665 12.6 8.69999 11.65 8.84999L10.2 7.39999C10.4833 7.26665 10.7708 7.16665 11.0625 7.09999C11.3542 7.03332 11.6667 6.99999 12 6.99999C13.25 6.99999 14.3125 7.43749 15.1875 8.31249C16.0625 9.18749 16.5 10.25 16.5 11.5C16.5 11.8333 16.4667 12.1458 16.4 12.4375C16.3333 12.7292 16.2333 13.0167 16.1 13.3ZM19.3 16.45L17.85 15.05C18.4833 14.5667 19.0458 14.0375 19.5375 13.4625C19.9301 13.0033 20.2776 12.4936 20.5799 11.9334C20.7257 11.6633 20.723 11.3379 20.5747 11.0692C19.7562 9.58693 18.6355 8.39303 17.2125 7.48749C15.6542 6.49582 13.9167 5.99999 12 5.99999C11.5167 5.99999 11.0417 6.03332 10.575 6.09999C10.1083 6.16665 9.65 6.26665 9.2 6.39999L7.65 4.84999C8.33333 4.56665 9.03333 4.35415 9.75 4.21249C10.4667 4.07082 11.2167 3.99999 12 3.99999C14.5167 3.99999 16.7583 4.69582 18.725 6.08749C20.363 7.24662 21.6253 8.69191 22.5118 10.4234C22.8581 11.0997 22.8617 11.9016 22.5166 12.5786C22.2207 13.1592 21.8776 13.7121 21.4875 14.2375C20.8625 15.0792 20.1333 15.8167 19.3 16.45ZM20.4979 21.9021C20.1118 22.2882 19.4864 22.2901 19.0979 21.9063L15.6 18.45C15.0167 18.6333 14.4292 18.7708 13.8375 18.8625C13.2458 18.9542 12.6333 19 12 19C9.48333 19 7.24167 18.3042 5.275 16.9125C3.63965 15.7553 2.37884 14.3128 1.49256 12.5852C1.1431 11.904 1.14192 11.0956 1.49222 10.4148C1.7392 9.93481 2.0168 9.47572 2.325 9.03749C2.85833 8.27915 3.46667 7.59999 4.15 6.99999L2.09054 4.90308C1.70816 4.51376 1.71098 3.88901 2.09685 3.50314C2.48519 3.1148 3.11481 3.1148 3.50315 3.50314L20.4979 20.4979C20.8857 20.8857 20.8857 21.5143 20.4979 21.9021ZM5.55 8.39999C5.06667 8.83332 4.625 9.30832 4.225 9.82499C3.92259 10.2156 3.65352 10.63 3.41779 11.0683C3.27309 11.3373 3.27652 11.6611 3.42411 11.9285C4.24267 13.4119 5.3638 14.6065 6.7875 15.5125C8.34583 16.5042 10.0833 17 12 17C12.3333 17 12.6583 16.9792 12.975 16.9375C13.2917 16.8958 13.6167 16.85 13.95 16.8L13.05 15.85C12.8667 15.9 12.6917 15.9375 12.525 15.9625C12.3583 15.9875 12.1833 16 12 16C10.75 16 9.6875 15.5625 8.8125 14.6875C7.9375 13.8125 7.5 12.75 7.5 11.5C7.5 11.3167 7.5125 11.1417 7.5375 10.975C7.5625 10.8083 7.6 10.6333 7.65 10.45L5.55 8.39999Z" />
</g>
</svg>
