<svg width="24" height="24" viewBox="0 0 24 24" fill="currentColor" xmlns="http://www.w3.org/2000/svg">
<mask id="mask0_129_2833" style="mask-type:alpha" maskUnits="userSpaceOnUse" x="0" y="0" width="24" height="24">
<rect width="24" height="24" />
</mask>
<g mask="url(#mask0_129_2833)">
<mask id="mask1_129_2833" style="mask-type:alpha" maskUnits="userSpaceOnUse" x="0" y="0" width="24" height="24">
<rect width="24" height="24" />
</mask>
<g mask="url(#mask1_129_2833)">
<path d="M15.7731 12.973L14.6501 11.85C14.8001 11.0218 14.5638 10.2773 13.9413 9.61625C13.319 8.95542 12.5552 8.7 11.6501 8.85L10.5271 7.727C10.7527 7.62567 10.9842 7.54967 11.2213 7.499C11.4585 7.44834 11.7181 7.423 12.0001 7.423C13.1347 7.423 14.0979 7.81884 14.8896 8.6105C15.6812 9.40217 16.0771 10.3653 16.0771 11.5C16.0771 11.782 16.0517 12.0448 16.0011 12.2885C15.9504 12.532 15.8744 12.7602 15.7731 12.973ZM18.9538 16.0845L17.8501 15.05C18.4834 14.5667 19.0459 14.0375 19.5376 13.4625C19.9701 12.9567 20.3477 12.3897 20.6706 11.7614C20.7548 11.5976 20.7532 11.4031 20.6672 11.2403C19.8414 9.67854 18.6899 8.42762 17.2126 7.4875C15.6542 6.49584 13.9167 6 12.0001 6C11.5167 6 11.0417 6.03334 10.5751 6.1C10.1084 6.16667 9.65007 6.26667 9.20007 6.4L8.03482 5.23475C8.66682 4.98342 9.31233 4.79817 9.97132 4.679C10.6303 4.55967 11.3066 4.5 12.0001 4.5C14.3436 4.5 16.457 5.14617 18.3403 6.4385C19.9906 7.57091 21.2496 9.00648 22.1173 10.7452C22.3546 11.2205 22.3549 11.7797 22.1161 12.2542C21.8077 12.8671 21.4443 13.4497 21.0261 14.002C20.4394 14.7763 19.7487 15.4705 18.9538 16.0845ZM20.2875 21.3432C19.9967 21.634 19.5255 21.635 19.2336 21.3452L15.7156 17.8538C15.2027 18.0436 14.6344 18.1988 14.0106 18.3193C13.3869 18.4398 12.7167 18.5 12.0001 18.5C9.65007 18.5 7.53666 17.8538 5.65982 16.5615C4.01664 15.4302 2.75913 13.9962 1.8873 12.2597C1.6473 11.7816 1.64681 11.2181 1.88951 10.7414C2.19544 10.1405 2.55537 9.56939 2.96932 9.028C3.55399 8.26317 4.19757 7.6 4.90007 7.0385L2.65346 4.76694C2.36436 4.47463 2.36569 4.00369 2.65643 3.71302C2.94827 3.42126 3.42136 3.42128 3.71315 3.71308L20.2875 20.2874C20.579 20.5789 20.579 21.0516 20.2875 21.3432ZM5.95407 8.09225C5.42574 8.51275 4.91191 9.01825 4.41257 9.60875C3.97782 10.1227 3.61522 10.6671 3.32475 11.2418C3.24297 11.4037 3.24598 11.595 3.33066 11.7553C4.15656 13.3191 5.30887 14.5715 6.78757 15.5125C8.34591 16.5042 10.0834 17 12.0001 17C12.4552 17 12.9085 16.9615 13.3598 16.8845C13.811 16.8077 14.1937 16.7283 14.5078 16.6463L13.2423 15.35C13.0718 15.4192 12.8744 15.4743 12.6501 15.5153C12.4257 15.5564 12.2091 15.577 12.0001 15.577C10.8654 15.577 9.90224 15.1812 9.11058 14.3895C8.31891 13.5978 7.92307 12.6347 7.92307 11.5C7.92307 11.2975 7.94366 11.0857 7.98483 10.8645C8.02583 10.6433 8.08091 10.4411 8.15007 10.2578L5.95407 8.09225Z" />
</g>
</g>
</svg>
