<svg width="24" height="24" viewBox="0 0 24 24" fill="currentColor" xmlns="http://www.w3.org/2000/svg">
<mask id="mask0_129_2780" style="mask-type:alpha" maskUnits="userSpaceOnUse" x="0" y="0" width="24" height="24">
<rect width="24" height="24" />
</mask>
<g mask="url(#mask0_129_2780)">
<path d="M13.1038 19.3345C12.4761 19.8988 11.5239 19.8988 10.8963 19.3345C9.23858 17.8307 7.86775 16.5384 6.78375 15.4578C5.69975 14.3769 4.84075 13.415 4.20675 12.572C3.57275 11.7292 3.12983 10.9603 2.878 10.2653C2.626 9.57044 2.5 8.86536 2.5 8.15002C2.5 6.73086 2.9785 5.54269 3.9355 4.58552C4.89267 3.62852 6.08083 3.15002 7.5 3.15002C8.373 3.15002 9.198 3.35419 9.975 3.76252C10.752 4.17086 11.427 4.75644 12 5.51927C12.573 4.75644 13.248 4.17086 14.025 3.76252C14.802 3.35419 15.627 3.15002 16.5 3.15002C17.9192 3.15002 19.1073 3.62852 20.0645 4.58552C21.0215 5.54269 21.5 6.73086 21.5 8.15002C21.5 8.86536 21.374 9.57044 21.122 10.2653C20.8702 10.9603 20.4272 11.7292 19.7932 12.572C19.1592 13.415 18.3018 14.3769 17.221 15.4578C16.1403 16.5384 14.7679 17.8307 13.1038 19.3345ZM11.5989 17.9365C11.8264 18.1433 12.1739 18.1437 12.4019 17.9374C13.8218 16.6521 15.0045 15.539 15.95 14.598C16.9833 13.5699 17.8 12.6766 18.4 11.9183C19 11.1599 19.4167 10.4865 19.65 9.89802C19.8833 9.30969 20 8.72702 20 8.15002C20 7.15002 19.6667 6.31669 19 5.65002C18.3333 4.98336 17.5 4.65002 16.5 4.65002C15.7103 4.65002 14.9805 4.87402 14.3105 5.32202C13.8267 5.64574 13.4156 6.0609 13.0772 6.56749C12.8323 6.93421 12.4397 7.19227 11.9987 7.19227C11.5591 7.19227 11.1672 6.93593 10.9232 6.57026C10.5812 6.05773 10.1683 5.64007 9.6845 5.31727C9.01783 4.87244 8.28967 4.65002 7.5 4.65002C6.50633 4.65002 5.67458 4.98336 5.00475 5.65002C4.33492 6.31669 4 7.15002 4 8.15002C4 8.72702 4.11667 9.30969 4.35 9.89802C4.58333 10.4865 5 11.1599 5.6 11.9183C6.2 12.6766 7.01667 13.5683 8.05 14.5933C8.99567 15.5313 10.1786 16.6457 11.5989 17.9365Z" />
</g>
</svg>
