<svg width="24" height="24" viewBox="0 0 24 24"  xmlns="http://www.w3.org/2000/svg">
<mask id="mask0_156_1722" style="mask-type:alpha" maskUnits="userSpaceOnUse" x="0" y="-1" width="24" height="25">
<rect y="-0.236549" width="24" height="24" />
</mask>
<g mask="url(#mask0_156_1722)">
<path d="M6 18.1635C6 18.4948 6.26863 18.7635 6.6 18.7635H8.74625C9.07762 18.7635 9.34625 18.4948 9.34625 18.1635V14.8212C9.34625 13.7166 10.2417 12.8212 11.3463 12.8212H12.6537C13.7583 12.8212 14.6538 13.7166 14.6538 14.8212V18.1635C14.6538 18.4948 14.9224 18.7635 15.2538 18.7635H17.4C17.7314 18.7635 18 18.4948 18 18.1635V10.0627C18 9.87426 17.9115 9.69678 17.761 9.58342L12.361 5.5161C12.1473 5.35511 11.8527 5.35511 11.639 5.5161L6.23902 9.58342C6.08851 9.69678 6 9.87426 6 10.0627V18.1635ZM6.5 20.2635C5.39543 20.2635 4.5 19.368 4.5 18.2635V10.0114C4.5 9.38304 4.79531 8.79121 5.29738 8.41337L10.7974 4.27426C11.5096 3.73829 12.4904 3.73829 13.2026 4.27426L18.7026 8.41337C19.2047 8.79121 19.5 9.38304 19.5 10.0114V18.2635C19.5 19.368 18.6046 20.2635 17.5 20.2635H15.1537C14.0492 20.2635 13.1538 19.368 13.1538 18.2635V14.9212C13.1538 14.5898 12.8851 14.3212 12.5538 14.3212H11.4462C11.1149 14.3212 10.8463 14.5898 10.8463 14.9212V18.2635C10.8463 19.368 9.95082 20.2635 8.84625 20.2635H6.5Z" />
</g>
</svg>
