<svg width="24" height="24" viewBox="0 0 24 24" fill="#334155" xmlns="http://www.w3.org/2000/svg">
<mask id="mask0_156_1722" style="mask-type:alpha" maskUnits="userSpaceOnUse" x="0" y="0" width="24" height="24">
<rect width="24" height="24" fill="#D9D9D9"/>
</mask>
<g mask="url(#mask0_156_1722)">
<path d="M7 20C5.89543 20 5 19.1046 5 18V10.85L3.00108 12.3849C2.56013 12.7235 1.92757 12.6368 1.594 12.192C1.26511 11.7535 1.35117 11.1318 1.78682 10.7992L11.3613 3.4877C11.7385 3.1997 12.2617 3.19952 12.639 3.48724L16 6.05V5C16 4.44772 16.4477 4 17 4H18C18.5523 4 19 4.44772 19 5V8.35L22.2125 10.7995C22.6484 11.1319 22.7347 11.7537 22.4058 12.1923C22.0723 12.6369 21.44 12.7236 20.9992 12.3851L19 10.85V18C19 19.1046 18.1046 20 17 20H15C13.8954 20 13 19.1046 13 18V14.3C13 14.1343 12.8657 14 12.7 14H11.3C11.1343 14 11 14.1343 11 14.3V18C11 19.1046 10.1046 20 9 20H7ZM7 17.5C7 17.7761 7.22386 18 7.5 18H8.5C8.77614 18 9 17.7761 9 17.5V13C9 12.4477 9.44772 12 10 12H14C14.5523 12 15 12.4477 15 13V17.5C15 17.7761 15.2239 18 15.5 18H16.5C16.7761 18 17 17.7761 17 17.5V9.82103C17 9.50851 16.8539 9.21396 16.6051 9.02486L12.6051 5.98486C12.2475 5.71308 11.7525 5.71308 11.3949 5.98486L7.39492 9.02486C7.1461 9.21396 7 9.50851 7 9.82103V17.5ZM10.0225 9.72611C9.99694 9.88981 10.1343 10.025 10.3 10.025H13.7C13.8657 10.025 14.0031 9.88981 13.9775 9.72611C13.9151 9.32591 13.7226 8.98804 13.4 8.7125C13 8.37083 12.5333 8.2 12 8.2C11.4667 8.2 11 8.37083 10.6 8.7125C10.2774 8.98804 10.0849 9.32591 10.0225 9.72611Z" />
</g>
</svg>
