<svg width="24" height="24" viewBox="0 0 24 24" fill="#334155" xmlns="http://www.w3.org/2000/svg">
<mask id="mask0_129_2823" style="mask-type:alpha" maskUnits="userSpaceOnUse" x="0" y="0" width="24" height="24">
<rect width="24" height="24" fill="#D9D9D9"/>
</mask>
<g mask="url(#mask0_129_2823)">
<path d="M12 13C11.0333 13 10.2083 12.6583 9.525 11.975C8.84167 11.2917 8.5 10.4667 8.5 9.5C8.5 8.53333 8.84167 7.70833 9.525 7.025C10.2083 6.34167 11.0333 6 12 6C12.9667 6 13.7917 6.34167 14.475 7.025C15.1583 7.70833 15.5 8.53333 15.5 9.5C15.5 10.4667 15.1583 11.2917 14.475 11.975C13.7917 12.6583 12.9667 13 12 13ZM12 11C12.4167 11 12.7708 10.8542 13.0625 10.5625C13.3542 10.2708 13.5 9.91667 13.5 9.5C13.5 9.08333 13.3542 8.72917 13.0625 8.4375C12.7708 8.14583 12.4167 8 12 8C11.5833 8 11.2292 8.14583 10.9375 8.4375C10.6458 8.72917 10.5 9.08333 10.5 9.5C10.5 9.91667 10.6458 10.2708 10.9375 10.5625C11.2292 10.8542 11.5833 11 12 11ZM13.0429 21.8627C12.4027 22.2539 11.5973 22.2539 10.9571 21.8627L3.9571 17.5849C3.36259 17.2216 3 16.5751 3 15.8783V8.12167C3 7.42494 3.36259 6.77842 3.9571 6.41511L10.9571 2.13733C11.5973 1.74608 12.4027 1.74608 13.0429 2.13733L20.0429 6.41511C20.6374 6.77842 21 7.42494 21 8.12167V15.8783C21 16.5751 20.6374 17.2216 20.0429 17.5849L13.0429 21.8627ZM10.9473 19.5233C11.5923 19.9226 12.4077 19.9226 13.0527 19.5233L15.675 17.9C15.1083 17.6 14.5125 17.375 13.8875 17.225C13.2625 17.075 12.6333 17 12 17C11.3667 17 10.7375 17.075 10.1125 17.225C9.4875 17.375 8.89167 17.6 8.325 17.9L10.9473 19.5233ZM6.4 16.725C7.23333 16.1583 8.125 15.7292 9.075 15.4375C10.025 15.1458 11 15 12 15C13 15 13.975 15.1458 14.925 15.4375C15.875 15.7292 16.7667 16.1583 17.6 16.725L18.0154 16.4802C18.6255 16.1207 19 15.4653 19 14.7571V9.24705C19 8.55011 18.6372 7.90343 18.0424 7.54018L13.0424 4.48661C12.4024 4.09577 11.5976 4.09577 10.9576 4.48661L5.95759 7.54018C5.3628 7.90343 5 8.55011 5 9.24705V14.7571C5 15.4653 5.3745 16.1207 5.98462 16.4802L6.4 16.725Z" />
</g>
</svg>
