<svg width="24" height="24" viewBox="0 0 24 24"  xmlns="http://www.w3.org/2000/svg">
<mask id="mask0_407_4451" style="mask-type:alpha" maskUnits="userSpaceOnUse" x="0" y="0" width="24" height="24">
<rect width="24" height="24" />
</mask>
<g mask="url(#mask0_407_4451)">
<path d="M12 12.75C11.0975 12.75 10.3302 12.434 9.698 11.802C9.066 11.1698 8.75 10.4025 8.75 9.49999C8.75 8.59749 9.066 7.83015 9.698 7.19799C10.3302 6.56599 11.0975 6.24999 12 6.24999C12.9025 6.24999 13.6698 6.56599 14.302 7.19799C14.934 7.83015 15.25 8.59749 15.25 9.49999C15.25 10.4025 14.934 11.1698 14.302 11.802C13.6698 12.434 12.9025 12.75 12 12.75ZM12 11.25C12.4808 11.25 12.8927 11.0785 13.2355 10.7355C13.5785 10.3927 13.75 9.98082 13.75 9.49999C13.75 9.01915 13.5785 8.60732 13.2355 8.26449C12.8927 7.92149 12.4808 7.74999 12 7.74999C11.5192 7.74999 11.1073 7.92149 10.7645 8.26449C10.4215 8.60732 10.25 9.01915 10.25 9.49999C10.25 9.98082 10.4215 10.3927 10.7645 10.7355C11.1073 11.0785 11.5192 11.25 12 11.25ZM13.0426 21.2766C12.4025 21.6676 11.5975 21.6676 10.9574 21.2766L4.45742 17.3061C3.86273 16.9428 3.5 16.2962 3.5 15.5993V8.40065C3.5 7.70379 3.86273 7.05716 4.45742 6.69389L10.9574 2.72335C11.5975 2.33236 12.4025 2.33236 13.0426 2.72335L19.5426 6.69389C20.1373 7.05716 20.5 7.70379 20.5 8.40065V15.5993C20.5 16.2962 20.1373 16.9428 19.5426 17.3061L13.0426 21.2766ZM11.6855 19.9814C11.8784 20.1001 12.1216 20.1001 12.3145 19.9814L15.9155 17.7652C15.3167 17.4332 14.6856 17.1811 14.0223 17.0087C13.3588 16.8362 12.6847 16.75 12 16.75C11.3153 16.75 10.6412 16.8362 9.97775 17.0087C9.31442 17.1811 8.68333 17.4332 8.0845 17.7652L11.6855 19.9814ZM6.6405 16.8787C7.44167 16.3571 8.29642 15.9552 9.20475 15.673C10.1131 15.391 11.0448 15.25 12 15.25C12.9552 15.25 13.8869 15.391 14.7952 15.673C15.7036 15.9552 16.5583 16.3571 17.3595 16.8787L18.7074 16.0745C18.8889 15.9663 19 15.7706 19 15.5593V8.4616C19 8.25252 18.8912 8.05852 18.7127 7.94954L12.3127 4.04097C12.1207 3.92372 11.8793 3.92372 11.6873 4.04097L5.28728 7.94954C5.10884 8.05852 5 8.25252 5 8.4616V15.5593C5 15.7706 5.11113 15.9663 5.29259 16.0745L6.6405 16.8787Z" />
</g>
</svg>
