<svg width="24" height="24" viewBox="0 0 24 24" fill="#334155" xmlns="http://www.w3.org/2000/svg">
<mask id="mask0_129_2783" style="mask-type:alpha" maskUnits="userSpaceOnUse" x="0" y="0" width="24" height="24">
<rect width="24" height="24" fill="#D9D9D9"/>
</mask>
<g mask="url(#mask0_129_2783)">
<path d="M5 21C4.45 21 3.97917 20.8042 3.5875 20.4125C3.19583 20.0208 3 19.55 3 19V5C3 4.45 3.19583 3.97917 3.5875 3.5875C3.97917 3.19583 4.45 3 5 3H19C19.55 3 20.0208 3.19583 20.4125 3.5875C20.8042 3.97917 21 4.45 21 5V19C21 19.55 20.8042 20.0208 20.4125 20.4125C20.0208 20.8042 19.55 21 19 21H5ZM5 18C5 18.5523 5.44772 19 6 19H18C18.5523 19 19 18.5523 19 18V6C19 5.44772 18.5523 5 18 5H6C5.44772 5 5 5.44772 5 6V18ZM6.6 16.2C6.35279 16.5296 6.58798 17 7 17H17C17.412 17 17.6472 16.5296 17.4 16.2L14.65 12.5333C14.45 12.2667 14.05 12.2667 13.85 12.5333L11.65 15.4667C11.45 15.7333 11.05 15.7333 10.85 15.4667L9.4 13.5333C9.2 13.2667 8.8 13.2667 8.6 13.5333L6.6 16.2Z" />
</g>
</svg>
