<svg width="24" height="24" viewBox="0 0 24 24" fill="#334155" xmlns="http://www.w3.org/2000/svg">
<mask id="mask0_129_2766" style="mask-type:alpha" maskUnits="userSpaceOnUse" x="0" y="0" width="24" height="24">
<rect width="24" height="24" fill="#D9D9D9"/>
</mask>
<g mask="url(#mask0_129_2766)">
<path d="M10.5 7C10.5 6.45 10.6958 5.97917 11.0875 5.5875C11.4792 5.19583 11.95 5 12.5 5C13.05 5 13.5208 5.19583 13.9125 5.5875C14.3042 5.97917 14.5 6.45 14.5 7C14.5 7.55 14.3042 8.02083 13.9125 8.4125C13.5208 8.80417 13.05 9 12.5 9C11.95 9 11.4792 8.80417 11.0875 8.4125C10.6958 8.02083 10.5 7.55 10.5 7ZM13.9142 22.5858C13.1332 23.3668 11.8668 23.3668 11.0858 22.5858L8.94799 20.448C8.40404 19.904 8.34284 19.0429 8.80439 18.4275C9.2166 17.8779 9.21661 17.1221 8.80439 16.5725L8.73869 16.4849C8.29835 15.8978 8.28676 15.0938 8.70998 14.4942L9.5 13.375V12.2C8.6 11.6667 7.875 10.9458 7.325 10.0375C6.775 9.12917 6.5 8.11667 6.5 7C6.5 5.33333 7.08333 3.91667 8.25 2.75C9.41667 1.58333 10.8333 1 12.5 1C14.1667 1 15.5833 1.58333 16.75 2.75C17.9167 3.91667 18.5 5.33333 18.5 7C18.5 8.11667 18.225 9.12917 17.675 10.0375C17.125 10.9458 16.4 11.6667 15.5 12.2V20.1716C15.5 20.702 15.2893 21.2107 14.9142 21.5858L13.9142 22.5858ZM8.5 7C8.5 7.93333 8.78333 8.75417 9.35 9.4625C9.58326 9.75407 9.84193 10.0054 10.126 10.2165C10.8519 10.7558 11.5 11.5034 11.5 12.4078V14L10.8936 14.8578C10.6439 15.211 10.6497 15.6848 10.9079 16.0319L11.152 16.36C11.6533 17.0339 11.639 17.9661 11.1246 18.63C10.8408 18.9965 10.8707 19.5207 11.1984 19.8484L11.7929 20.4429C12.1834 20.8334 12.8166 20.8334 13.2071 20.4429C13.3946 20.2554 13.5 20.001 13.5 19.7358V12.4078C13.5 11.5034 14.1481 10.7558 14.874 10.2165C15.1581 10.0054 15.4167 9.75407 15.65 9.4625C16.2167 8.75417 16.5 7.93333 16.5 7C16.5 5.9 16.1083 4.95833 15.325 4.175C14.5417 3.39167 13.6 3 12.5 3C11.4 3 10.4583 3.39167 9.675 4.175C8.89167 4.95833 8.5 5.9 8.5 7Z" />
</g>
</svg>
