<svg width="18" height="18" viewBox="0 0 18 18" fill="#334155" xmlns="http://www.w3.org/2000/svg">
<path d="M9.36914 17.2217C9.14521 17.371 8.85284 17.371 8.62891 17.2217L8.99902 16.667L9.36914 17.2217ZM14.332 8C14.332 6.58551 13.7707 5.22871 12.7705 4.22852C11.7703 3.22832 10.4135 2.66699 8.99902 2.66699C7.58454 2.66699 6.22773 3.22832 5.22754 4.22852C4.22734 5.22871 3.66602 6.58551 3.66602 8C3.66602 10.0654 5.00992 12.0697 6.4834 13.625C7.20636 14.3881 7.93131 15.0131 8.47656 15.4473C8.67913 15.6086 8.85718 15.7418 8.99902 15.8467C9.14087 15.7418 9.31891 15.6086 9.52148 15.4473C10.0667 15.0131 10.7917 14.3881 11.5146 13.625C12.9881 12.0697 14.332 10.0654 14.332 8ZM15.666 8C15.666 10.6012 14.0099 12.9307 12.4834 14.542C11.7065 15.362 10.9312 16.0287 10.3516 16.4902C10.0613 16.7214 9.81893 16.9025 9.64746 17.0264C9.56172 17.0883 9.49364 17.1362 9.44629 17.1689C9.42267 17.1853 9.4036 17.1972 9.39062 17.2061C9.38433 17.2103 9.37963 17.2143 9.37598 17.2168C9.37417 17.218 9.37221 17.219 9.37109 17.2197L9.37012 17.2207H9.36914L8.99902 16.667L8.62891 17.2207H8.62793L8.62695 17.2197C8.62584 17.219 8.62388 17.218 8.62207 17.2168C8.61842 17.2143 8.61372 17.2103 8.60742 17.2061C8.59445 17.1972 8.57538 17.1853 8.55176 17.1689C8.50441 17.1362 8.43632 17.0883 8.35059 17.0264C8.17912 16.9025 7.93674 16.7214 7.64648 16.4902C7.06682 16.0287 6.29154 15.362 5.51465 14.542C3.98816 12.9307 2.33203 10.6012 2.33203 8C2.33203 6.23189 3.03491 4.53638 4.28516 3.28613C5.5354 2.03589 7.23091 1.33301 8.99902 1.33301C10.7671 1.33301 12.4626 2.03589 13.7129 3.28613C14.9631 4.53638 15.666 6.23189 15.666 8Z" />
<path d="M10.332 8C10.332 7.26362 9.7354 6.66699 8.99902 6.66699C8.26264 6.66699 7.66602 7.26362 7.66602 8C7.66602 8.73638 8.26264 9.33301 8.99902 9.33301C9.7354 9.33301 10.332 8.73638 10.332 8ZM11.666 8C11.666 9.47276 10.4718 10.667 8.99902 10.667C7.52626 10.667 6.33203 9.47276 6.33203 8C6.33203 6.52724 7.52626 5.33301 8.99902 5.33301C10.4718 5.33301 11.666 6.52724 11.666 8Z" />
</svg>
