<svg width="24" height="24" viewBox="0 0 24 24" fill="currentColor" xmlns="http://www.w3.org/2000/svg">
<mask id="mask0_1033_8685" style="mask-type:alpha" maskUnits="userSpaceOnUse" x="0" y="0" width="24" height="24">
<rect width="24" height="24" fill="#D9D9D9"/>
</mask>
<g mask="url(#mask0_1033_8685)">
<path d="M12.0033 11.9807C12.5151 11.9807 12.9533 11.7972 13.318 11.4302C13.6828 11.0632 13.8653 10.6238 13.8653 10.112C13.8653 9.60015 13.6817 9.16182 13.3145 8.79699C12.9475 8.43232 12.5081 8.24999 11.9963 8.24999C11.4844 8.24999 11.0462 8.43349 10.6815 8.80049C10.3167 9.16749 10.1343 9.6069 10.1343 10.1187C10.1343 10.6306 10.3178 11.0689 10.685 11.4337C11.052 11.7984 11.4914 11.9807 12.0033 11.9807ZM11.9998 19.627C13.8626 18.091 15.3693 16.4647 16.52 14.748C17.6707 13.0313 18.246 11.5224 18.246 10.2212C18.246 8.4584 17.6502 6.94841 16.4585 5.69124C15.2668 4.43424 13.7806 3.80574 11.9998 3.80574C10.2189 3.80574 8.73268 4.43424 7.54102 5.69124C6.34935 6.94841 5.75352 8.4584 5.75352 10.2212C5.75352 11.5224 6.32885 13.0272 7.47952 14.7355C8.63018 16.4438 10.1369 18.0743 11.9998 19.627ZM11.9998 21.8442C9.3331 19.5661 7.35043 17.4779 6.05177 15.5797C4.75293 13.6817 4.10352 11.8956 4.10352 10.2212C4.10352 8.1224 4.84652 6.25665 6.33252 4.62399C7.81835 2.99132 9.70743 2.17499 11.9998 2.17499C14.2921 2.17499 16.1812 2.99132 17.667 4.62399C19.153 6.25665 19.896 8.1224 19.896 10.2212C19.896 11.8956 19.2466 13.6817 17.9478 15.5797C16.6491 17.4779 14.6664 19.5661 11.9998 21.8442Z" />
</g>
</svg>
