<svg width="24" height="24" viewBox="0 0 24 24"  xmlns="http://www.w3.org/2000/svg">
<mask id="mask0_129_2848" style="mask-type:alpha" maskUnits="userSpaceOnUse" x="0" y="0" width="24" height="24">
<rect width="24" height="24" />
</mask>
<g mask="url(#mask0_129_2848)">
<path d="M6.30775 21.5C5.80258 21.5 5.375 21.325 5.025 20.975C4.675 20.625 4.5 20.1974 4.5 19.6923V4.30775C4.5 3.80258 4.675 3.375 5.025 3.025C5.375 2.675 5.80258 2.5 6.30775 2.5H13.4216C13.952 2.5 14.4607 2.71071 14.8358 3.08579L18.9142 7.16421C19.2893 7.53929 19.5 8.04799 19.5 8.57843V19.6923C19.5 20.1974 19.325 20.625 18.975 20.975C18.625 21.325 18.1974 21.5 17.6923 21.5H6.30775ZM13.5 8.5V4H6.30775C6.23075 4 6.16025 4.03208 6.09625 4.09625C6.03208 4.16025 6 4.23075 6 4.30775V19.6923C6 19.7693 6.03208 19.8398 6.09625 19.9038C6.16025 19.9679 6.23075 20 6.30775 20H17.6923C17.7692 20 17.8398 19.9679 17.9038 19.9038C17.9679 19.8398 18 19.7693 18 19.6923V8.5H13.5Z" />
</g>
</svg>
