<svg width="24" height="24" viewBox="0 0 24 24"  xmlns="http://www.w3.org/2000/svg">
<mask id="mask0_411_6209" style="mask-type:alpha" maskUnits="userSpaceOnUse" x="0" y="0" width="24" height="24">
<rect width="24" height="24" />
</mask>
<g mask="url(#mask0_411_6209)">
<path d="M5 18.4C5 18.7314 5.26863 19 5.6 19H6.01297C6.1721 19 6.32471 18.9368 6.43724 18.8243L16.498 8.7635L15.2365 7.502L5.17574 17.5628C5.06321 17.6753 5 17.8279 5 17.987V18.4ZM4.5 20.5C3.94772 20.5 3.5 20.0523 3.5 19.5V17.5298C3.5 17.2646 3.60542 17.0101 3.79305 16.8226L16.6905 3.93075C16.8417 3.79342 17.0086 3.68733 17.1913 3.6125C17.3741 3.5375 17.5658 3.5 17.7663 3.5C17.9668 3.5 18.1609 3.53558 18.3488 3.60675C18.5367 3.67792 18.7032 3.79108 18.848 3.94625L20.0693 5.18275C20.2244 5.32758 20.335 5.49425 20.401 5.68275C20.467 5.87125 20.5 6.05975 20.5 6.24825C20.5 6.44942 20.4657 6.64133 20.397 6.824C20.3283 7.00683 20.2191 7.17383 20.0693 7.325L7.17735 20.2074C6.98983 20.3947 6.73559 20.5 6.4705 20.5H4.5ZM15.8562 8.14375L15.2365 7.502L16.498 8.7635L15.8562 8.14375Z" />
</g>
</svg>
