<svg width="24" height="24" viewBox="0 0 24 24" fill="#334155" xmlns="http://www.w3.org/2000/svg">
<mask id="mask0_129_2819" style="mask-type:alpha" maskUnits="userSpaceOnUse" x="0" y="0" width="24" height="24">
<rect width="24" height="24" fill="#D9D9D9"/>
</mask>
<g mask="url(#mask0_129_2819)">
<path d="M4.38806 19.4156C3.72892 19.6931 3 19.2091 3 18.4939V5.50608C3 4.7909 3.72892 4.30691 4.38806 4.58445L17.6222 10.1567C19.2541 10.8438 19.2541 13.1562 17.6222 13.8433L4.38806 19.4156ZM5 17L16.1949 12.2764C16.4394 12.1732 16.4394 11.8268 16.1949 11.7236L5 7V9.71922C5 10.1781 5.3123 10.5781 5.75746 10.6894L9.83583 11.709C10.1388 11.7847 10.1388 12.2153 9.83583 12.291L5.75746 13.3106C5.3123 13.4219 5 13.8219 5 14.2808V17Z" />
</g>
</svg>
