<svg width="24" height="24" viewBox="0 0 24 24" fill="#334155" xmlns="http://www.w3.org/2000/svg">
<mask id="mask0_129_2836" style="mask-type:alpha" maskUnits="userSpaceOnUse" x="0" y="0" width="24" height="24">
<rect width="24" height="24" fill="#D9D9D9"/>
</mask>
<g mask="url(#mask0_129_2836)">
<path d="M7.625 6.4L10.425 2.775C10.625 2.50833 10.8625 2.3125 11.1375 2.1875C11.4125 2.0625 11.7 2 12 2C12.3 2 12.5875 2.0625 12.8625 2.1875C13.1375 2.3125 13.375 2.50833 13.575 2.775L16.375 6.4L20.625 7.825C21.0583 7.95833 21.4 8.20417 21.65 8.5625C21.9 8.92083 22.025 9.31667 22.025 9.75C22.025 9.95 21.9958 10.15 21.9375 10.35C21.8792 10.55 21.7833 10.7417 21.65 10.925L18.9 14.825L19 18.925C19.0167 19.5083 18.825 20 18.425 20.4C18.025 20.8 17.5583 21 17.025 21C16.9917 21 16.8083 20.975 16.475 20.925L12 19.675L7.525 20.925C7.44167 20.9583 7.35 20.9792 7.25 20.9875C7.15 20.9958 7.05833 21 6.975 21C6.44167 21 5.975 20.8 5.575 20.4C5.175 20 4.98333 19.5083 5 18.925L5.1 14.8L2.375 10.925C2.24167 10.7417 2.14583 10.55 2.0875 10.35C2.02917 10.15 2 9.95 2 9.75C2 9.33333 2.12083 8.94583 2.3625 8.5875C2.60417 8.22917 2.94167 7.975 3.375 7.825L7.625 6.4ZM8.85 8.125L4.63534 9.5154C4.31812 9.62005 4.19076 10.0004 4.38097 10.275L7.1 14.2L7.01404 18.3046C7.00704 18.639 7.324 18.8859 7.64651 18.7972L12 17.6L16.3513 18.8184C16.6743 18.9088 16.993 18.6618 16.986 18.3265L16.9 14.2L19.6177 10.3207C19.8089 10.0478 19.6847 9.66774 19.3693 9.56042L15.15 8.125L12.3974 4.52038C12.1973 4.25833 11.8027 4.25833 11.6026 4.52038L8.85 8.125Z" />
</g>
</svg>
