<svg width="24" height="24" viewBox="0 0 24 24" fill="currentColor" xmlns="http://www.w3.org/2000/svg">
<mask id="mask0_1381_13981" style="mask-type:alpha" maskUnits="userSpaceOnUse" x="0" y="0" width="24" height="24">
<rect width="24" height="24" fill="#D9D9D9"/>
</mask>
<g mask="url(#mask0_1381_13981)">
<path d="M17.7308 20.5001H7.2115V8.50005L13.8462 1.90405L14.6923 2.75005C14.7961 2.85389 14.8823 2.99139 14.951 3.16255C15.0195 3.33372 15.0538 3.49497 15.0538 3.6463V3.90005L13.9923 8.50005H20.6923C21.1679 8.50005 21.5881 8.68247 21.9527 9.0473C22.3176 9.41197 22.5 9.83214 22.5 10.3078V11.9231C22.5 12.0269 22.4865 12.1391 22.4595 12.2596C22.4327 12.3801 22.4026 12.4923 22.3693 12.5963L19.5038 19.3578C19.3603 19.6783 19.1199 19.9488 18.7828 20.1693C18.4456 20.3898 18.0949 20.5001 17.7308 20.5001ZM8.7115 19.0001H17.7308C17.8013 19.0001 17.8733 18.9808 17.947 18.9423C18.0208 18.9038 18.077 18.8397 18.1155 18.7501L21 12.0001V10.3078C21 10.218 20.9712 10.1442 20.9135 10.0866C20.8558 10.0289 20.7821 10.0001 20.6923 10.0001H12.0963L13.35 4.5193L8.7115 9.13855V19.0001ZM7.2115 8.50005V10.0001H4V19.0001H7.2115V20.5001H2.5V8.50005H7.2115Z" />
</g>
</svg>
