<svg width="75" height="75" viewBox="0 0 75 75" fill="none" xmlns="http://www.w3.org/2000/svg">
<path d="M54.75 37.25C57.8566 37.25 60.375 34.7316 60.375 31.625C60.375 28.5184 57.8566 26 54.75 26C51.6434 26 49.125 28.5184 49.125 31.625C49.125 34.7316 51.6434 37.25 54.75 37.25Z" stroke="#306DEF" stroke-width="2" stroke-miterlimit="10"/>
<ellipse cx="57.5625" cy="31.625" rx="2.8125" ry="5.625" fill="#306DEF"/>
<path d="M37.875 37.25C40.9816 37.25 43.5 34.7316 43.5 31.625C43.5 28.5184 40.9816 26 37.875 26C34.7684 26 32.25 28.5184 32.25 31.625C32.25 34.7316 34.7684 37.25 37.875 37.25Z" stroke="#306DEF" stroke-width="2" stroke-miterlimit="10"/>
<ellipse cx="40.6875" cy="31.625" rx="2.8125" ry="5.625" fill="#306DEF"/>
<path d="M47 43H46C44.8954 43 44 43.8954 44 45V56C44 57.1046 44.8954 58 46 58H47C48.1046 58 49 57.1046 49 56V45C49 43.8954 48.1046 43 47 43Z" fill="#306DEF" stroke="#306DEF" stroke-width="2"/>
<path d="M44.5 45H48.5" stroke="white" stroke-width="2"/>
<path d="M35.6595 20.4652C36.6552 19.5629 39.1234 18.0628 41.0304 19.2806" stroke="#306DEF" stroke-width="2" stroke-linecap="round"/>
<path d="M52 18.8634C53.2813 18.4588 56.1503 18.1253 57.3753 20.0277" stroke="#306DEF" stroke-width="2" stroke-linecap="round"/>
<path d="M22.4652 6.63686L19.2919 7.54462C18.0963 7.88665 17.4993 9.22534 18.044 10.3434L24.0204 22.6121C24.3324 23.2526 25.0592 23.5767 25.7442 23.3807C26.4445 23.1804 26.8921 22.4969 26.7958 21.7749L24.9977 8.29528C24.8363 7.08558 23.6385 6.3012 22.4652 6.63686Z" fill="#A0BCF8"/>
<path d="M28.6824 29.0409L28.5449 28.5602C28.355 27.8965 27.6631 27.5123 26.9993 27.7022C26.3356 27.8921 25.9515 28.5841 26.1413 29.2478L26.2788 29.7285C26.4687 30.3922 27.1607 30.7764 27.8244 30.5865C28.4882 30.3966 28.8723 29.7046 28.6824 29.0409Z" fill="#A0BCF8"/>
<path d="M11.3473 20.4671L10.7887 20.9372C9.84916 21.728 9.83761 23.171 10.7644 23.9767L18.1465 30.3947C18.5047 30.7061 19.0364 30.7104 19.3996 30.4047C19.77 30.093 19.8517 29.5549 19.5906 29.1473L14.3193 20.9184C13.668 19.9017 12.2711 19.6895 11.3473 20.4671Z" fill="#92B3FF"/>
<path d="M23.1421 33.5372L22.7648 33.0888C22.4677 32.7358 21.9407 32.6905 21.5877 32.9876C21.2347 33.2847 21.1894 33.8117 21.4865 34.1647L21.8638 34.613C22.1609 34.966 22.6879 35.0113 23.0409 34.7142C23.3939 34.4171 23.4392 33.8901 23.1421 33.5372Z" fill="#92B3FF"/>
<circle cx="38.5" cy="30.5" r="1.5" fill="white"/>
<circle cx="55.5" cy="30.5" r="1.5" fill="white"/>
</svg>
